solid OpenSCAD_Model
  facet normal -0 0 1
    outer loop
      vertex -31 13.5 59.5
      vertex -12.0444 13.3766 59.5
      vertex -11.8745 13.5 59.5
    endloop
  endfacet
  facet normal 0 0 1
    outer loop
      vertex -31 13.5 59.5
      vertex -13.7341 11.5 59.5
      vertex -12.0444 13.3766 59.5
    endloop
  endfacet
  facet normal 0 0 1
    outer loop
      vertex -13.7341 11.5 59.5
      vertex -31 13.5 59.5
      vertex -31 11.5 59.5
    endloop
  endfacet
  facet normal 0 0 1
    outer loop
      vertex -31 -13.5 59.5
      vertex -13.7341 -11.5 59.5
      vertex -31 -11.5 59.5
    endloop
  endfacet
  facet normal 0 0 1
    outer loop
      vertex -13.7341 -11.5 59.5
      vertex -31 -13.5 59.5
      vertex -12.0444 -13.3766 59.5
    endloop
  endfacet
  facet normal 0 0 1
    outer loop
      vertex -12.0444 -13.3766 59.5
      vertex -31 -13.5 59.5
      vertex -11.8745 -13.5 59.5
    endloop
  endfacet
  facet normal 0 0 -1
    outer loop
      vertex -31 13.5 44.5
      vertex -13.7341 11.5 44.5
      vertex -31 11.5 44.5
    endloop
  endfacet
  facet normal 0 0 -1
    outer loop
      vertex -13.7341 11.5 44.5
      vertex -31 13.5 44.5
      vertex -12.0444 13.3766 44.5
    endloop
  endfacet
  facet normal 0 0 -1
    outer loop
      vertex -12.0444 13.3766 44.5
      vertex -31 13.5 44.5
      vertex -11.8745 13.5 44.5
    endloop
  endfacet
  facet normal 0 0 -1
    outer loop
      vertex -31 -13.5 44.5
      vertex -12.0444 -13.3766 44.5
      vertex -11.8745 -13.5 44.5
    endloop
  endfacet
  facet normal 0 0 -1
    outer loop
      vertex -31 -13.5 44.5
      vertex -13.7341 -11.5 44.5
      vertex -12.0444 -13.3766 44.5
    endloop
  endfacet
  facet normal -0 0 -1
    outer loop
      vertex -13.7341 -11.5 44.5
      vertex -31 -13.5 44.5
      vertex -31 -11.5 44.5
    endloop
  endfacet
  facet normal -1 0 0
    outer loop
      vertex -31 11.5 44.5
      vertex -31 13.5 59.5
      vertex -31 13.5 44.5
    endloop
  endfacet
  facet normal -1 -0 0
    outer loop
      vertex -31 13.5 59.5
      vertex -31 11.5 44.5
      vertex -31 11.5 59.5
    endloop
  endfacet
  facet normal -1 0 0
    outer loop
      vertex -31 -13.5 44.5
      vertex -31 -11.5 59.5
      vertex -31 -11.5 44.5
    endloop
  endfacet
  facet normal -1 -0 0
    outer loop
      vertex -31 -11.5 59.5
      vertex -31 -13.5 44.5
      vertex -31 -13.5 59.5
    endloop
  endfacet
  facet normal 0 1 -0
    outer loop
      vertex -11.8745 13.5 44.5
      vertex -31 13.5 59.5
      vertex -11.8745 13.5 59.5
    endloop
  endfacet
  facet normal 0 1 0
    outer loop
      vertex -31 13.5 59.5
      vertex -11.8745 13.5 44.5
      vertex -31 13.5 44.5
    endloop
  endfacet
  facet normal 0 -1 0
    outer loop
      vertex -31 -13.5 44.5
      vertex -11.8745 -13.5 59.5
      vertex -31 -13.5 59.5
    endloop
  endfacet
  facet normal 0 -1 -0
    outer loop
      vertex -11.8745 -13.5 59.5
      vertex -31 -13.5 44.5
      vertex -11.8745 -13.5 44.5
    endloop
  endfacet
  facet normal -0 0 1
    outer loop
      vertex -31 10.5 65
      vertex -16.4438 7.32126 65
      vertex -14.6086 10.5 65
    endloop
  endfacet
  facet normal 0 0 1
    outer loop
      vertex -31 10.5 65
      vertex -17.6067 3.74241 65
      vertex -16.4438 7.32126 65
    endloop
  endfacet
  facet normal 0 0 1
    outer loop
      vertex -31 3.5 65
      vertex -17.6067 3.74241 65
      vertex -31 10.5 65
    endloop
  endfacet
  facet normal 0 0 1
    outer loop
      vertex -17.6067 3.74241 65
      vertex -31 3.5 65
      vertex -17.6321 3.5 65
    endloop
  endfacet
  facet normal 0 0 -1
    outer loop
      vertex -31 3.5 63
      vertex -17.6067 3.74241 63
      vertex -17.6321 3.5 63
    endloop
  endfacet
  facet normal 0 0 -1
    outer loop
      vertex -31 10.5 63
      vertex -17.6067 3.74241 63
      vertex -31 3.5 63
    endloop
  endfacet
  facet normal 0 0 -1
    outer loop
      vertex -17.6067 3.74241 63
      vertex -31 10.5 63
      vertex -16.4438 7.32126 63
    endloop
  endfacet
  facet normal 0 0 -1
    outer loop
      vertex -16.4438 7.32126 63
      vertex -31 10.5 63
      vertex -14.6086 10.5 63
    endloop
  endfacet
  facet normal -1 0 0
    outer loop
      vertex -31 3.5 63
      vertex -31 10.5 65
      vertex -31 10.5 63
    endloop
  endfacet
  facet normal -1 -0 0
    outer loop
      vertex -31 10.5 65
      vertex -31 3.5 63
      vertex -31 3.5 65
    endloop
  endfacet
  facet normal 0 1 -0
    outer loop
      vertex -14.6086 10.5 63
      vertex -31 10.5 65
      vertex -14.6086 10.5 65
    endloop
  endfacet
  facet normal 0 1 0
    outer loop
      vertex -31 10.5 65
      vertex -14.6086 10.5 63
      vertex -31 10.5 63
    endloop
  endfacet
  facet normal 0 -1 0
    outer loop
      vertex -31 3.5 63
      vertex -17.6321 3.5 65
      vertex -31 3.5 65
    endloop
  endfacet
  facet normal 0 -1 -0
    outer loop
      vertex -17.6321 3.5 65
      vertex -31 3.5 63
      vertex -17.6321 3.5 63
    endloop
  endfacet
  facet normal 0 -1 0
    outer loop
      vertex -31 11.5 44.5
      vertex -13.7341 11.5 59.5
      vertex -31 11.5 59.5
    endloop
  endfacet
  facet normal 0 -1 -0
    outer loop
      vertex -13.7341 11.5 59.5
      vertex -31 11.5 44.5
      vertex -13.7341 11.5 44.5
    endloop
  endfacet
  facet normal 0 1 -0
    outer loop
      vertex -13.7341 -11.5 44.5
      vertex -31 -11.5 59.5
      vertex -13.7341 -11.5 59.5
    endloop
  endfacet
  facet normal 0 1 0
    outer loop
      vertex -31 -11.5 59.5
      vertex -13.7341 -11.5 44.5
      vertex -31 -11.5 44.5
    endloop
  endfacet
  facet normal 0.951052 0.309032 0
    outer loop
      vertex 17.6067 3.74241 70
      vertex 16.4438 7.32126 40
      vertex 16.4438 7.32126 70
    endloop
  endfacet
  facet normal 0.951052 0.309032 0
    outer loop
      vertex 16.4438 7.32126 40
      vertex 17.6067 3.74241 70
      vertex 17.6067 3.74241 40
    endloop
  endfacet
  facet normal 0.994523 0.104517 0
    outer loop
      vertex 18 0 70
      vertex 17.6067 3.74241 40
      vertex 17.6067 3.74241 70
    endloop
  endfacet
  facet normal 0.994523 0.104517 0
    outer loop
      vertex 17.6067 3.74241 40
      vertex 18 0 70
      vertex 18 0 40
    endloop
  endfacet
  facet normal 0.866025 0.500002 0
    outer loop
      vertex 16.4438 7.32126 70
      vertex 14.5623 10.5801 40
      vertex 14.5623 10.5801 70
    endloop
  endfacet
  facet normal 0.866025 0.500002 0
    outer loop
      vertex 14.5623 10.5801 40
      vertex 16.4438 7.32126 70
      vertex 16.4438 7.32126 40
    endloop
  endfacet
  facet normal 0.406724 -0.913551 0
    outer loop
      vertex 5.56231 -17.119 40
      vertex 9 -15.5885 60
      vertex 5.56231 -17.119 60
    endloop
  endfacet
  facet normal 0.406724 -0.913551 0
    outer loop
      vertex 9 -15.5885 60
      vertex 5.56231 -17.119 40
      vertex 9 -15.5885 40
    endloop
  endfacet
  facet normal -0.207917 0.978146 0
    outer loop
      vertex -1.88151 17.9014 40
      vertex -5.56231 17.119 70
      vertex -1.88151 17.9014 70
    endloop
  endfacet
  facet normal -0.207917 0.978146 0
    outer loop
      vertex -5.56231 17.119 70
      vertex -1.88151 17.9014 40
      vertex -5.56231 17.119 40
    endloop
  endfacet
  facet normal 0.406724 0.913551 -0
    outer loop
      vertex 9 15.5885 40
      vertex 5.56231 17.119 70
      vertex 9 15.5885 70
    endloop
  endfacet
  facet normal 0.406724 0.913551 0
    outer loop
      vertex 5.56231 17.119 70
      vertex 9 15.5885 40
      vertex 5.56231 17.119 40
    endloop
  endfacet
  facet normal 0.994523 -0.104517 0
    outer loop
      vertex 17.6067 -3.74241 70
      vertex 18 0 40
      vertex 18 0 70
    endloop
  endfacet
  facet normal 0.994523 -0.104517 0
    outer loop
      vertex 18 0 40
      vertex 17.6067 -3.74241 70
      vertex 17.6067 -3.74241 40
    endloop
  endfacet
  facet normal -0.866025 -0.500002 0
    outer loop
      vertex -14.5623 -10.5801 40
      vertex -16.4438 -7.32126 70
      vertex -16.4438 -7.32126 40
    endloop
  endfacet
  facet normal -0.866025 -0.500002 0
    outer loop
      vertex -16.4438 -7.32126 70
      vertex -14.5623 -10.5801 40
      vertex -14.5623 -10.5801 70
    endloop
  endfacet
  facet normal 0.743155 0.669119 0
    outer loop
      vertex 14.5623 10.5801 70
      vertex 12.0444 13.3766 40
      vertex 12.0444 13.3766 70
    endloop
  endfacet
  facet normal 0.743155 0.669119 0
    outer loop
      vertex 12.0444 13.3766 40
      vertex 14.5623 10.5801 70
      vertex 14.5623 10.5801 40
    endloop
  endfacet
  facet normal -0.865771 0.50044 0
    outer loop
      vertex -14.5623 10.5801 40
      vertex -14.6086 10.5 63
      vertex -14.5623 10.5801 70
    endloop
  endfacet
  facet normal -0.866025 0.500002 -2.03518e-06
    outer loop
      vertex -16.4438 7.32126 40
      vertex -14.6086 10.5 63
      vertex -14.5623 10.5801 40
    endloop
  endfacet
  facet normal -0.866031 0.499991 0
    outer loop
      vertex -14.6086 10.5 63
      vertex -16.4438 7.32126 40
      vertex -16.4438 7.32126 63
    endloop
  endfacet
  facet normal -0.865771 0.50044 0
    outer loop
      vertex -14.6086 10.5 65
      vertex -14.5623 10.5801 70
      vertex -14.6086 10.5 63
    endloop
  endfacet
  facet normal -0.866031 0.499991 0
    outer loop
      vertex -16.4438 7.32126 70
      vertex -14.6086 10.5 65
      vertex -16.4438 7.32126 65
    endloop
  endfacet
  facet normal -0.866025 0.500002 9.36182e-06
    outer loop
      vertex -14.6086 10.5 65
      vertex -16.4438 7.32126 70
      vertex -14.5623 10.5801 70
    endloop
  endfacet
  facet normal -0.743144 0.669131 0
    outer loop
      vertex -12.0444 13.3766 40
      vertex -13.7341 11.5 44.5
      vertex -12.0444 13.3766 44.5
    endloop
  endfacet
  facet normal -0.743178 0.669094 0
    outer loop
      vertex -13.7341 11.5 44.5
      vertex -14.5623 10.5801 40
      vertex -13.7341 11.5 59.5
    endloop
  endfacet
  facet normal -0.743155 0.669119 -9.14812e-06
    outer loop
      vertex -14.5623 10.5801 40
      vertex -13.7341 11.5 44.5
      vertex -12.0444 13.3766 40
    endloop
  endfacet
  facet normal -0.743144 0.669131 0
    outer loop
      vertex -13.7341 11.5 59.5
      vertex -12.0444 13.3766 70
      vertex -12.0444 13.3766 59.5
    endloop
  endfacet
  facet normal -0.743155 0.669119 3.92062e-06
    outer loop
      vertex -13.7341 11.5 59.5
      vertex -14.5623 10.5801 70
      vertex -12.0444 13.3766 70
    endloop
  endfacet
  facet normal -0.743178 0.669094 0
    outer loop
      vertex -14.5623 10.5801 70
      vertex -13.7341 11.5 59.5
      vertex -14.5623 10.5801 40
    endloop
  endfacet
  facet normal -0.994555 0.104211 0
    outer loop
      vertex -17.6067 3.74241 40
      vertex -17.6321 3.5 63
      vertex -17.6067 3.74241 63
    endloop
  endfacet
  facet normal -0.994521 0.104538 0
    outer loop
      vertex -18 0 70
      vertex -17.6321 3.5 63
      vertex -18 0 40
    endloop
  endfacet
  facet normal -0.994523 0.104517 3.26564e-06
    outer loop
      vertex -18 0 40
      vertex -17.6321 3.5 63
      vertex -17.6067 3.74241 40
    endloop
  endfacet
  facet normal -0.994555 0.104211 0
    outer loop
      vertex -17.6321 3.5 65
      vertex -17.6067 3.74241 70
      vertex -17.6067 3.74241 65
    endloop
  endfacet
  facet normal -0.994521 0.104538 0
    outer loop
      vertex -17.6321 3.5 63
      vertex -18 0 70
      vertex -17.6321 3.5 65
    endloop
  endfacet
  facet normal -0.994523 0.104517 -1.50219e-05
    outer loop
      vertex -17.6321 3.5 65
      vertex -18 0 70
      vertex -17.6067 3.74241 70
    endloop
  endfacet
  facet normal 0.587788 -0.809015 0
    outer loop
      vertex 9 -15.5885 40
      vertex 12.0444 -13.3766 60
      vertex 9 -15.5885 60
    endloop
  endfacet
  facet normal 0.587788 -0.809015 0
    outer loop
      vertex 12.0444 -13.3766 60
      vertex 9 -15.5885 40
      vertex 12.0444 -13.3766 40
    endloop
  endfacet
  facet normal -0.587788 0.809015 -3.10914e-06
    outer loop
      vertex -9 15.5885 70
      vertex -11.8745 13.5 59.5
      vertex -12.0444 13.3766 70
    endloop
  endfacet
  facet normal -0.587795 0.80901 0
    outer loop
      vertex -9 15.5885 40
      vertex -11.8745 13.5 59.5
      vertex -9 15.5885 70
    endloop
  endfacet
  facet normal -0.587795 0.80901 0
    outer loop
      vertex -11.8745 13.5 59.5
      vertex -9 15.5885 40
      vertex -11.8745 13.5 44.5
    endloop
  endfacet
  facet normal -0.587788 0.809015 7.25467e-06
    outer loop
      vertex -12.0444 13.3766 40
      vertex -11.8745 13.5 44.5
      vertex -9 15.5885 40
    endloop
  endfacet
  facet normal -0.587662 0.809107 0
    outer loop
      vertex -11.8745 13.5 44.5
      vertex -12.0444 13.3766 40
      vertex -12.0444 13.3766 44.5
    endloop
  endfacet
  facet normal -0.587662 0.809107 0
    outer loop
      vertex -12.0444 13.3766 70
      vertex -11.8745 13.5 59.5
      vertex -12.0444 13.3766 59.5
    endloop
  endfacet
  facet normal 0 1 -0
    outer loop
      vertex 1.88151 17.9014 40
      vertex -1.88151 17.9014 70
      vertex 1.88151 17.9014 70
    endloop
  endfacet
  facet normal 0 1 0
    outer loop
      vertex -1.88151 17.9014 70
      vertex 1.88151 17.9014 40
      vertex -1.88151 17.9014 40
    endloop
  endfacet
  facet normal -0.406724 -0.913551 0
    outer loop
      vertex -9 -15.5885 40
      vertex -5.56231 -17.119 60
      vertex -9 -15.5885 60
    endloop
  endfacet
  facet normal -0.406724 -0.913551 -0
    outer loop
      vertex -5.56231 -17.119 60
      vertex -9 -15.5885 40
      vertex -5.56231 -17.119 40
    endloop
  endfacet
  facet normal 0.743161 -0.669112 0
    outer loop
      vertex 12.8337 -12.5 60
      vertex 14.5623 -10.5801 70
      vertex 12.8337 -12.5 70
    endloop
  endfacet
  facet normal 0.743161 -0.669112 0
    outer loop
      vertex 14.5623 -10.5801 70
      vertex 12.8337 -12.5 60
      vertex 14.5623 -10.5801 40
    endloop
  endfacet
  facet normal 0.743142 -0.669133 0
    outer loop
      vertex 12.0444 -13.3766 40
      vertex 12.8337 -12.5 60
      vertex 12.0444 -13.3766 60
    endloop
  endfacet
  facet normal 0.743155 -0.669119 -1.14682e-06
    outer loop
      vertex 12.8337 -12.5 60
      vertex 12.0444 -13.3766 40
      vertex 14.5623 -10.5801 40
    endloop
  endfacet
  facet normal -0.951052 0.309032 0
    outer loop
      vertex -17.6067 3.74241 65
      vertex -16.4438 7.32126 70
      vertex -16.4438 7.32126 65
    endloop
  endfacet
  facet normal -0.951052 0.309032 0
    outer loop
      vertex -16.4438 7.32126 70
      vertex -17.6067 3.74241 65
      vertex -17.6067 3.74241 70
    endloop
  endfacet
  facet normal -0.951052 0.309032 0
    outer loop
      vertex -17.6067 3.74241 40
      vertex -16.4438 7.32126 63
      vertex -16.4438 7.32126 40
    endloop
  endfacet
  facet normal -0.951052 0.309032 0
    outer loop
      vertex -16.4438 7.32126 63
      vertex -17.6067 3.74241 40
      vertex -17.6067 3.74241 63
    endloop
  endfacet
  facet normal -0.743144 -0.669131 -7.41323e-06
    outer loop
      vertex -12.0444 -13.3766 59.5
      vertex -12.8337 -12.5 60
      vertex -13.7341 -11.5 59.5
    endloop
  endfacet
  facet normal -0.743142 -0.669133 0
    outer loop
      vertex -12.8337 -12.5 60
      vertex -12.0444 -13.3766 59.5
      vertex -12.0444 -13.3766 60
    endloop
  endfacet
  facet normal -0.743178 -0.669094 -0
    outer loop
      vertex -13.7341 -11.5 59.5
      vertex -14.5623 -10.5801 40
      vertex -13.7341 -11.5 44.5
    endloop
  endfacet
  facet normal -0.743155 -0.669119 -9.14812e-06
    outer loop
      vertex -12.0444 -13.3766 40
      vertex -13.7341 -11.5 44.5
      vertex -14.5623 -10.5801 40
    endloop
  endfacet
  facet normal -0.743144 -0.669131 0
    outer loop
      vertex -13.7341 -11.5 44.5
      vertex -12.0444 -13.3766 40
      vertex -12.0444 -13.3766 44.5
    endloop
  endfacet
  facet normal -0.743178 -0.669094 0
    outer loop
      vertex -14.5623 -10.5801 40
      vertex -13.7341 -11.5 59.5
      vertex -14.5623 -10.5801 70
    endloop
  endfacet
  facet normal -0.743148 -0.669127 5.28614e-06
    outer loop
      vertex -12.8337 -12.5 60
      vertex -14.5623 -10.5801 70
      vertex -13.7341 -11.5 59.5
    endloop
  endfacet
  facet normal -0.743161 -0.669112 0
    outer loop
      vertex -14.5623 -10.5801 70
      vertex -12.8337 -12.5 60
      vertex -12.8337 -12.5 70
    endloop
  endfacet
  facet normal 0.866025 -0.500002 0
    outer loop
      vertex 14.5623 -10.5801 70
      vertex 16.4438 -7.32126 40
      vertex 16.4438 -7.32126 70
    endloop
  endfacet
  facet normal 0.866025 -0.500002 0
    outer loop
      vertex 16.4438 -7.32126 40
      vertex 14.5623 -10.5801 70
      vertex 14.5623 -10.5801 40
    endloop
  endfacet
  facet normal 0.207917 0.978146 -0
    outer loop
      vertex 5.56231 17.119 40
      vertex 1.88151 17.9014 70
      vertex 5.56231 17.119 70
    endloop
  endfacet
  facet normal 0.207917 0.978146 0
    outer loop
      vertex 1.88151 17.9014 70
      vertex 5.56231 17.119 40
      vertex 1.88151 17.9014 40
    endloop
  endfacet
  facet normal 0.587788 0.809015 -0
    outer loop
      vertex 12.0444 13.3766 40
      vertex 9 15.5885 70
      vertex 12.0444 13.3766 70
    endloop
  endfacet
  facet normal 0.587788 0.809015 0
    outer loop
      vertex 9 15.5885 70
      vertex 12.0444 13.3766 40
      vertex 9 15.5885 40
    endloop
  endfacet
  facet normal -0.994523 -0.104517 0
    outer loop
      vertex -17.6067 -3.74241 40
      vertex -18 0 70
      vertex -18 0 40
    endloop
  endfacet
  facet normal -0.994523 -0.104517 0
    outer loop
      vertex -18 0 70
      vertex -17.6067 -3.74241 40
      vertex -17.6067 -3.74241 70
    endloop
  endfacet
  facet normal -0.406724 0.913551 0
    outer loop
      vertex -5.56231 17.119 40
      vertex -9 15.5885 70
      vertex -5.56231 17.119 70
    endloop
  endfacet
  facet normal -0.406724 0.913551 0
    outer loop
      vertex -9 15.5885 70
      vertex -5.56231 17.119 40
      vertex -9 15.5885 40
    endloop
  endfacet
  facet normal 0 -1 0
    outer loop
      vertex -1.88151 -17.9014 40
      vertex 1.88151 -17.9014 60
      vertex -1.88151 -17.9014 60
    endloop
  endfacet
  facet normal 0 -1 -0
    outer loop
      vertex 1.88151 -17.9014 60
      vertex -1.88151 -17.9014 40
      vertex 1.88151 -17.9014 40
    endloop
  endfacet
  facet normal 0.951052 -0.309032 0
    outer loop
      vertex 16.4438 -7.32126 70
      vertex 17.6067 -3.74241 40
      vertex 17.6067 -3.74241 70
    endloop
  endfacet
  facet normal 0.951052 -0.309032 0
    outer loop
      vertex 17.6067 -3.74241 40
      vertex 16.4438 -7.32126 70
      vertex 16.4438 -7.32126 40
    endloop
  endfacet
  facet normal -0.951052 -0.309032 0
    outer loop
      vertex -16.4438 -7.32126 40
      vertex -17.6067 -3.74241 70
      vertex -17.6067 -3.74241 40
    endloop
  endfacet
  facet normal -0.951052 -0.309032 0
    outer loop
      vertex -17.6067 -3.74241 70
      vertex -16.4438 -7.32126 40
      vertex -16.4438 -7.32126 70
    endloop
  endfacet
  facet normal -0.587662 -0.809107 -0
    outer loop
      vertex -12.0444 -13.3766 44.5
      vertex -12.0444 -13.3766 40
      vertex -11.8745 -13.5 44.5
    endloop
  endfacet
  facet normal -0.587662 -0.809107 0
    outer loop
      vertex -11.8745 -13.5 59.5
      vertex -12.0444 -13.3766 60
      vertex -12.0444 -13.3766 59.5
    endloop
  endfacet
  facet normal -0.587788 -0.809015 -6.5292e-05
    outer loop
      vertex -12.0444 -13.3766 60
      vertex -11.8745 -13.5 59.5
      vertex -9 -15.5885 60
    endloop
  endfacet
  facet normal -0.587795 -0.80901 0
    outer loop
      vertex -11.8745 -13.5 44.5
      vertex -9 -15.5885 60
      vertex -11.8745 -13.5 59.5
    endloop
  endfacet
  facet normal -0.587788 -0.809015 7.25467e-06
    outer loop
      vertex -9 -15.5885 40
      vertex -11.8745 -13.5 44.5
      vertex -12.0444 -13.3766 40
    endloop
  endfacet
  facet normal -0.587795 -0.80901 0
    outer loop
      vertex -11.8745 -13.5 44.5
      vertex -9 -15.5885 40
      vertex -9 -15.5885 60
    endloop
  endfacet
  facet normal 0.207917 -0.978146 0
    outer loop
      vertex 1.88151 -17.9014 40
      vertex 5.56231 -17.119 60
      vertex 1.88151 -17.9014 60
    endloop
  endfacet
  facet normal 0.207917 -0.978146 0
    outer loop
      vertex 5.56231 -17.119 60
      vertex 1.88151 -17.9014 40
      vertex 5.56231 -17.119 40
    endloop
  endfacet
  facet normal -0.207917 -0.978146 0
    outer loop
      vertex -5.56231 -17.119 40
      vertex -1.88151 -17.9014 60
      vertex -5.56231 -17.119 60
    endloop
  endfacet
  facet normal -0.207917 -0.978146 -0
    outer loop
      vertex -1.88151 -17.9014 60
      vertex -5.56231 -17.119 40
      vertex -1.88151 -17.9014 40
    endloop
  endfacet
  facet normal -0.587786 -0.809017 0
    outer loop
      vertex 8 13.8564 40
      vertex 10.7061 11.8903 70
      vertex 8 13.8564 70
    endloop
  endfacet
  facet normal -0.587786 -0.809017 -0
    outer loop
      vertex 10.7061 11.8903 70
      vertex 8 13.8564 40
      vertex 10.7061 11.8903 40
    endloop
  endfacet
  facet normal -0.207898 -0.97815 0
    outer loop
      vertex 1.67245 15.9123 40
      vertex 4.94427 15.2169 70
      vertex 1.67245 15.9123 70
    endloop
  endfacet
  facet normal -0.207898 -0.97815 -0
    outer loop
      vertex 4.94427 15.2169 70
      vertex 1.67245 15.9123 40
      vertex 4.94427 15.2169 40
    endloop
  endfacet
  facet normal -0.994523 0.104517 0
    outer loop
      vertex 15.6504 -3.32659 40
      vertex 16 0 70
      vertex 16 0 40
    endloop
  endfacet
  facet normal -0.994523 0.104517 0
    outer loop
      vertex 16 0 70
      vertex 15.6504 -3.32659 40
      vertex 15.6504 -3.32659 70
    endloop
  endfacet
  facet normal -0.866032 -0.499989 0
    outer loop
      vertex 14.6167 6.50779 40
      vertex 12.9443 9.40456 70
      vertex 12.9443 9.40456 40
    endloop
  endfacet
  facet normal -0.866032 -0.499989 0
    outer loop
      vertex 12.9443 9.40456 70
      vertex 14.6167 6.50779 40
      vertex 14.6167 6.50779 70
    endloop
  endfacet
  facet normal 0 -1 0
    outer loop
      vertex -1.67245 15.9123 40
      vertex 1.67245 15.9123 70
      vertex -1.67245 15.9123 70
    endloop
  endfacet
  facet normal 0 -1 -0
    outer loop
      vertex 1.67245 15.9123 70
      vertex -1.67245 15.9123 40
      vertex 1.67245 15.9123 40
    endloop
  endfacet
  facet normal -0.866032 0.499989 0
    outer loop
      vertex 12.9443 -9.40456 40
      vertex 14.6167 -6.50779 70
      vertex 14.6167 -6.50779 40
    endloop
  endfacet
  facet normal -0.866032 0.499989 0
    outer loop
      vertex 14.6167 -6.50779 70
      vertex 12.9443 -9.40456 40
      vertex 12.9443 -9.40456 70
    endloop
  endfacet
  facet normal -0.994523 -0.104517 0
    outer loop
      vertex 16 0 40
      vertex 15.6504 3.32659 70
      vertex 15.6504 3.32659 40
    endloop
  endfacet
  facet normal -0.994523 -0.104517 0
    outer loop
      vertex 15.6504 3.32659 70
      vertex 16 0 40
      vertex 16 0 70
    endloop
  endfacet
  facet normal 0.207898 -0.97815 0
    outer loop
      vertex -4.94427 15.2169 40
      vertex -1.67245 15.9123 70
      vertex -4.94427 15.2169 70
    endloop
  endfacet
  facet normal 0.207898 -0.97815 0
    outer loop
      vertex -1.67245 15.9123 70
      vertex -4.94427 15.2169 40
      vertex -1.67245 15.9123 40
    endloop
  endfacet
  facet normal 0.951051 -0.309035 0
    outer loop
      vertex -15.6504 3.32659 70
      vertex -14.6167 6.50779 40
      vertex -14.6167 6.50779 70
    endloop
  endfacet
  facet normal 0.951051 -0.309035 0
    outer loop
      vertex -14.6167 6.50779 40
      vertex -15.6504 3.32659 70
      vertex -15.6504 3.32659 40
    endloop
  endfacet
  facet normal -0.951051 -0.309035 0
    outer loop
      vertex 15.6504 3.32659 40
      vertex 14.6167 6.50779 70
      vertex 14.6167 6.50779 40
    endloop
  endfacet
  facet normal -0.951051 -0.309035 0
    outer loop
      vertex 14.6167 6.50779 70
      vertex 15.6504 3.32659 40
      vertex 15.6504 3.32659 70
    endloop
  endfacet
  facet normal 0.406737 0.913545 -0
    outer loop
      vertex -4.94427 -15.2169 40
      vertex -8 -13.8564 60
      vertex -4.94427 -15.2169 60
    endloop
  endfacet
  facet normal 0.406737 0.913545 0
    outer loop
      vertex -8 -13.8564 60
      vertex -4.94427 -15.2169 40
      vertex -8 -13.8564 40
    endloop
  endfacet
  facet normal 0.587786 -0.809017 0
    outer loop
      vertex -10.7061 11.8903 40
      vertex -8 13.8564 70
      vertex -10.7061 11.8903 70
    endloop
  endfacet
  facet normal 0.587786 -0.809017 0
    outer loop
      vertex -8 13.8564 70
      vertex -10.7061 11.8903 40
      vertex -8 13.8564 40
    endloop
  endfacet
  facet normal -0.406737 -0.913545 0
    outer loop
      vertex 4.94427 15.2169 40
      vertex 8 13.8564 70
      vertex 4.94427 15.2169 70
    endloop
  endfacet
  facet normal -0.406737 -0.913545 -0
    outer loop
      vertex 8 13.8564 70
      vertex 4.94427 15.2169 40
      vertex 8 13.8564 40
    endloop
  endfacet
  facet normal 0.74314 -0.669136 0
    outer loop
      vertex -12.9443 9.40456 70
      vertex -10.7061 11.8903 40
      vertex -10.7061 11.8903 70
    endloop
  endfacet
  facet normal 0.74314 -0.669136 0
    outer loop
      vertex -10.7061 11.8903 40
      vertex -12.9443 9.40456 70
      vertex -12.9443 9.40456 40
    endloop
  endfacet
  facet normal 0.207898 0.97815 -0
    outer loop
      vertex -1.67245 -15.9123 40
      vertex -4.94427 -15.2169 60
      vertex -1.67245 -15.9123 60
    endloop
  endfacet
  facet normal 0.207898 0.97815 0
    outer loop
      vertex -4.94427 -15.2169 60
      vertex -1.67245 -15.9123 40
      vertex -4.94427 -15.2169 40
    endloop
  endfacet
  facet normal -0.58779 0.809014 0
    outer loop
      vertex 10.7061 -11.8903 70
      vertex 9.86693 -12.5 60
      vertex 9.86693 -12.5 70
    endloop
  endfacet
  facet normal -0.58779 0.809014 0
    outer loop
      vertex 10.7061 -11.8903 40
      vertex 9.86693 -12.5 60
      vertex 10.7061 -11.8903 70
    endloop
  endfacet
  facet normal -0.587786 0.809017 2.5461e-07
    outer loop
      vertex 8 -13.8564 40
      vertex 9.86693 -12.5 60
      vertex 10.7061 -11.8903 40
    endloop
  endfacet
  facet normal -0.587784 0.809018 0
    outer loop
      vertex 9.86693 -12.5 60
      vertex 8 -13.8564 40
      vertex 8 -13.8564 60
    endloop
  endfacet
  facet normal -0.406737 0.913545 0
    outer loop
      vertex 8 -13.8564 40
      vertex 4.94427 -15.2169 60
      vertex 8 -13.8564 60
    endloop
  endfacet
  facet normal -0.406737 0.913545 0
    outer loop
      vertex 4.94427 -15.2169 60
      vertex 8 -13.8564 40
      vertex 4.94427 -15.2169 40
    endloop
  endfacet
  facet normal 0.994523 -0.104517 0
    outer loop
      vertex -16 0 70
      vertex -15.6504 3.32659 40
      vertex -15.6504 3.32659 70
    endloop
  endfacet
  facet normal 0.994523 -0.104517 0
    outer loop
      vertex -15.6504 3.32659 40
      vertex -16 0 70
      vertex -16 0 40
    endloop
  endfacet
  facet normal -0.74314 -0.669136 0
    outer loop
      vertex 12.9443 9.40456 40
      vertex 10.7061 11.8903 70
      vertex 10.7061 11.8903 40
    endloop
  endfacet
  facet normal -0.74314 -0.669136 0
    outer loop
      vertex 10.7061 11.8903 70
      vertex 12.9443 9.40456 40
      vertex 12.9443 9.40456 70
    endloop
  endfacet
  facet normal 0.951051 0.309035 0
    outer loop
      vertex -14.6167 -6.50779 70
      vertex -15.6504 -3.32659 40
      vertex -15.6504 -3.32659 70
    endloop
  endfacet
  facet normal 0.951051 0.309035 0
    outer loop
      vertex -15.6504 -3.32659 40
      vertex -14.6167 -6.50779 70
      vertex -14.6167 -6.50779 40
    endloop
  endfacet
  facet normal -0.74314 0.669136 0
    outer loop
      vertex 10.7061 -11.8903 40
      vertex 12.9443 -9.40456 70
      vertex 12.9443 -9.40456 40
    endloop
  endfacet
  facet normal -0.74314 0.669136 0
    outer loop
      vertex 12.9443 -9.40456 70
      vertex 10.7061 -11.8903 40
      vertex 10.7061 -11.8903 70
    endloop
  endfacet
  facet normal 0.406737 -0.913545 0
    outer loop
      vertex -8 13.8564 40
      vertex -4.94427 15.2169 70
      vertex -8 13.8564 70
    endloop
  endfacet
  facet normal 0.406737 -0.913545 0
    outer loop
      vertex -4.94427 15.2169 70
      vertex -8 13.8564 40
      vertex -4.94427 15.2169 40
    endloop
  endfacet
  facet normal 0 1 -0
    outer loop
      vertex 1.67245 -15.9123 40
      vertex -1.67245 -15.9123 60
      vertex 1.67245 -15.9123 60
    endloop
  endfacet
  facet normal 0 1 0
    outer loop
      vertex -1.67245 -15.9123 60
      vertex 1.67245 -15.9123 40
      vertex -1.67245 -15.9123 40
    endloop
  endfacet
  facet normal 0.866032 0.499989 0
    outer loop
      vertex -12.9443 -9.40456 70
      vertex -14.6167 -6.50779 40
      vertex -14.6167 -6.50779 70
    endloop
  endfacet
  facet normal 0.866032 0.499989 0
    outer loop
      vertex -14.6167 -6.50779 40
      vertex -12.9443 -9.40456 70
      vertex -12.9443 -9.40456 40
    endloop
  endfacet
  facet normal 0.74314 0.669136 0
    outer loop
      vertex -10.7061 -11.8903 70
      vertex -12.9443 -9.40456 40
      vertex -12.9443 -9.40456 70
    endloop
  endfacet
  facet normal 0.74314 0.669136 0
    outer loop
      vertex -12.9443 -9.40456 40
      vertex -10.7061 -11.8903 70
      vertex -10.7061 -11.8903 40
    endloop
  endfacet
  facet normal -0.951051 0.309035 0
    outer loop
      vertex 14.6167 -6.50779 40
      vertex 15.6504 -3.32659 70
      vertex 15.6504 -3.32659 40
    endloop
  endfacet
  facet normal -0.951051 0.309035 0
    outer loop
      vertex 15.6504 -3.32659 70
      vertex 14.6167 -6.50779 40
      vertex 14.6167 -6.50779 70
    endloop
  endfacet
  facet normal -0.207898 0.97815 0
    outer loop
      vertex 4.94427 -15.2169 40
      vertex 1.67245 -15.9123 60
      vertex 4.94427 -15.2169 60
    endloop
  endfacet
  facet normal -0.207898 0.97815 0
    outer loop
      vertex 1.67245 -15.9123 60
      vertex 4.94427 -15.2169 40
      vertex 1.67245 -15.9123 40
    endloop
  endfacet
  facet normal 0.994523 0.104517 0
    outer loop
      vertex -15.6504 -3.32659 70
      vertex -16 0 40
      vertex -16 0 70
    endloop
  endfacet
  facet normal 0.994523 0.104517 0
    outer loop
      vertex -16 0 40
      vertex -15.6504 -3.32659 70
      vertex -15.6504 -3.32659 40
    endloop
  endfacet
  facet normal 0.587784 0.809018 0
    outer loop
      vertex -8 -13.8564 60
      vertex -8 -13.8564 40
      vertex -9.86693 -12.5 60
    endloop
  endfacet
  facet normal 0.58779 0.809014 -0
    outer loop
      vertex -9.86693 -12.5 60
      vertex -10.7061 -11.8903 70
      vertex -9.86693 -12.5 70
    endloop
  endfacet
  facet normal 0.58779 0.809014 0
    outer loop
      vertex -9.86693 -12.5 60
      vertex -10.7061 -11.8903 40
      vertex -10.7061 -11.8903 70
    endloop
  endfacet
  facet normal 0.587786 0.809017 2.5461e-07
    outer loop
      vertex -10.7061 -11.8903 40
      vertex -9.86693 -12.5 60
      vertex -8 -13.8564 40
    endloop
  endfacet
  facet normal 0.866032 -0.499989 0
    outer loop
      vertex -14.6167 6.50779 70
      vertex -12.9443 9.40456 40
      vertex -12.9443 9.40456 70
    endloop
  endfacet
  facet normal 0.866032 -0.499989 0
    outer loop
      vertex -12.9443 9.40456 40
      vertex -14.6167 6.50779 70
      vertex -14.6167 6.50779 40
    endloop
  endfacet
  facet normal -0 0 1
    outer loop
      vertex 9.86693 -12.5 60
      vertex 12.0444 -13.3766 60
      vertex 12.8337 -12.5 60
    endloop
  endfacet
  facet normal 0 0 1
    outer loop
      vertex 9.86693 -12.5 60
      vertex 9 -15.5885 60
      vertex 12.0444 -13.3766 60
    endloop
  endfacet
  facet normal -0 0 1
    outer loop
      vertex 8 -13.8564 60
      vertex 9 -15.5885 60
      vertex 9.86693 -12.5 60
    endloop
  endfacet
  facet normal 0 0 1
    outer loop
      vertex 8 -13.8564 60
      vertex 5.56231 -17.119 60
      vertex 9 -15.5885 60
    endloop
  endfacet
  facet normal -0 0 1
    outer loop
      vertex 4.94427 -15.2169 60
      vertex 5.56231 -17.119 60
      vertex 8 -13.8564 60
    endloop
  endfacet
  facet normal 0 0 1
    outer loop
      vertex 4.94427 -15.2169 60
      vertex 1.88151 -17.9014 60
      vertex 5.56231 -17.119 60
    endloop
  endfacet
  facet normal -0 0 1
    outer loop
      vertex 1.67245 -15.9123 60
      vertex 1.88151 -17.9014 60
      vertex 4.94427 -15.2169 60
    endloop
  endfacet
  facet normal -0 0 1
    outer loop
      vertex -1.67245 -15.9123 60
      vertex 1.88151 -17.9014 60
      vertex 1.67245 -15.9123 60
    endloop
  endfacet
  facet normal 0 0 1
    outer loop
      vertex -1.67245 -15.9123 60
      vertex -1.88151 -17.9014 60
      vertex 1.88151 -17.9014 60
    endloop
  endfacet
  facet normal 0 0 1
    outer loop
      vertex -4.94427 -15.2169 60
      vertex -1.88151 -17.9014 60
      vertex -1.67245 -15.9123 60
    endloop
  endfacet
  facet normal 0 0 1
    outer loop
      vertex -4.94427 -15.2169 60
      vertex -5.56231 -17.119 60
      vertex -1.88151 -17.9014 60
    endloop
  endfacet
  facet normal 0 0 1
    outer loop
      vertex -8 -13.8564 60
      vertex -5.56231 -17.119 60
      vertex -4.94427 -15.2169 60
    endloop
  endfacet
  facet normal 0 0 1
    outer loop
      vertex -8 -13.8564 60
      vertex -9 -15.5885 60
      vertex -5.56231 -17.119 60
    endloop
  endfacet
  facet normal 0 0 1
    outer loop
      vertex -9.86693 -12.5 60
      vertex -9 -15.5885 60
      vertex -8 -13.8564 60
    endloop
  endfacet
  facet normal 0 0 1
    outer loop
      vertex -9.86693 -12.5 60
      vertex -12.0444 -13.3766 60
      vertex -9 -15.5885 60
    endloop
  endfacet
  facet normal 0 -0 1
    outer loop
      vertex -12.0444 -13.3766 60
      vertex -9.86693 -12.5 60
      vertex -12.8337 -12.5 60
    endloop
  endfacet
  facet normal 0 -1 0
    outer loop
      vertex -12.8337 -12.5 60
      vertex -9.86693 -12.5 70
      vertex -12.8337 -12.5 70
    endloop
  endfacet
  facet normal 0 -1 -0
    outer loop
      vertex -9.86693 -12.5 70
      vertex -12.8337 -12.5 60
      vertex -9.86693 -12.5 60
    endloop
  endfacet
  facet normal 0 -1 0
    outer loop
      vertex 9.86693 -12.5 60
      vertex 12.8337 -12.5 70
      vertex 9.86693 -12.5 70
    endloop
  endfacet
  facet normal 0 -1 -0
    outer loop
      vertex 12.8337 -12.5 70
      vertex 9.86693 -12.5 60
      vertex 12.8337 -12.5 60
    endloop
  endfacet
  facet normal 0 0 -1
    outer loop
      vertex 16 0 40
      vertex 18 0 40
      vertex 17.6067 -3.74241 40
    endloop
  endfacet
  facet normal 0 0 -1
    outer loop
      vertex 15.6504 -3.32659 40
      vertex 17.6067 -3.74241 40
      vertex 16.4438 -7.32126 40
    endloop
  endfacet
  facet normal 0 0 -1
    outer loop
      vertex 18 0 40
      vertex 16 0 40
      vertex 17.6067 3.74241 40
    endloop
  endfacet
  facet normal 0 0 -1
    outer loop
      vertex 15.6504 3.32659 40
      vertex 17.6067 3.74241 40
      vertex 16 0 40
    endloop
  endfacet
  facet normal 0 0 -1
    outer loop
      vertex 17.6067 -3.74241 40
      vertex 15.6504 -3.32659 40
      vertex 16 0 40
    endloop
  endfacet
  facet normal 0 0 -1
    outer loop
      vertex 16.4438 -7.32126 40
      vertex 14.6167 -6.50779 40
      vertex 15.6504 -3.32659 40
    endloop
  endfacet
  facet normal 0 0 -1
    outer loop
      vertex 14.5623 -10.5801 40
      vertex 14.6167 -6.50779 40
      vertex 16.4438 -7.32126 40
    endloop
  endfacet
  facet normal 0 0 -1
    outer loop
      vertex 14.5623 -10.5801 40
      vertex 12.9443 -9.40456 40
      vertex 14.6167 -6.50779 40
    endloop
  endfacet
  facet normal 0 0 -1
    outer loop
      vertex 12.0444 -13.3766 40
      vertex 12.9443 -9.40456 40
      vertex 14.5623 -10.5801 40
    endloop
  endfacet
  facet normal 0 0 -1
    outer loop
      vertex 12.0444 -13.3766 40
      vertex 10.7061 -11.8903 40
      vertex 12.9443 -9.40456 40
    endloop
  endfacet
  facet normal 0 0 -1
    outer loop
      vertex 9 -15.5885 40
      vertex 10.7061 -11.8903 40
      vertex 12.0444 -13.3766 40
    endloop
  endfacet
  facet normal 0 0 -1
    outer loop
      vertex 9 -15.5885 40
      vertex 8 -13.8564 40
      vertex 10.7061 -11.8903 40
    endloop
  endfacet
  facet normal 0 0 -1
    outer loop
      vertex 5.56231 -17.119 40
      vertex 8 -13.8564 40
      vertex 9 -15.5885 40
    endloop
  endfacet
  facet normal 0 0 -1
    outer loop
      vertex 5.56231 -17.119 40
      vertex 4.94427 -15.2169 40
      vertex 8 -13.8564 40
    endloop
  endfacet
  facet normal 0 0 -1
    outer loop
      vertex 1.88151 -17.9014 40
      vertex 4.94427 -15.2169 40
      vertex 5.56231 -17.119 40
    endloop
  endfacet
  facet normal 0 0 -1
    outer loop
      vertex 1.88151 -17.9014 40
      vertex 1.67245 -15.9123 40
      vertex 4.94427 -15.2169 40
    endloop
  endfacet
  facet normal 0 0 -1
    outer loop
      vertex 1.88151 -17.9014 40
      vertex -1.67245 -15.9123 40
      vertex 1.67245 -15.9123 40
    endloop
  endfacet
  facet normal 0 0 -1
    outer loop
      vertex -1.88151 -17.9014 40
      vertex -1.67245 -15.9123 40
      vertex 1.88151 -17.9014 40
    endloop
  endfacet
  facet normal 0 0 -1
    outer loop
      vertex -1.88151 -17.9014 40
      vertex -4.94427 -15.2169 40
      vertex -1.67245 -15.9123 40
    endloop
  endfacet
  facet normal 0 0 -1
    outer loop
      vertex -5.56231 -17.119 40
      vertex -4.94427 -15.2169 40
      vertex -1.88151 -17.9014 40
    endloop
  endfacet
  facet normal 0 0 -1
    outer loop
      vertex -5.56231 -17.119 40
      vertex -8 -13.8564 40
      vertex -4.94427 -15.2169 40
    endloop
  endfacet
  facet normal 0 0 -1
    outer loop
      vertex -9 -15.5885 40
      vertex -8 -13.8564 40
      vertex -5.56231 -17.119 40
    endloop
  endfacet
  facet normal 0 0 -1
    outer loop
      vertex -9 -15.5885 40
      vertex -10.7061 -11.8903 40
      vertex -8 -13.8564 40
    endloop
  endfacet
  facet normal 0 0 -1
    outer loop
      vertex -12.0444 -13.3766 40
      vertex -10.7061 -11.8903 40
      vertex -9 -15.5885 40
    endloop
  endfacet
  facet normal 0 0 -1
    outer loop
      vertex -12.0444 -13.3766 40
      vertex -12.9443 -9.40456 40
      vertex -10.7061 -11.8903 40
    endloop
  endfacet
  facet normal 0 0 -1
    outer loop
      vertex -14.5623 -10.5801 40
      vertex -12.9443 -9.40456 40
      vertex -12.0444 -13.3766 40
    endloop
  endfacet
  facet normal 0 0 -1
    outer loop
      vertex -14.5623 -10.5801 40
      vertex -14.6167 -6.50779 40
      vertex -12.9443 -9.40456 40
    endloop
  endfacet
  facet normal 0 0 -1
    outer loop
      vertex -16.4438 -7.32126 40
      vertex -14.6167 -6.50779 40
      vertex -14.5623 -10.5801 40
    endloop
  endfacet
  facet normal 0 0 -1
    outer loop
      vertex -17.6067 -3.74241 40
      vertex -15.6504 -3.32659 40
      vertex -16.4438 -7.32126 40
    endloop
  endfacet
  facet normal -0 0 -1
    outer loop
      vertex -14.6167 -6.50779 40
      vertex -16.4438 -7.32126 40
      vertex -15.6504 -3.32659 40
    endloop
  endfacet
  facet normal -0 0 -1
    outer loop
      vertex 17.6067 3.74241 40
      vertex 15.6504 3.32659 40
      vertex 16.4438 7.32126 40
    endloop
  endfacet
  facet normal 0 0 -1
    outer loop
      vertex 14.6167 6.50779 40
      vertex 16.4438 7.32126 40
      vertex 15.6504 3.32659 40
    endloop
  endfacet
  facet normal 0 0 -1
    outer loop
      vertex 14.6167 6.50779 40
      vertex 14.5623 10.5801 40
      vertex 16.4438 7.32126 40
    endloop
  endfacet
  facet normal 0 0 -1
    outer loop
      vertex 12.9443 9.40456 40
      vertex 14.5623 10.5801 40
      vertex 14.6167 6.50779 40
    endloop
  endfacet
  facet normal 0 0 -1
    outer loop
      vertex 12.9443 9.40456 40
      vertex 12.0444 13.3766 40
      vertex 14.5623 10.5801 40
    endloop
  endfacet
  facet normal 0 0 -1
    outer loop
      vertex 10.7061 11.8903 40
      vertex 12.0444 13.3766 40
      vertex 12.9443 9.40456 40
    endloop
  endfacet
  facet normal 0 0 -1
    outer loop
      vertex 10.7061 11.8903 40
      vertex 9 15.5885 40
      vertex 12.0444 13.3766 40
    endloop
  endfacet
  facet normal 0 0 -1
    outer loop
      vertex 8 13.8564 40
      vertex 9 15.5885 40
      vertex 10.7061 11.8903 40
    endloop
  endfacet
  facet normal 0 0 -1
    outer loop
      vertex 8 13.8564 40
      vertex 5.56231 17.119 40
      vertex 9 15.5885 40
    endloop
  endfacet
  facet normal 0 0 -1
    outer loop
      vertex 4.94427 15.2169 40
      vertex 5.56231 17.119 40
      vertex 8 13.8564 40
    endloop
  endfacet
  facet normal 0 0 -1
    outer loop
      vertex 4.94427 15.2169 40
      vertex 1.88151 17.9014 40
      vertex 5.56231 17.119 40
    endloop
  endfacet
  facet normal 0 0 -1
    outer loop
      vertex 1.67245 15.9123 40
      vertex 1.88151 17.9014 40
      vertex 4.94427 15.2169 40
    endloop
  endfacet
  facet normal 0 0 -1
    outer loop
      vertex -1.67245 15.9123 40
      vertex 1.88151 17.9014 40
      vertex 1.67245 15.9123 40
    endloop
  endfacet
  facet normal 0 0 -1
    outer loop
      vertex -1.67245 15.9123 40
      vertex -1.88151 17.9014 40
      vertex 1.88151 17.9014 40
    endloop
  endfacet
  facet normal 0 0 -1
    outer loop
      vertex -4.94427 15.2169 40
      vertex -1.88151 17.9014 40
      vertex -1.67245 15.9123 40
    endloop
  endfacet
  facet normal 0 0 -1
    outer loop
      vertex -4.94427 15.2169 40
      vertex -5.56231 17.119 40
      vertex -1.88151 17.9014 40
    endloop
  endfacet
  facet normal 0 0 -1
    outer loop
      vertex -8 13.8564 40
      vertex -5.56231 17.119 40
      vertex -4.94427 15.2169 40
    endloop
  endfacet
  facet normal 0 0 -1
    outer loop
      vertex -8 13.8564 40
      vertex -9 15.5885 40
      vertex -5.56231 17.119 40
    endloop
  endfacet
  facet normal 0 0 -1
    outer loop
      vertex -10.7061 11.8903 40
      vertex -9 15.5885 40
      vertex -8 13.8564 40
    endloop
  endfacet
  facet normal 0 0 -1
    outer loop
      vertex -10.7061 11.8903 40
      vertex -12.0444 13.3766 40
      vertex -9 15.5885 40
    endloop
  endfacet
  facet normal 0 0 -1
    outer loop
      vertex -12.9443 9.40456 40
      vertex -12.0444 13.3766 40
      vertex -10.7061 11.8903 40
    endloop
  endfacet
  facet normal 0 0 -1
    outer loop
      vertex -12.9443 9.40456 40
      vertex -14.5623 10.5801 40
      vertex -12.0444 13.3766 40
    endloop
  endfacet
  facet normal 0 0 -1
    outer loop
      vertex -14.6167 6.50779 40
      vertex -14.5623 10.5801 40
      vertex -12.9443 9.40456 40
    endloop
  endfacet
  facet normal 0 0 -1
    outer loop
      vertex -16.4438 7.32126 40
      vertex -14.6167 6.50779 40
      vertex -15.6504 3.32659 40
    endloop
  endfacet
  facet normal 0 0 -1
    outer loop
      vertex -14.6167 6.50779 40
      vertex -16.4438 7.32126 40
      vertex -14.5623 10.5801 40
    endloop
  endfacet
  facet normal 0 0 -1
    outer loop
      vertex -17.6067 3.74241 40
      vertex -15.6504 3.32659 40
      vertex -16 0 40
    endloop
  endfacet
  facet normal -0 0 -1
    outer loop
      vertex -15.6504 -3.32659 40
      vertex -17.6067 -3.74241 40
      vertex -16 0 40
    endloop
  endfacet
  facet normal 0 0 -1
    outer loop
      vertex -18 0 40
      vertex -16 0 40
      vertex -17.6067 -3.74241 40
    endloop
  endfacet
  facet normal 0 0 -1
    outer loop
      vertex -15.6504 3.32659 40
      vertex -17.6067 3.74241 40
      vertex -16.4438 7.32126 40
    endloop
  endfacet
  facet normal 0 0 -1
    outer loop
      vertex -16 0 40
      vertex -18 0 40
      vertex -17.6067 3.74241 40
    endloop
  endfacet
  facet normal 0 0 1
    outer loop
      vertex 16 0 70
      vertex 18 0 70
      vertex 17.6067 3.74241 70
    endloop
  endfacet
  facet normal 0 0 1
    outer loop
      vertex 15.6504 3.32659 70
      vertex 17.6067 3.74241 70
      vertex 16.4438 7.32126 70
    endloop
  endfacet
  facet normal 0 0 1
    outer loop
      vertex 18 0 70
      vertex 16 0 70
      vertex 17.6067 -3.74241 70
    endloop
  endfacet
  facet normal -0 0 1
    outer loop
      vertex 15.6504 -3.32659 70
      vertex 17.6067 -3.74241 70
      vertex 16 0 70
    endloop
  endfacet
  facet normal 0 0 1
    outer loop
      vertex 17.6067 3.74241 70
      vertex 15.6504 3.32659 70
      vertex 16 0 70
    endloop
  endfacet
  facet normal 0 0 1
    outer loop
      vertex 16.4438 7.32126 70
      vertex 14.6167 6.50779 70
      vertex 15.6504 3.32659 70
    endloop
  endfacet
  facet normal 0 0 1
    outer loop
      vertex 14.5623 10.5801 70
      vertex 14.6167 6.50779 70
      vertex 16.4438 7.32126 70
    endloop
  endfacet
  facet normal 0 0 1
    outer loop
      vertex 14.5623 10.5801 70
      vertex 12.9443 9.40456 70
      vertex 14.6167 6.50779 70
    endloop
  endfacet
  facet normal 0 0 1
    outer loop
      vertex 12.0444 13.3766 70
      vertex 12.9443 9.40456 70
      vertex 14.5623 10.5801 70
    endloop
  endfacet
  facet normal 0 0 1
    outer loop
      vertex 12.0444 13.3766 70
      vertex 10.7061 11.8903 70
      vertex 12.9443 9.40456 70
    endloop
  endfacet
  facet normal 0 0 1
    outer loop
      vertex 9 15.5885 70
      vertex 10.7061 11.8903 70
      vertex 12.0444 13.3766 70
    endloop
  endfacet
  facet normal 0 0 1
    outer loop
      vertex 9 15.5885 70
      vertex 8 13.8564 70
      vertex 10.7061 11.8903 70
    endloop
  endfacet
  facet normal 0 0 1
    outer loop
      vertex 5.56231 17.119 70
      vertex 8 13.8564 70
      vertex 9 15.5885 70
    endloop
  endfacet
  facet normal 0 0 1
    outer loop
      vertex 5.56231 17.119 70
      vertex 4.94427 15.2169 70
      vertex 8 13.8564 70
    endloop
  endfacet
  facet normal 0 0 1
    outer loop
      vertex 1.88151 17.9014 70
      vertex 4.94427 15.2169 70
      vertex 5.56231 17.119 70
    endloop
  endfacet
  facet normal 0 0 1
    outer loop
      vertex 1.88151 17.9014 70
      vertex 1.67245 15.9123 70
      vertex 4.94427 15.2169 70
    endloop
  endfacet
  facet normal 0 0 1
    outer loop
      vertex 1.88151 17.9014 70
      vertex -1.67245 15.9123 70
      vertex 1.67245 15.9123 70
    endloop
  endfacet
  facet normal -0 0 1
    outer loop
      vertex -1.88151 17.9014 70
      vertex -1.67245 15.9123 70
      vertex 1.88151 17.9014 70
    endloop
  endfacet
  facet normal 0 0 1
    outer loop
      vertex -1.88151 17.9014 70
      vertex -4.94427 15.2169 70
      vertex -1.67245 15.9123 70
    endloop
  endfacet
  facet normal -0 0 1
    outer loop
      vertex -5.56231 17.119 70
      vertex -4.94427 15.2169 70
      vertex -1.88151 17.9014 70
    endloop
  endfacet
  facet normal 0 0 1
    outer loop
      vertex -5.56231 17.119 70
      vertex -8 13.8564 70
      vertex -4.94427 15.2169 70
    endloop
  endfacet
  facet normal -0 0 1
    outer loop
      vertex -9 15.5885 70
      vertex -8 13.8564 70
      vertex -5.56231 17.119 70
    endloop
  endfacet
  facet normal 0 0 1
    outer loop
      vertex -9 15.5885 70
      vertex -10.7061 11.8903 70
      vertex -8 13.8564 70
    endloop
  endfacet
  facet normal -0 0 1
    outer loop
      vertex -12.0444 13.3766 70
      vertex -10.7061 11.8903 70
      vertex -9 15.5885 70
    endloop
  endfacet
  facet normal 0 0 1
    outer loop
      vertex -12.0444 13.3766 70
      vertex -12.9443 9.40456 70
      vertex -10.7061 11.8903 70
    endloop
  endfacet
  facet normal -0 0 1
    outer loop
      vertex -14.5623 10.5801 70
      vertex -12.9443 9.40456 70
      vertex -12.0444 13.3766 70
    endloop
  endfacet
  facet normal 0 0 1
    outer loop
      vertex -14.5623 10.5801 70
      vertex -14.6167 6.50779 70
      vertex -12.9443 9.40456 70
    endloop
  endfacet
  facet normal -0 0 1
    outer loop
      vertex -16.4438 7.32126 70
      vertex -14.6167 6.50779 70
      vertex -14.5623 10.5801 70
    endloop
  endfacet
  facet normal -0 0 1
    outer loop
      vertex -17.6067 3.74241 70
      vertex -15.6504 3.32659 70
      vertex -16.4438 7.32126 70
    endloop
  endfacet
  facet normal 0 0 1
    outer loop
      vertex -14.6167 6.50779 70
      vertex -16.4438 7.32126 70
      vertex -15.6504 3.32659 70
    endloop
  endfacet
  facet normal 0 0 1
    outer loop
      vertex 17.6067 -3.74241 70
      vertex 15.6504 -3.32659 70
      vertex 16.4438 -7.32126 70
    endloop
  endfacet
  facet normal -0 0 1
    outer loop
      vertex 14.6167 -6.50779 70
      vertex 16.4438 -7.32126 70
      vertex 15.6504 -3.32659 70
    endloop
  endfacet
  facet normal 0 0 1
    outer loop
      vertex 14.6167 -6.50779 70
      vertex 14.5623 -10.5801 70
      vertex 16.4438 -7.32126 70
    endloop
  endfacet
  facet normal -0 0 1
    outer loop
      vertex 12.9443 -9.40456 70
      vertex 14.5623 -10.5801 70
      vertex 14.6167 -6.50779 70
    endloop
  endfacet
  facet normal 0 0 1
    outer loop
      vertex 12.9443 -9.40456 70
      vertex 12.8337 -12.5 70
      vertex 14.5623 -10.5801 70
    endloop
  endfacet
  facet normal -0 0 1
    outer loop
      vertex 10.7061 -11.8903 70
      vertex 12.8337 -12.5 70
      vertex 12.9443 -9.40456 70
    endloop
  endfacet
  facet normal 0 0 1
    outer loop
      vertex 12.8337 -12.5 70
      vertex 10.7061 -11.8903 70
      vertex 9.86693 -12.5 70
    endloop
  endfacet
  facet normal 0 0 1
    outer loop
      vertex -10.7061 -11.8903 70
      vertex -12.8337 -12.5 70
      vertex -9.86693 -12.5 70
    endloop
  endfacet
  facet normal 0 0 1
    outer loop
      vertex -12.9443 -9.40456 70
      vertex -12.8337 -12.5 70
      vertex -10.7061 -11.8903 70
    endloop
  endfacet
  facet normal 0 0 1
    outer loop
      vertex -12.9443 -9.40456 70
      vertex -14.5623 -10.5801 70
      vertex -12.8337 -12.5 70
    endloop
  endfacet
  facet normal 0 0 1
    outer loop
      vertex -14.6167 -6.50779 70
      vertex -14.5623 -10.5801 70
      vertex -12.9443 -9.40456 70
    endloop
  endfacet
  facet normal 0 0 1
    outer loop
      vertex -16.4438 -7.32126 70
      vertex -14.6167 -6.50779 70
      vertex -15.6504 -3.32659 70
    endloop
  endfacet
  facet normal 0 0 1
    outer loop
      vertex -14.6167 -6.50779 70
      vertex -16.4438 -7.32126 70
      vertex -14.5623 -10.5801 70
    endloop
  endfacet
  facet normal 0 0 1
    outer loop
      vertex -17.6067 -3.74241 70
      vertex -15.6504 -3.32659 70
      vertex -16 0 70
    endloop
  endfacet
  facet normal 0 0 1
    outer loop
      vertex -15.6504 3.32659 70
      vertex -17.6067 3.74241 70
      vertex -16 0 70
    endloop
  endfacet
  facet normal 0 0 1
    outer loop
      vertex -18 0 70
      vertex -16 0 70
      vertex -17.6067 3.74241 70
    endloop
  endfacet
  facet normal 0 0 1
    outer loop
      vertex -15.6504 -3.32659 70
      vertex -17.6067 -3.74241 70
      vertex -16.4438 -7.32126 70
    endloop
  endfacet
  facet normal 0 0 1
    outer loop
      vertex -16 0 70
      vertex -18 0 70
      vertex -17.6067 -3.74241 70
    endloop
  endfacet
endsolid OpenSCAD_Model
