solid OpenSCAD_Model
  facet normal 0.95106 0.309008 0
    outer loop
      vertex 21.5192 4.57406 62
      vertex 20.098 8.94821 24.5
      vertex 20.098 8.94821 62
    endloop
  endfacet
  facet normal 0.95106 0.309008 0
    outer loop
      vertex 20.098 8.94821 24.5
      vertex 21.5192 4.57406 62
      vertex 21.5192 4.57406 24.5
    endloop
  endfacet
  facet normal 0.994521 0.104539 0
    outer loop
      vertex 22 0 62
      vertex 21.5192 4.57406 24.5
      vertex 21.5192 4.57406 62
    endloop
  endfacet
  facet normal 0.994521 0.104539 0
    outer loop
      vertex 21.5192 4.57406 24.5
      vertex 22 0 62
      vertex 22 0 24.5
    endloop
  endfacet
  facet normal 0.994521 -0.104539 0
    outer loop
      vertex 21.5192 -4.57406 62
      vertex 22 0 24.5
      vertex 22 0 62
    endloop
  endfacet
  facet normal 0.994521 -0.104539 0
    outer loop
      vertex 22 0 24.5
      vertex 21.5192 -4.57406 62
      vertex 21.5192 -4.57406 24.5
    endloop
  endfacet
  facet normal 0.406721 0.913552 -0
    outer loop
      vertex 11 19.0526 24.5
      vertex 6.79837 20.9232 62
      vertex 11 19.0526 62
    endloop
  endfacet
  facet normal 0.406721 0.913552 0
    outer loop
      vertex 6.79837 20.9232 62
      vertex 11 19.0526 24.5
      vertex 6.79837 20.9232 24.5
    endloop
  endfacet
  facet normal 0.406721 -0.913552 0
    outer loop
      vertex 6.79837 -20.9232 60
      vertex 11 -19.0526 62
      vertex 6.79837 -20.9232 62
    endloop
  endfacet
  facet normal 0.406721 -0.913552 0
    outer loop
      vertex 11 -19.0526 62
      vertex 6.79837 -20.9232 60
      vertex 11 -19.0526 60
    endloop
  endfacet
  facet normal 0.406721 -0.913552 0
    outer loop
      vertex 6.79837 -20.9232 24.5
      vertex 11 -19.0526 40
      vertex 6.79837 -20.9232 40
    endloop
  endfacet
  facet normal 0.406721 -0.913552 0
    outer loop
      vertex 11 -19.0526 40
      vertex 6.79837 -20.9232 24.5
      vertex 11 -19.0526 24.5
    endloop
  endfacet
  facet normal -0.587786 0.809016 0
    outer loop
      vertex -11 19.0526 24.5
      vertex -14.7209 16.3492 62
      vertex -11 19.0526 62
    endloop
  endfacet
  facet normal -0.587786 0.809016 0
    outer loop
      vertex -14.7209 16.3492 62
      vertex -11 19.0526 24.5
      vertex -14.7209 16.3492 24.5
    endloop
  endfacet
  facet normal -0.207925 0.978145 0
    outer loop
      vertex -2.29963 21.8795 24.5
      vertex -6.79837 20.9232 62
      vertex -2.29963 21.8795 62
    endloop
  endfacet
  facet normal -0.207925 0.978145 0
    outer loop
      vertex -6.79837 20.9232 62
      vertex -2.29963 21.8795 24.5
      vertex -6.79837 20.9232 24.5
    endloop
  endfacet
  facet normal -0.743155 0.669119 0
    outer loop
      vertex -15.4855 15.5 48
      vertex -14.7209 16.3492 24.5
      vertex -15.4855 15.5 24.5
    endloop
  endfacet
  facet normal -0.743155 0.669119 0
    outer loop
      vertex -14.7209 16.3492 24.5
      vertex -15.4855 15.5 48
      vertex -14.7209 16.3492 62
    endloop
  endfacet
  facet normal -0.74314 0.669136 0
    outer loop
      vertex -17.7984 12.9313 62
      vertex -15.4855 15.5 48
      vertex -17.7984 12.9313 48
    endloop
  endfacet
  facet normal -0.743144 0.669132 -1.34587e-06
    outer loop
      vertex -15.4855 15.5 48
      vertex -17.7984 12.9313 62
      vertex -14.7209 16.3492 62
    endloop
  endfacet
  facet normal -0.406721 -0.913552 0
    outer loop
      vertex -11 -19.0526 60
      vertex -6.79837 -20.9232 62
      vertex -11 -19.0526 62
    endloop
  endfacet
  facet normal -0.406721 -0.913552 -0
    outer loop
      vertex -6.79837 -20.9232 62
      vertex -11 -19.0526 60
      vertex -6.79837 -20.9232 60
    endloop
  endfacet
  facet normal -0.406721 -0.913552 0
    outer loop
      vertex -11 -19.0526 24.5
      vertex -6.79837 -20.9232 40
      vertex -11 -19.0526 40
    endloop
  endfacet
  facet normal -0.406721 -0.913552 -0
    outer loop
      vertex -6.79837 -20.9232 40
      vertex -11 -19.0526 24.5
      vertex -6.79837 -20.9232 24.5
    endloop
  endfacet
  facet normal -0.207925 -0.978145 0
    outer loop
      vertex -6.79837 -20.9232 60
      vertex -2.29963 -21.8795 62
      vertex -6.79837 -20.9232 62
    endloop
  endfacet
  facet normal -0.207925 -0.978145 -0
    outer loop
      vertex -2.29963 -21.8795 62
      vertex -6.79837 -20.9232 60
      vertex -2.29963 -21.8795 60
    endloop
  endfacet
  facet normal -0.207925 -0.978145 0
    outer loop
      vertex -6.79837 -20.9232 24.5
      vertex -2.29963 -21.8795 40
      vertex -6.79837 -20.9232 40
    endloop
  endfacet
  facet normal -0.207925 -0.978145 -0
    outer loop
      vertex -2.29963 -21.8795 40
      vertex -6.79837 -20.9232 24.5
      vertex -2.29963 -21.8795 24.5
    endloop
  endfacet
  facet normal -0.951073 0.308965 0
    outer loop
      vertex -21.2184 5.5 48
      vertex -21.5192 4.57406 48
      vertex -21.2184 5.5 48.5
    endloop
  endfacet
  facet normal -0.951056 0.309019 0
    outer loop
      vertex -21.2184 5.5 48.5
      vertex -20.098 8.94821 62
      vertex -20.098 8.94821 48.5
    endloop
  endfacet
  facet normal -0.951073 0.308965 0
    outer loop
      vertex -21.5192 4.57406 62
      vertex -21.2184 5.5 48.5
      vertex -21.5192 4.57406 48
    endloop
  endfacet
  facet normal -0.95106 0.309008 3.24704e-06
    outer loop
      vertex -21.2184 5.5 48.5
      vertex -21.5192 4.57406 62
      vertex -20.098 8.94821 62
    endloop
  endfacet
  facet normal 0.743141 -0.669135 0
    outer loop
      vertex 15 -16.0392 40
      vertex 17.7984 -12.9313 62
      vertex 15 -16.0392 60
    endloop
  endfacet
  facet normal 0.743144 -0.669132 -9.68746e-06
    outer loop
      vertex 14.7209 -16.3492 62
      vertex 15 -16.0392 60
      vertex 17.7984 -12.9313 62
    endloop
  endfacet
  facet normal 0.743175 -0.669097 0
    outer loop
      vertex 15 -16.0392 60
      vertex 14.7209 -16.3492 62
      vertex 14.7209 -16.3492 60
    endloop
  endfacet
  facet normal 0.743141 -0.669135 0
    outer loop
      vertex 17.7984 -12.9313 62
      vertex 15 -16.0392 40
      vertex 17.7984 -12.9313 24.5
    endloop
  endfacet
  facet normal 0.743175 -0.669097 0
    outer loop
      vertex 14.7209 -16.3492 24.5
      vertex 15 -16.0392 40
      vertex 14.7209 -16.3492 40
    endloop
  endfacet
  facet normal 0.743144 -0.669132 1.25e-06
    outer loop
      vertex 15 -16.0392 40
      vertex 14.7209 -16.3492 24.5
      vertex 17.7984 -12.9313 24.5
    endloop
  endfacet
  facet normal 0.866029 -0.499994 0
    outer loop
      vertex 17.7984 -12.9313 62
      vertex 20.098 -8.94821 24.5
      vertex 20.098 -8.94821 62
    endloop
  endfacet
  facet normal 0.866029 -0.499994 0
    outer loop
      vertex 20.098 -8.94821 24.5
      vertex 17.7984 -12.9313 62
      vertex 17.7984 -12.9313 24.5
    endloop
  endfacet
  facet normal 0.587786 -0.809016 0
    outer loop
      vertex 11 -19.0526 60
      vertex 14.7209 -16.3492 62
      vertex 11 -19.0526 62
    endloop
  endfacet
  facet normal 0.587786 -0.809016 0
    outer loop
      vertex 14.7209 -16.3492 62
      vertex 11 -19.0526 60
      vertex 14.7209 -16.3492 60
    endloop
  endfacet
  facet normal 0.587786 -0.809016 0
    outer loop
      vertex 11 -19.0526 24.5
      vertex 14.7209 -16.3492 40
      vertex 11 -19.0526 40
    endloop
  endfacet
  facet normal 0.587786 -0.809016 0
    outer loop
      vertex 14.7209 -16.3492 40
      vertex 11 -19.0526 24.5
      vertex 14.7209 -16.3492 24.5
    endloop
  endfacet
  facet normal 0.95106 -0.309008 0
    outer loop
      vertex 20.098 -8.94821 62
      vertex 21.5192 -4.57406 24.5
      vertex 21.5192 -4.57406 62
    endloop
  endfacet
  facet normal 0.95106 -0.309008 0
    outer loop
      vertex 21.5192 -4.57406 24.5
      vertex 20.098 -8.94821 62
      vertex 20.098 -8.94821 24.5
    endloop
  endfacet
  facet normal 0.587786 0.809016 -0
    outer loop
      vertex 14.7209 16.3492 24.5
      vertex 11 19.0526 62
      vertex 14.7209 16.3492 62
    endloop
  endfacet
  facet normal 0.587786 0.809016 0
    outer loop
      vertex 11 19.0526 62
      vertex 14.7209 16.3492 24.5
      vertex 11 19.0526 24.5
    endloop
  endfacet
  facet normal -0.406721 0.913552 0
    outer loop
      vertex -6.79837 20.9232 24.5
      vertex -11 19.0526 62
      vertex -6.79837 20.9232 62
    endloop
  endfacet
  facet normal -0.406721 0.913552 0
    outer loop
      vertex -11 19.0526 62
      vertex -6.79837 20.9232 24.5
      vertex -11 19.0526 24.5
    endloop
  endfacet
  facet normal 0.743144 0.669132 0
    outer loop
      vertex 17.7984 12.9313 62
      vertex 14.7209 16.3492 24.5
      vertex 14.7209 16.3492 62
    endloop
  endfacet
  facet normal 0.743144 0.669132 0
    outer loop
      vertex 14.7209 16.3492 24.5
      vertex 17.7984 12.9313 62
      vertex 17.7984 12.9313 24.5
    endloop
  endfacet
  facet normal -0.994521 0.104539 0
    outer loop
      vertex -22 0 48
      vertex -21.5192 4.57406 62
      vertex -21.5192 4.57406 48
    endloop
  endfacet
  facet normal -0.994521 0.104539 0
    outer loop
      vertex -21.5192 4.57406 62
      vertex -22 0 48
      vertex -22 0 62
    endloop
  endfacet
  facet normal 0.866029 0.499994 0
    outer loop
      vertex 20.098 8.94821 62
      vertex 17.7984 12.9313 24.5
      vertex 17.7984 12.9313 62
    endloop
  endfacet
  facet normal 0.866029 0.499994 0
    outer loop
      vertex 17.7984 12.9313 24.5
      vertex 20.098 8.94821 62
      vertex 20.098 8.94821 24.5
    endloop
  endfacet
  facet normal -0.95106 -0.309008 0
    outer loop
      vertex -20.098 -8.94821 48
      vertex -21.5192 -4.57406 62
      vertex -21.5192 -4.57406 48
    endloop
  endfacet
  facet normal -0.95106 -0.309008 0
    outer loop
      vertex -21.5192 -4.57406 62
      vertex -20.098 -8.94821 48
      vertex -20.098 -8.94821 62
    endloop
  endfacet
  facet normal 0.207925 -0.978145 0
    outer loop
      vertex 2.29963 -21.8795 60
      vertex 6.79837 -20.9232 62
      vertex 2.29963 -21.8795 62
    endloop
  endfacet
  facet normal 0.207925 -0.978145 0
    outer loop
      vertex 6.79837 -20.9232 62
      vertex 2.29963 -21.8795 60
      vertex 6.79837 -20.9232 60
    endloop
  endfacet
  facet normal 0.207925 -0.978145 0
    outer loop
      vertex 2.29963 -21.8795 24.5
      vertex 6.79837 -20.9232 40
      vertex 2.29963 -21.8795 40
    endloop
  endfacet
  facet normal 0.207925 -0.978145 0
    outer loop
      vertex 6.79837 -20.9232 40
      vertex 2.29963 -21.8795 24.5
      vertex 6.79837 -20.9232 24.5
    endloop
  endfacet
  facet normal -0.866042 -0.499972 0
    outer loop
      vertex -18.6247 -11.5 24.5
      vertex -17.7984 -12.9313 24.5
      vertex -18.6247 -11.5 48
    endloop
  endfacet
  facet normal -0.866022 -0.500006 0
    outer loop
      vertex -18.6247 -11.5 48
      vertex -20.098 -8.94821 62
      vertex -20.098 -8.94821 48
    endloop
  endfacet
  facet normal -0.866029 -0.499994 -2.9541e-06
    outer loop
      vertex -18.6247 -11.5 48
      vertex -17.7984 -12.9313 62
      vertex -20.098 -8.94821 62
    endloop
  endfacet
  facet normal -0.866042 -0.499972 -0
    outer loop
      vertex -17.7984 -12.9313 62
      vertex -18.6247 -11.5 48
      vertex -17.7984 -12.9313 24.5
    endloop
  endfacet
  facet normal 0 -1 0
    outer loop
      vertex -2.29963 -21.8795 60
      vertex 2.29963 -21.8795 62
      vertex -2.29963 -21.8795 62
    endloop
  endfacet
  facet normal 0 -1 -0
    outer loop
      vertex 2.29963 -21.8795 62
      vertex -2.29963 -21.8795 60
      vertex 2.29963 -21.8795 60
    endloop
  endfacet
  facet normal 0 -1 0
    outer loop
      vertex -2.29963 -21.8795 24.5
      vertex 2.29963 -21.8795 40
      vertex -2.29963 -21.8795 40
    endloop
  endfacet
  facet normal 0 -1 -0
    outer loop
      vertex 2.29963 -21.8795 40
      vertex -2.29963 -21.8795 24.5
      vertex 2.29963 -21.8795 24.5
    endloop
  endfacet
  facet normal -0.994521 -0.104539 0
    outer loop
      vertex -21.5192 -4.57406 48
      vertex -22 0 62
      vertex -22 0 48
    endloop
  endfacet
  facet normal -0.994521 -0.104539 0
    outer loop
      vertex -22 0 62
      vertex -21.5192 -4.57406 48
      vertex -21.5192 -4.57406 62
    endloop
  endfacet
  facet normal -0.743141 -0.669135 0
    outer loop
      vertex -17.7984 -12.9313 24.5
      vertex -15 -16.0392 40
      vertex -17.7984 -12.9313 62
    endloop
  endfacet
  facet normal -0.743144 -0.669132 1.25e-06
    outer loop
      vertex -14.7209 -16.3492 24.5
      vertex -15 -16.0392 40
      vertex -17.7984 -12.9313 24.5
    endloop
  endfacet
  facet normal -0.743175 -0.669097 0
    outer loop
      vertex -15 -16.0392 40
      vertex -14.7209 -16.3492 24.5
      vertex -14.7209 -16.3492 40
    endloop
  endfacet
  facet normal -0.743141 -0.669135 -0
    outer loop
      vertex -15 -16.0392 60
      vertex -17.7984 -12.9313 62
      vertex -15 -16.0392 40
    endloop
  endfacet
  facet normal -0.743175 -0.669097 -0
    outer loop
      vertex -14.7209 -16.3492 62
      vertex -15 -16.0392 60
      vertex -14.7209 -16.3492 60
    endloop
  endfacet
  facet normal -0.743144 -0.669132 -9.68746e-06
    outer loop
      vertex -15 -16.0392 60
      vertex -14.7209 -16.3492 62
      vertex -17.7984 -12.9313 62
    endloop
  endfacet
  facet normal 0 1 -0
    outer loop
      vertex 2.29963 21.8795 24.5
      vertex -2.29963 21.8795 62
      vertex 2.29963 21.8795 62
    endloop
  endfacet
  facet normal 0 1 0
    outer loop
      vertex -2.29963 21.8795 62
      vertex 2.29963 21.8795 24.5
      vertex -2.29963 21.8795 24.5
    endloop
  endfacet
  facet normal 0.207925 0.978145 -0
    outer loop
      vertex 6.79837 20.9232 24.5
      vertex 2.29963 21.8795 62
      vertex 6.79837 20.9232 62
    endloop
  endfacet
  facet normal 0.207925 0.978145 0
    outer loop
      vertex 2.29963 21.8795 62
      vertex 6.79837 20.9232 24.5
      vertex 2.29963 21.8795 24.5
    endloop
  endfacet
  facet normal -0.587786 -0.809016 0
    outer loop
      vertex -14.7209 -16.3492 60
      vertex -11 -19.0526 62
      vertex -14.7209 -16.3492 62
    endloop
  endfacet
  facet normal -0.587786 -0.809016 -0
    outer loop
      vertex -11 -19.0526 62
      vertex -14.7209 -16.3492 60
      vertex -11 -19.0526 60
    endloop
  endfacet
  facet normal -0.587786 -0.809016 0
    outer loop
      vertex -14.7209 -16.3492 24.5
      vertex -11 -19.0526 40
      vertex -14.7209 -16.3492 40
    endloop
  endfacet
  facet normal -0.587786 -0.809016 -0
    outer loop
      vertex -11 -19.0526 40
      vertex -14.7209 -16.3492 24.5
      vertex -11 -19.0526 24.5
    endloop
  endfacet
  facet normal -0.866035 0.499983 0
    outer loop
      vertex -18.0474 12.5 48.5
      vertex -17.7984 12.9313 48
      vertex -18.0474 12.5 48
    endloop
  endfacet
  facet normal -0.866035 0.499983 0
    outer loop
      vertex -17.7984 12.9313 48
      vertex -18.0474 12.5 48.5
      vertex -17.7984 12.9313 62
    endloop
  endfacet
  facet normal -0.866028 0.499995 0
    outer loop
      vertex -20.098 8.94821 62
      vertex -18.0474 12.5 48.5
      vertex -20.098 8.94821 48.5
    endloop
  endfacet
  facet normal -0.866029 0.499994 -4.52086e-07
    outer loop
      vertex -18.0474 12.5 48.5
      vertex -20.098 8.94821 62
      vertex -17.7984 12.9313 62
    endloop
  endfacet
  facet normal 0 0 1
    outer loop
      vertex -34.75 -8.5 39.5
      vertex -35.75 -9.5 39.5
      vertex -34.75 -9.5 39.5
    endloop
  endfacet
  facet normal -0 0 1
    outer loop
      vertex -34.75 -9.5 39.5
      vertex -22 -11.5 39.5
      vertex -22 -9.5 39.5
    endloop
  endfacet
  facet normal 0 0 1
    outer loop
      vertex -36 -11.5 39.5
      vertex -34.75 -9.5 39.5
      vertex -35.75 -9.5 39.5
    endloop
  endfacet
  facet normal 0 0 1
    outer loop
      vertex -36 -11.5 39.5
      vertex -35.75 -9.5 39.5
      vertex -36 -9.5 39.5
    endloop
  endfacet
  facet normal 0 0 1
    outer loop
      vertex -34.75 -9.5 39.5
      vertex -36 -11.5 39.5
      vertex -22 -11.5 39.5
    endloop
  endfacet
  facet normal 0 0 1
    outer loop
      vertex -22 15.5 39.5
      vertex -34.75 13.5 39.5
      vertex -22 13.5 39.5
    endloop
  endfacet
  facet normal 0 0 1
    outer loop
      vertex -34.75 13.5 39.5
      vertex -35.75 13.5 39.5
      vertex -34.75 12.5 39.5
    endloop
  endfacet
  facet normal -0 0 1
    outer loop
      vertex -36 15.5 39.5
      vertex -34.75 13.5 39.5
      vertex -22 15.5 39.5
    endloop
  endfacet
  facet normal 0 0 1
    outer loop
      vertex -34.75 13.5 39.5
      vertex -36 15.5 39.5
      vertex -35.75 13.5 39.5
    endloop
  endfacet
  facet normal 0 0 1
    outer loop
      vertex -35.75 13.5 39.5
      vertex -36 15.5 39.5
      vertex -36 13.5 39.5
    endloop
  endfacet
  facet normal 0 0 -1
    outer loop
      vertex 20 0 24.5
      vertex 22 0 24.5
      vertex 21.5192 -4.57406 24.5
    endloop
  endfacet
  facet normal 0 0 -1
    outer loop
      vertex 19.563 -4.15823 24.5
      vertex 21.5192 -4.57406 24.5
      vertex 20.098 -8.94821 24.5
    endloop
  endfacet
  facet normal 0 0 -1
    outer loop
      vertex 22 0 24.5
      vertex 20 0 24.5
      vertex 21.5192 4.57406 24.5
    endloop
  endfacet
  facet normal 0 0 -1
    outer loop
      vertex 19.563 4.15823 24.5
      vertex 21.5192 4.57406 24.5
      vertex 20 0 24.5
    endloop
  endfacet
  facet normal 0 0 -1
    outer loop
      vertex 21.5192 -4.57406 24.5
      vertex 19.563 -4.15823 24.5
      vertex 20 0 24.5
    endloop
  endfacet
  facet normal 0 0 -1
    outer loop
      vertex 20.098 -8.94821 24.5
      vertex 18.2709 -8.13473 24.5
      vertex 19.563 -4.15823 24.5
    endloop
  endfacet
  facet normal 0 0 -1
    outer loop
      vertex 17.7984 -12.9313 24.5
      vertex 18.2709 -8.13473 24.5
      vertex 20.098 -8.94821 24.5
    endloop
  endfacet
  facet normal 0 0 -1
    outer loop
      vertex 17.7984 -12.9313 24.5
      vertex 16.1803 -11.7557 24.5
      vertex 18.2709 -8.13473 24.5
    endloop
  endfacet
  facet normal 0 0 -1
    outer loop
      vertex 14.7209 -16.3492 24.5
      vertex 16.1803 -11.7557 24.5
      vertex 17.7984 -12.9313 24.5
    endloop
  endfacet
  facet normal 0 0 -1
    outer loop
      vertex 14.7209 -16.3492 24.5
      vertex 13.3826 -14.8629 24.5
      vertex 16.1803 -11.7557 24.5
    endloop
  endfacet
  facet normal 0 0 -1
    outer loop
      vertex 11 -19.0526 24.5
      vertex 13.3826 -14.8629 24.5
      vertex 14.7209 -16.3492 24.5
    endloop
  endfacet
  facet normal 0 0 -1
    outer loop
      vertex 11 -19.0526 24.5
      vertex 10 -17.3205 24.5
      vertex 13.3826 -14.8629 24.5
    endloop
  endfacet
  facet normal 0 0 -1
    outer loop
      vertex 6.79837 -20.9232 24.5
      vertex 10 -17.3205 24.5
      vertex 11 -19.0526 24.5
    endloop
  endfacet
  facet normal 0 0 -1
    outer loop
      vertex 6.79837 -20.9232 24.5
      vertex 6.18034 -19.0211 24.5
      vertex 10 -17.3205 24.5
    endloop
  endfacet
  facet normal 0 0 -1
    outer loop
      vertex 2.29963 -21.8795 24.5
      vertex 6.18034 -19.0211 24.5
      vertex 6.79837 -20.9232 24.5
    endloop
  endfacet
  facet normal 0 0 -1
    outer loop
      vertex 2.29963 -21.8795 24.5
      vertex 2.09057 -19.8904 24.5
      vertex 6.18034 -19.0211 24.5
    endloop
  endfacet
  facet normal 0 0 -1
    outer loop
      vertex 2.29963 -21.8795 24.5
      vertex -2.09057 -19.8904 24.5
      vertex 2.09057 -19.8904 24.5
    endloop
  endfacet
  facet normal 0 0 -1
    outer loop
      vertex -2.29963 -21.8795 24.5
      vertex -2.09057 -19.8904 24.5
      vertex 2.29963 -21.8795 24.5
    endloop
  endfacet
  facet normal 0 0 -1
    outer loop
      vertex -2.29963 -21.8795 24.5
      vertex -6.18034 -19.0211 24.5
      vertex -2.09057 -19.8904 24.5
    endloop
  endfacet
  facet normal 0 0 -1
    outer loop
      vertex -6.79837 -20.9232 24.5
      vertex -6.18034 -19.0211 24.5
      vertex -2.29963 -21.8795 24.5
    endloop
  endfacet
  facet normal 0 0 -1
    outer loop
      vertex -6.79837 -20.9232 24.5
      vertex -10 -17.3205 24.5
      vertex -6.18034 -19.0211 24.5
    endloop
  endfacet
  facet normal 0 0 -1
    outer loop
      vertex -11 -19.0526 24.5
      vertex -10 -17.3205 24.5
      vertex -6.79837 -20.9232 24.5
    endloop
  endfacet
  facet normal 0 0 -1
    outer loop
      vertex -11 -19.0526 24.5
      vertex -13.3826 -14.8629 24.5
      vertex -10 -17.3205 24.5
    endloop
  endfacet
  facet normal 0 0 -1
    outer loop
      vertex -14.7209 -16.3492 24.5
      vertex -13.3826 -14.8629 24.5
      vertex -11 -19.0526 24.5
    endloop
  endfacet
  facet normal 0 0 -1
    outer loop
      vertex -14.7209 -16.3492 24.5
      vertex -16.1803 -11.7557 24.5
      vertex -13.3826 -14.8629 24.5
    endloop
  endfacet
  facet normal 0 0 -1
    outer loop
      vertex -17.7984 -12.9313 24.5
      vertex -16.1803 -11.7557 24.5
      vertex -14.7209 -16.3492 24.5
    endloop
  endfacet
  facet normal 0 0 -1
    outer loop
      vertex -18.6247 -11.5 24.5
      vertex -16.1803 -11.7557 24.5
      vertex -17.7984 -12.9313 24.5
    endloop
  endfacet
  facet normal 0 0 -1
    outer loop
      vertex -16.1803 -11.7557 24.5
      vertex -18.6247 -11.5 24.5
      vertex -18.2709 -8.13473 24.5
    endloop
  endfacet
  facet normal 0 0 -1
    outer loop
      vertex -22 -11.5 24.5
      vertex -18.2709 -8.13473 24.5
      vertex -18.6247 -11.5 24.5
    endloop
  endfacet
  facet normal -0 0 -1
    outer loop
      vertex -19.563 -4.15823 24.5
      vertex -22 -11.5 24.5
      vertex -20 0 24.5
    endloop
  endfacet
  facet normal -0 0 -1
    outer loop
      vertex -18.2709 -8.13473 24.5
      vertex -22 -11.5 24.5
      vertex -19.563 -4.15823 24.5
    endloop
  endfacet
  facet normal -0 0 -1
    outer loop
      vertex 21.5192 4.57406 24.5
      vertex 19.563 4.15823 24.5
      vertex 20.098 8.94821 24.5
    endloop
  endfacet
  facet normal 0 0 -1
    outer loop
      vertex 18.2709 8.13473 24.5
      vertex 20.098 8.94821 24.5
      vertex 19.563 4.15823 24.5
    endloop
  endfacet
  facet normal 0 0 -1
    outer loop
      vertex 18.2709 8.13473 24.5
      vertex 17.7984 12.9313 24.5
      vertex 20.098 8.94821 24.5
    endloop
  endfacet
  facet normal 0 0 -1
    outer loop
      vertex 16.1803 11.7557 24.5
      vertex 17.7984 12.9313 24.5
      vertex 18.2709 8.13473 24.5
    endloop
  endfacet
  facet normal 0 0 -1
    outer loop
      vertex 16.1803 11.7557 24.5
      vertex 14.7209 16.3492 24.5
      vertex 17.7984 12.9313 24.5
    endloop
  endfacet
  facet normal 0 0 -1
    outer loop
      vertex 13.3826 14.8629 24.5
      vertex 14.7209 16.3492 24.5
      vertex 16.1803 11.7557 24.5
    endloop
  endfacet
  facet normal 0 0 -1
    outer loop
      vertex 13.3826 14.8629 24.5
      vertex 11 19.0526 24.5
      vertex 14.7209 16.3492 24.5
    endloop
  endfacet
  facet normal 0 0 -1
    outer loop
      vertex 10 17.3205 24.5
      vertex 11 19.0526 24.5
      vertex 13.3826 14.8629 24.5
    endloop
  endfacet
  facet normal 0 0 -1
    outer loop
      vertex 10 17.3205 24.5
      vertex 6.79837 20.9232 24.5
      vertex 11 19.0526 24.5
    endloop
  endfacet
  facet normal 0 0 -1
    outer loop
      vertex 6.18034 19.0211 24.5
      vertex 6.79837 20.9232 24.5
      vertex 10 17.3205 24.5
    endloop
  endfacet
  facet normal 0 0 -1
    outer loop
      vertex 6.18034 19.0211 24.5
      vertex 2.29963 21.8795 24.5
      vertex 6.79837 20.9232 24.5
    endloop
  endfacet
  facet normal 0 0 -1
    outer loop
      vertex 2.09057 19.8904 24.5
      vertex 2.29963 21.8795 24.5
      vertex 6.18034 19.0211 24.5
    endloop
  endfacet
  facet normal 0 0 -1
    outer loop
      vertex -2.09057 19.8904 24.5
      vertex 2.29963 21.8795 24.5
      vertex 2.09057 19.8904 24.5
    endloop
  endfacet
  facet normal 0 0 -1
    outer loop
      vertex -2.09057 19.8904 24.5
      vertex -2.29963 21.8795 24.5
      vertex 2.29963 21.8795 24.5
    endloop
  endfacet
  facet normal 0 0 -1
    outer loop
      vertex -6.18034 19.0211 24.5
      vertex -2.29963 21.8795 24.5
      vertex -2.09057 19.8904 24.5
    endloop
  endfacet
  facet normal 0 0 -1
    outer loop
      vertex -6.18034 19.0211 24.5
      vertex -6.79837 20.9232 24.5
      vertex -2.29963 21.8795 24.5
    endloop
  endfacet
  facet normal 0 0 -1
    outer loop
      vertex -10 17.3205 24.5
      vertex -6.79837 20.9232 24.5
      vertex -6.18034 19.0211 24.5
    endloop
  endfacet
  facet normal 0 0 -1
    outer loop
      vertex -10 17.3205 24.5
      vertex -11 19.0526 24.5
      vertex -6.79837 20.9232 24.5
    endloop
  endfacet
  facet normal 0 0 -1
    outer loop
      vertex -13.3826 14.8629 24.5
      vertex -11 19.0526 24.5
      vertex -10 17.3205 24.5
    endloop
  endfacet
  facet normal 0 0 -1
    outer loop
      vertex -13.3826 14.8629 24.5
      vertex -14.7209 16.3492 24.5
      vertex -11 19.0526 24.5
    endloop
  endfacet
  facet normal 0 0 -1
    outer loop
      vertex -13.3826 14.8629 24.5
      vertex -15.4855 15.5 24.5
      vertex -14.7209 16.3492 24.5
    endloop
  endfacet
  facet normal 0 0 -1
    outer loop
      vertex -16.1803 11.7557 24.5
      vertex -15.4855 15.5 24.5
      vertex -13.3826 14.8629 24.5
    endloop
  endfacet
  facet normal 0 0 -1
    outer loop
      vertex -22 13.5 24.5
      vertex -16.1803 11.7557 24.5
      vertex -18.2709 8.13473 24.5
    endloop
  endfacet
  facet normal 0 0 -1
    outer loop
      vertex -22 13.5 24.5
      vertex -20 0 24.5
      vertex -22 -11.5 24.5
    endloop
  endfacet
  facet normal 0 0 -1
    outer loop
      vertex -20 0 24.5
      vertex -22 13.5 24.5
      vertex -19.563 4.15823 24.5
    endloop
  endfacet
  facet normal 0 0 -1
    outer loop
      vertex -22 13.5 24.5
      vertex -18.2709 8.13473 24.5
      vertex -19.563 4.15823 24.5
    endloop
  endfacet
  facet normal 0 0 -1
    outer loop
      vertex -16.1803 11.7557 24.5
      vertex -22 13.5 24.5
      vertex -15.4855 15.5 24.5
    endloop
  endfacet
  facet normal 0 0 -1
    outer loop
      vertex -25 15.5 24.5
      vertex -22 13.5 24.5
      vertex -25 13.5 24.5
    endloop
  endfacet
  facet normal 0 0 -1
    outer loop
      vertex -22 13.5 24.5
      vertex -25 15.5 24.5
      vertex -15.4855 15.5 24.5
    endloop
  endfacet
  facet normal 0 0 -1
    outer loop
      vertex -34.75 12.5 24.5
      vertex -35.75 13.5 24.5
      vertex -34.75 13.5 24.5
    endloop
  endfacet
  facet normal 0 0 -1
    outer loop
      vertex -34.75 13.5 24.5
      vertex -25 15.5 24.5
      vertex -25 13.5 24.5
    endloop
  endfacet
  facet normal 0 0 -1
    outer loop
      vertex -36 15.5 24.5
      vertex -34.75 13.5 24.5
      vertex -35.75 13.5 24.5
    endloop
  endfacet
  facet normal 0 0 -1
    outer loop
      vertex -36 15.5 24.5
      vertex -35.75 13.5 24.5
      vertex -36 13.5 24.5
    endloop
  endfacet
  facet normal 0 0 -1
    outer loop
      vertex -34.75 13.5 24.5
      vertex -36 15.5 24.5
      vertex -25 15.5 24.5
    endloop
  endfacet
  facet normal -1 0 0
    outer loop
      vertex -36 13.5 24.5
      vertex -36 15.5 39.5
      vertex -36 15.5 24.5
    endloop
  endfacet
  facet normal -1 -0 0
    outer loop
      vertex -36 15.5 39.5
      vertex -36 13.5 24.5
      vertex -36 13.5 39.5
    endloop
  endfacet
  facet normal -1 0 0
    outer loop
      vertex -36 -11.5 29.5
      vertex -36 -9.5 39.5
      vertex -36 -9.5 29.5
    endloop
  endfacet
  facet normal -1 -0 0
    outer loop
      vertex -36 -9.5 39.5
      vertex -36 -11.5 29.5
      vertex -36 -11.5 39.5
    endloop
  endfacet
  facet normal 0 1 0
    outer loop
      vertex -15.4855 15.5 48
      vertex -22 15.5 39.5
      vertex -22 15.5 48
    endloop
  endfacet
  facet normal 0 1 -0
    outer loop
      vertex -15.4855 15.5 24.5
      vertex -22 15.5 39.5
      vertex -15.4855 15.5 48
    endloop
  endfacet
  facet normal 0 1 0
    outer loop
      vertex -25 15.5 24.5
      vertex -22 15.5 39.5
      vertex -15.4855 15.5 24.5
    endloop
  endfacet
  facet normal 0 1 0
    outer loop
      vertex -22 15.5 39.5
      vertex -25 15.5 24.5
      vertex -36 15.5 39.5
    endloop
  endfacet
  facet normal 0 1 0
    outer loop
      vertex -36 15.5 39.5
      vertex -25 15.5 24.5
      vertex -36 15.5 24.5
    endloop
  endfacet
  facet normal 0 -1 0
    outer loop
      vertex -36 -11.5 39.5
      vertex -36 -11.5 29.5
      vertex -22 -11.5 39.5
    endloop
  endfacet
  facet normal 0 -1 0
    outer loop
      vertex -22 -11.5 39.5
      vertex -18.6247 -11.5 48
      vertex -22 -11.5 48
    endloop
  endfacet
  facet normal 0 -1 0
    outer loop
      vertex -22 -11.5 29.5
      vertex -22 -11.5 39.5
      vertex -36 -11.5 29.5
    endloop
  endfacet
  facet normal 0 -1 0
    outer loop
      vertex -18.6247 -11.5 24.5
      vertex -22 -11.5 39.5
      vertex -22 -11.5 29.5
    endloop
  endfacet
  facet normal 0 -1 0
    outer loop
      vertex -18.6247 -11.5 24.5
      vertex -22 -11.5 29.5
      vertex -22 -11.5 24.5
    endloop
  endfacet
  facet normal 0 -1 0
    outer loop
      vertex -22 -11.5 39.5
      vertex -18.6247 -11.5 24.5
      vertex -18.6247 -11.5 48
    endloop
  endfacet
  facet normal -0 0 1
    outer loop
      vertex -35 12.5 48.5
      vertex -20.098 8.94821 48.5
      vertex -18.0474 12.5 48.5
    endloop
  endfacet
  facet normal 0 0 1
    outer loop
      vertex -35 12.5 48.5
      vertex -21.2184 5.5 48.5
      vertex -20.098 8.94821 48.5
    endloop
  endfacet
  facet normal 0 0 1
    outer loop
      vertex -21.2184 5.5 48.5
      vertex -35 12.5 48.5
      vertex -35 5.5 48.5
    endloop
  endfacet
  facet normal 0 0 -1
    outer loop
      vertex -35 5.5 46.5
      vertex -34.75 12.5 46.5
      vertex -34.75 5.5 46.5
    endloop
  endfacet
  facet normal -0 0 -1
    outer loop
      vertex -34.75 12.5 46.5
      vertex -35 5.5 46.5
      vertex -35 12.5 46.5
    endloop
  endfacet
  facet normal 0 0 -1
    outer loop
      vertex -33.75 5.5 46.5
      vertex -22 12.5 46.5
      vertex -22 5.5 46.5
    endloop
  endfacet
  facet normal -0 0 -1
    outer loop
      vertex -22 12.5 46.5
      vertex -33.75 5.5 46.5
      vertex -33.75 12.5 46.5
    endloop
  endfacet
  facet normal -1 0 0
    outer loop
      vertex -35 5.5 46.5
      vertex -35 12.5 48.5
      vertex -35 12.5 46.5
    endloop
  endfacet
  facet normal -1 -0 0
    outer loop
      vertex -35 12.5 48.5
      vertex -35 5.5 46.5
      vertex -35 5.5 48.5
    endloop
  endfacet
  facet normal 0 1 0
    outer loop
      vertex -33.75 12.5 46.5
      vertex -33.75 12.5 45.5
      vertex -34.75 12.5 46.5
    endloop
  endfacet
  facet normal 0 1 0
    outer loop
      vertex -22 12.5 48
      vertex -18.0474 12.5 48.5
      vertex -18.0474 12.5 48
    endloop
  endfacet
  facet normal 0 1 0
    outer loop
      vertex -18.0474 12.5 48.5
      vertex -22 12.5 48
      vertex -35 12.5 48.5
    endloop
  endfacet
  facet normal 0 1 0
    outer loop
      vertex -33.75 12.5 46.5
      vertex -22 12.5 48
      vertex -22 12.5 46.5
    endloop
  endfacet
  facet normal 0 1 0
    outer loop
      vertex -22 12.5 48
      vertex -33.75 12.5 46.5
      vertex -35 12.5 48.5
    endloop
  endfacet
  facet normal 0 1 -0
    outer loop
      vertex -34.75 12.5 46.5
      vertex -35 12.5 48.5
      vertex -33.75 12.5 46.5
    endloop
  endfacet
  facet normal 0 1 0
    outer loop
      vertex -35 12.5 48.5
      vertex -34.75 12.5 46.5
      vertex -35 12.5 46.5
    endloop
  endfacet
  facet normal 0 -1 0
    outer loop
      vertex -34.75 5.5 46.5
      vertex -33.75 5.5 45.5
      vertex -33.75 5.5 46.5
    endloop
  endfacet
  facet normal 0 -1 0
    outer loop
      vertex -35 5.5 48.5
      vertex -22 5.5 48
      vertex -21.2184 5.5 48.5
    endloop
  endfacet
  facet normal 0 -1 0
    outer loop
      vertex -34.75 5.5 46.5
      vertex -35 5.5 48.5
      vertex -35 5.5 46.5
    endloop
  endfacet
  facet normal 0 -1 0
    outer loop
      vertex -33.75 5.5 46.5
      vertex -35 5.5 48.5
      vertex -34.75 5.5 46.5
    endloop
  endfacet
  facet normal 0 -1 0
    outer loop
      vertex -35 5.5 48.5
      vertex -33.75 5.5 46.5
      vertex -22 5.5 48
    endloop
  endfacet
  facet normal 0 -1 -0
    outer loop
      vertex -22 5.5 48
      vertex -33.75 5.5 46.5
      vertex -22 5.5 46.5
    endloop
  endfacet
  facet normal 0 -1 -0
    outer loop
      vertex -21.2184 5.5 48.5
      vertex -22 5.5 48
      vertex -21.2184 5.5 48
    endloop
  endfacet
  facet normal 0 -1 0
    outer loop
      vertex -36 13.5 24.5
      vertex -35.75 13.5 39.5
      vertex -36 13.5 39.5
    endloop
  endfacet
  facet normal 0 -1 -0
    outer loop
      vertex -35.75 13.5 39.5
      vertex -36 13.5 24.5
      vertex -35.75 13.5 24.5
    endloop
  endfacet
  facet normal 0 -1 0
    outer loop
      vertex -25 13.5 24.5
      vertex -34.75 13.5 39.5
      vertex -34.75 13.5 24.5
    endloop
  endfacet
  facet normal 0 -1 0
    outer loop
      vertex -34.75 13.5 39.5
      vertex -25 13.5 24.5
      vertex -22 13.5 39.5
    endloop
  endfacet
  facet normal 0 -1 -0
    outer loop
      vertex -22 13.5 39.5
      vertex -25 13.5 24.5
      vertex -22 13.5 24.5
    endloop
  endfacet
  facet normal 0 1 -0
    outer loop
      vertex -35.75 -9.5 29.5
      vertex -36 -9.5 39.5
      vertex -35.75 -9.5 39.5
    endloop
  endfacet
  facet normal 0 1 0
    outer loop
      vertex -36 -9.5 39.5
      vertex -35.75 -9.5 29.5
      vertex -36 -9.5 29.5
    endloop
  endfacet
  facet normal 0 1 -0
    outer loop
      vertex -22 -9.5 29.5
      vertex -34.75 -9.5 39.5
      vertex -22 -9.5 39.5
    endloop
  endfacet
  facet normal 0 1 0
    outer loop
      vertex -34.75 -9.5 39.5
      vertex -22 -9.5 29.5
      vertex -34.75 -9.5 29.5
    endloop
  endfacet
  facet normal 0 0 -1
    outer loop
      vertex -22 -11.5 29.5
      vertex -34.75 -9.5 29.5
      vertex -22 -9.5 29.5
    endloop
  endfacet
  facet normal 0 0 -1
    outer loop
      vertex -36 -11.5 29.5
      vertex -34.75 -9.5 29.5
      vertex -22 -11.5 29.5
    endloop
  endfacet
  facet normal -0 0 -1
    outer loop
      vertex -34.75 -9.5 29.5
      vertex -36 -11.5 29.5
      vertex -35.75 -9.5 29.5
    endloop
  endfacet
  facet normal -0 0 -1
    outer loop
      vertex -35.75 -9.5 29.5
      vertex -36 -11.5 29.5
      vertex -36 -9.5 29.5
    endloop
  endfacet
  facet normal -0.707107 -0.707107 0
    outer loop
      vertex -34.75 12.5 24.5
      vertex -35.75 13.5 39.5
      vertex -35.75 13.5 24.5
    endloop
  endfacet
  facet normal -0.707107 -0.707107 0
    outer loop
      vertex -35.75 13.5 39.5
      vertex -34.75 12.5 24.5
      vertex -34.75 12.5 39.5
    endloop
  endfacet
  facet normal 1 -0 0
    outer loop
      vertex -34.75 12.5 39.5
      vertex -34.75 13.5 24.5
      vertex -34.75 13.5 39.5
    endloop
  endfacet
  facet normal 1 0 0
    outer loop
      vertex -34.75 13.5 24.5
      vertex -34.75 12.5 39.5
      vertex -34.75 12.5 24.5
    endloop
  endfacet
  facet normal 0 0 -1
    outer loop
      vertex -34.75 -9.5 29.5
      vertex -35.75 -9.5 29.5
      vertex -34.75 -8.5 29.5
    endloop
  endfacet
  facet normal 1 -0 0
    outer loop
      vertex -34.75 -9.5 39.5
      vertex -34.75 -8.5 29.5
      vertex -34.75 -8.5 39.5
    endloop
  endfacet
  facet normal 1 0 0
    outer loop
      vertex -34.75 -8.5 29.5
      vertex -34.75 -9.5 39.5
      vertex -34.75 -9.5 29.5
    endloop
  endfacet
  facet normal -0.707107 0.707107 0
    outer loop
      vertex -35.75 -9.5 29.5
      vertex -34.75 -8.5 39.5
      vertex -34.75 -8.5 29.5
    endloop
  endfacet
  facet normal -0.707107 0.707107 0
    outer loop
      vertex -34.75 -8.5 39.5
      vertex -35.75 -9.5 29.5
      vertex -35.75 -9.5 39.5
    endloop
  endfacet
  facet normal 1 -0 0
    outer loop
      vertex -33.75 5.5 46.5
      vertex -33.75 12.5 45.5
      vertex -33.75 12.5 46.5
    endloop
  endfacet
  facet normal 1 0 0
    outer loop
      vertex -33.75 12.5 45.5
      vertex -33.75 5.5 46.5
      vertex -33.75 5.5 45.5
    endloop
  endfacet
  facet normal -0.707107 0 -0.707107
    outer loop
      vertex -33.75 5.5 45.5
      vertex -34.75 12.5 46.5
      vertex -33.75 12.5 45.5
    endloop
  endfacet
  facet normal -0.707107 -0 -0.707107
    outer loop
      vertex -34.75 12.5 46.5
      vertex -33.75 5.5 45.5
      vertex -34.75 5.5 46.5
    endloop
  endfacet
  facet normal -0 0 1
    outer loop
      vertex -22 15.5 48
      vertex -17.7984 12.9313 48
      vertex -15.4855 15.5 48
    endloop
  endfacet
  facet normal 0 0 1
    outer loop
      vertex -22 12.5 48
      vertex -17.7984 12.9313 48
      vertex -22 15.5 48
    endloop
  endfacet
  facet normal 0 0 1
    outer loop
      vertex -17.7984 12.9313 48
      vertex -22 12.5 48
      vertex -18.0474 12.5 48
    endloop
  endfacet
  facet normal 0 0 1
    outer loop
      vertex -20.098 -8.94821 48
      vertex -22 -11.5 48
      vertex -18.6247 -11.5 48
    endloop
  endfacet
  facet normal 0 0 1
    outer loop
      vertex -21.5192 -4.57406 48
      vertex -22 -11.5 48
      vertex -20.098 -8.94821 48
    endloop
  endfacet
  facet normal 0 0 1
    outer loop
      vertex -22 -11.5 48
      vertex -21.5192 -4.57406 48
      vertex -22 0 48
    endloop
  endfacet
  facet normal -0 0 1
    outer loop
      vertex -22 5.5 48
      vertex -21.5192 4.57406 48
      vertex -21.2184 5.5 48
    endloop
  endfacet
  facet normal 0 0 1
    outer loop
      vertex -21.5192 4.57406 48
      vertex -22 5.5 48
      vertex -22 0 48
    endloop
  endfacet
  facet normal -1 0 0
    outer loop
      vertex -22 -9.5 29.5
      vertex -22 13.5 39.5
      vertex -22 13.5 24.5
    endloop
  endfacet
  facet normal -1 0 0
    outer loop
      vertex -22 13.5 39.5
      vertex -22 5.5 46.5
      vertex -22 12.5 46.5
    endloop
  endfacet
  facet normal -1 0 0
    outer loop
      vertex -22 5.5 46.5
      vertex -22 0 48
      vertex -22 5.5 48
    endloop
  endfacet
  facet normal -1 -0 0
    outer loop
      vertex -22 13.5 39.5
      vertex -22 -9.5 29.5
      vertex -22 5.5 46.5
    endloop
  endfacet
  facet normal -1 0 0
    outer loop
      vertex -22 -9.5 39.5
      vertex -22 5.5 46.5
      vertex -22 -9.5 29.5
    endloop
  endfacet
  facet normal -1 0 0
    outer loop
      vertex -22 -11.5 24.5
      vertex -22 -9.5 29.5
      vertex -22 13.5 24.5
    endloop
  endfacet
  facet normal -1 -0 0
    outer loop
      vertex -22 -9.5 29.5
      vertex -22 -11.5 24.5
      vertex -22 -11.5 29.5
    endloop
  endfacet
  facet normal -1 0 0
    outer loop
      vertex -22 12.5 46.5
      vertex -22 15.5 39.5
      vertex -22 13.5 39.5
    endloop
  endfacet
  facet normal -1 0 0
    outer loop
      vertex -22 15.5 39.5
      vertex -22 12.5 46.5
      vertex -22 15.5 48
    endloop
  endfacet
  facet normal -1 -0 0
    outer loop
      vertex -22 15.5 48
      vertex -22 12.5 46.5
      vertex -22 12.5 48
    endloop
  endfacet
  facet normal -1 -0 0
    outer loop
      vertex -22 5.5 46.5
      vertex -22 -9.5 39.5
      vertex -22 0 48
    endloop
  endfacet
  facet normal -1 0 0
    outer loop
      vertex -22 -11.5 48
      vertex -22 -9.5 39.5
      vertex -22 -11.5 39.5
    endloop
  endfacet
  facet normal -1 0 0
    outer loop
      vertex -22 -9.5 39.5
      vertex -22 -11.5 48
      vertex -22 0 48
    endloop
  endfacet
  facet normal 0.743156 0.669118 -0
    outer loop
      vertex -15 -13.0666 40
      vertex -16.1803 -11.7557 62
      vertex -15 -13.0666 60
    endloop
  endfacet
  facet normal 0.743149 0.669126 -9.18054e-06
    outer loop
      vertex -13.3826 -14.8629 62
      vertex -15 -13.0666 60
      vertex -16.1803 -11.7557 62
    endloop
  endfacet
  facet normal 0.743144 0.669132 0
    outer loop
      vertex -15 -13.0666 60
      vertex -13.3826 -14.8629 62
      vertex -13.3826 -14.8629 60
    endloop
  endfacet
  facet normal 0.743156 0.669118 0
    outer loop
      vertex -16.1803 -11.7557 62
      vertex -15 -13.0666 40
      vertex -16.1803 -11.7557 24.5
    endloop
  endfacet
  facet normal 0.743144 0.669132 -0
    outer loop
      vertex -13.3826 -14.8629 24.5
      vertex -15 -13.0666 40
      vertex -13.3826 -14.8629 40
    endloop
  endfacet
  facet normal 0.743149 0.669126 1.18459e-06
    outer loop
      vertex -15 -13.0666 40
      vertex -13.3826 -14.8629 24.5
      vertex -16.1803 -11.7557 24.5
    endloop
  endfacet
  facet normal -0.951053 -0.309029 0
    outer loop
      vertex 19.563 4.15823 24.5
      vertex 18.2709 8.13473 62
      vertex 18.2709 8.13473 24.5
    endloop
  endfacet
  facet normal -0.951053 -0.309029 0
    outer loop
      vertex 18.2709 8.13473 62
      vertex 19.563 4.15823 24.5
      vertex 19.563 4.15823 62
    endloop
  endfacet
  facet normal -0.994523 -0.104517 0
    outer loop
      vertex 20 0 24.5
      vertex 19.563 4.15823 62
      vertex 19.563 4.15823 24.5
    endloop
  endfacet
  facet normal -0.994523 -0.104517 0
    outer loop
      vertex 19.563 4.15823 62
      vertex 20 0 24.5
      vertex 20 0 62
    endloop
  endfacet
  facet normal -0.866022 -0.500006 0
    outer loop
      vertex 18.2709 8.13473 24.5
      vertex 16.1803 11.7557 62
      vertex 16.1803 11.7557 24.5
    endloop
  endfacet
  facet normal -0.866022 -0.500006 0
    outer loop
      vertex 16.1803 11.7557 62
      vertex 18.2709 8.13473 24.5
      vertex 18.2709 8.13473 62
    endloop
  endfacet
  facet normal -0.951053 0.309029 0
    outer loop
      vertex 18.2709 -8.13473 24.5
      vertex 19.563 -4.15823 62
      vertex 19.563 -4.15823 24.5
    endloop
  endfacet
  facet normal -0.951053 0.309029 0
    outer loop
      vertex 19.563 -4.15823 62
      vertex 18.2709 -8.13473 24.5
      vertex 18.2709 -8.13473 62
    endloop
  endfacet
  facet normal 0.587785 -0.809017 0
    outer loop
      vertex -13.3826 14.8629 24.5
      vertex -10 17.3205 62
      vertex -13.3826 14.8629 62
    endloop
  endfacet
  facet normal 0.587785 -0.809017 0
    outer loop
      vertex -10 17.3205 62
      vertex -13.3826 14.8629 24.5
      vertex -10 17.3205 24.5
    endloop
  endfacet
  facet normal -0.587785 0.809017 0
    outer loop
      vertex 13.3826 -14.8629 60
      vertex 10 -17.3205 62
      vertex 13.3826 -14.8629 62
    endloop
  endfacet
  facet normal -0.587785 0.809017 0
    outer loop
      vertex 10 -17.3205 62
      vertex 13.3826 -14.8629 60
      vertex 10 -17.3205 60
    endloop
  endfacet
  facet normal -0.587785 0.809017 0
    outer loop
      vertex 13.3826 -14.8629 24.5
      vertex 10 -17.3205 40
      vertex 13.3826 -14.8629 40
    endloop
  endfacet
  facet normal -0.587785 0.809017 0
    outer loop
      vertex 10 -17.3205 40
      vertex 13.3826 -14.8629 24.5
      vertex 10 -17.3205 24.5
    endloop
  endfacet
  facet normal -0.743156 0.669118 0
    outer loop
      vertex 16.1803 -11.7557 24.5
      vertex 15 -13.0666 40
      vertex 16.1803 -11.7557 62
    endloop
  endfacet
  facet normal -0.743149 0.669126 1.18459e-06
    outer loop
      vertex 13.3826 -14.8629 24.5
      vertex 15 -13.0666 40
      vertex 16.1803 -11.7557 24.5
    endloop
  endfacet
  facet normal -0.743144 0.669132 0
    outer loop
      vertex 15 -13.0666 40
      vertex 13.3826 -14.8629 24.5
      vertex 13.3826 -14.8629 40
    endloop
  endfacet
  facet normal -0.743156 0.669118 0
    outer loop
      vertex 15 -13.0666 60
      vertex 16.1803 -11.7557 62
      vertex 15 -13.0666 40
    endloop
  endfacet
  facet normal -0.743144 0.669132 0
    outer loop
      vertex 13.3826 -14.8629 62
      vertex 15 -13.0666 60
      vertex 13.3826 -14.8629 60
    endloop
  endfacet
  facet normal -0.743149 0.669126 -9.18054e-06
    outer loop
      vertex 15 -13.0666 60
      vertex 13.3826 -14.8629 62
      vertex 16.1803 -11.7557 62
    endloop
  endfacet
  facet normal -0.994523 0.104517 0
    outer loop
      vertex 19.563 -4.15823 24.5
      vertex 20 0 62
      vertex 20 0 24.5
    endloop
  endfacet
  facet normal -0.994523 0.104517 0
    outer loop
      vertex 20 0 62
      vertex 19.563 -4.15823 24.5
      vertex 19.563 -4.15823 62
    endloop
  endfacet
  facet normal 0.406732 0.913547 -0
    outer loop
      vertex -6.18034 -19.0211 60
      vertex -10 -17.3205 62
      vertex -6.18034 -19.0211 62
    endloop
  endfacet
  facet normal 0.406732 0.913547 0
    outer loop
      vertex -10 -17.3205 62
      vertex -6.18034 -19.0211 60
      vertex -10 -17.3205 60
    endloop
  endfacet
  facet normal 0.406732 0.913547 -0
    outer loop
      vertex -6.18034 -19.0211 24.5
      vertex -10 -17.3205 40
      vertex -6.18034 -19.0211 40
    endloop
  endfacet
  facet normal 0.406732 0.913547 0
    outer loop
      vertex -10 -17.3205 40
      vertex -6.18034 -19.0211 24.5
      vertex -10 -17.3205 24.5
    endloop
  endfacet
  facet normal -0.406732 -0.913547 0
    outer loop
      vertex 6.18034 19.0211 24.5
      vertex 10 17.3205 62
      vertex 6.18034 19.0211 62
    endloop
  endfacet
  facet normal -0.406732 -0.913547 -0
    outer loop
      vertex 10 17.3205 62
      vertex 6.18034 19.0211 24.5
      vertex 10 17.3205 24.5
    endloop
  endfacet
  facet normal -0.743149 -0.669126 0
    outer loop
      vertex 16.1803 11.7557 24.5
      vertex 13.3826 14.8629 62
      vertex 13.3826 14.8629 24.5
    endloop
  endfacet
  facet normal -0.743149 -0.669126 0
    outer loop
      vertex 13.3826 14.8629 62
      vertex 16.1803 11.7557 24.5
      vertex 16.1803 11.7557 62
    endloop
  endfacet
  facet normal 0.587785 0.809017 -0
    outer loop
      vertex -10 -17.3205 60
      vertex -13.3826 -14.8629 62
      vertex -10 -17.3205 62
    endloop
  endfacet
  facet normal 0.587785 0.809017 0
    outer loop
      vertex -13.3826 -14.8629 62
      vertex -10 -17.3205 60
      vertex -13.3826 -14.8629 60
    endloop
  endfacet
  facet normal 0.587785 0.809017 -0
    outer loop
      vertex -10 -17.3205 24.5
      vertex -13.3826 -14.8629 40
      vertex -10 -17.3205 40
    endloop
  endfacet
  facet normal 0.587785 0.809017 0
    outer loop
      vertex -13.3826 -14.8629 40
      vertex -10 -17.3205 24.5
      vertex -13.3826 -14.8629 24.5
    endloop
  endfacet
  facet normal 0.743149 -0.669126 0
    outer loop
      vertex -16.1803 11.7557 62
      vertex -13.3826 14.8629 24.5
      vertex -13.3826 14.8629 62
    endloop
  endfacet
  facet normal 0.743149 -0.669126 0
    outer loop
      vertex -13.3826 14.8629 24.5
      vertex -16.1803 11.7557 62
      vertex -16.1803 11.7557 24.5
    endloop
  endfacet
  facet normal 0 -1 0
    outer loop
      vertex -2.09057 19.8904 24.5
      vertex 2.09057 19.8904 62
      vertex -2.09057 19.8904 62
    endloop
  endfacet
  facet normal 0 -1 -0
    outer loop
      vertex 2.09057 19.8904 62
      vertex -2.09057 19.8904 24.5
      vertex 2.09057 19.8904 24.5
    endloop
  endfacet
  facet normal -0.406732 0.913547 0
    outer loop
      vertex 10 -17.3205 60
      vertex 6.18034 -19.0211 62
      vertex 10 -17.3205 62
    endloop
  endfacet
  facet normal -0.406732 0.913547 0
    outer loop
      vertex 6.18034 -19.0211 62
      vertex 10 -17.3205 60
      vertex 6.18034 -19.0211 60
    endloop
  endfacet
  facet normal -0.406732 0.913547 0
    outer loop
      vertex 10 -17.3205 24.5
      vertex 6.18034 -19.0211 40
      vertex 10 -17.3205 40
    endloop
  endfacet
  facet normal -0.406732 0.913547 0
    outer loop
      vertex 6.18034 -19.0211 40
      vertex 10 -17.3205 24.5
      vertex 6.18034 -19.0211 24.5
    endloop
  endfacet
  facet normal -0.20791 0.978148 0
    outer loop
      vertex 6.18034 -19.0211 60
      vertex 2.09057 -19.8904 62
      vertex 6.18034 -19.0211 62
    endloop
  endfacet
  facet normal -0.20791 0.978148 0
    outer loop
      vertex 2.09057 -19.8904 62
      vertex 6.18034 -19.0211 60
      vertex 2.09057 -19.8904 60
    endloop
  endfacet
  facet normal -0.20791 0.978148 0
    outer loop
      vertex 6.18034 -19.0211 24.5
      vertex 2.09057 -19.8904 40
      vertex 6.18034 -19.0211 40
    endloop
  endfacet
  facet normal -0.20791 0.978148 0
    outer loop
      vertex 2.09057 -19.8904 40
      vertex 6.18034 -19.0211 24.5
      vertex 2.09057 -19.8904 24.5
    endloop
  endfacet
  facet normal 0.951053 -0.309029 0
    outer loop
      vertex -19.563 4.15823 62
      vertex -18.2709 8.13473 24.5
      vertex -18.2709 8.13473 62
    endloop
  endfacet
  facet normal 0.951053 -0.309029 0
    outer loop
      vertex -18.2709 8.13473 24.5
      vertex -19.563 4.15823 62
      vertex -19.563 4.15823 24.5
    endloop
  endfacet
  facet normal 0.951053 0.309029 0
    outer loop
      vertex -18.2709 -8.13473 62
      vertex -19.563 -4.15823 24.5
      vertex -19.563 -4.15823 62
    endloop
  endfacet
  facet normal 0.951053 0.309029 0
    outer loop
      vertex -19.563 -4.15823 24.5
      vertex -18.2709 -8.13473 62
      vertex -18.2709 -8.13473 24.5
    endloop
  endfacet
  facet normal 0.406732 -0.913547 0
    outer loop
      vertex -10 17.3205 24.5
      vertex -6.18034 19.0211 62
      vertex -10 17.3205 62
    endloop
  endfacet
  facet normal 0.406732 -0.913547 0
    outer loop
      vertex -6.18034 19.0211 62
      vertex -10 17.3205 24.5
      vertex -6.18034 19.0211 24.5
    endloop
  endfacet
  facet normal 0.20791 0.978148 -0
    outer loop
      vertex -2.09057 -19.8904 60
      vertex -6.18034 -19.0211 62
      vertex -2.09057 -19.8904 62
    endloop
  endfacet
  facet normal 0.20791 0.978148 0
    outer loop
      vertex -6.18034 -19.0211 62
      vertex -2.09057 -19.8904 60
      vertex -6.18034 -19.0211 60
    endloop
  endfacet
  facet normal 0.20791 0.978148 -0
    outer loop
      vertex -2.09057 -19.8904 24.5
      vertex -6.18034 -19.0211 40
      vertex -2.09057 -19.8904 40
    endloop
  endfacet
  facet normal 0.20791 0.978148 0
    outer loop
      vertex -6.18034 -19.0211 40
      vertex -2.09057 -19.8904 24.5
      vertex -6.18034 -19.0211 24.5
    endloop
  endfacet
  facet normal -0.20791 -0.978148 0
    outer loop
      vertex 2.09057 19.8904 24.5
      vertex 6.18034 19.0211 62
      vertex 2.09057 19.8904 62
    endloop
  endfacet
  facet normal -0.20791 -0.978148 -0
    outer loop
      vertex 6.18034 19.0211 62
      vertex 2.09057 19.8904 24.5
      vertex 6.18034 19.0211 24.5
    endloop
  endfacet
  facet normal 0.994523 0.104517 0
    outer loop
      vertex -19.563 -4.15823 62
      vertex -20 0 24.5
      vertex -20 0 62
    endloop
  endfacet
  facet normal 0.994523 0.104517 0
    outer loop
      vertex -20 0 24.5
      vertex -19.563 -4.15823 62
      vertex -19.563 -4.15823 24.5
    endloop
  endfacet
  facet normal 0.866022 0.500006 0
    outer loop
      vertex -16.1803 -11.7557 62
      vertex -18.2709 -8.13473 24.5
      vertex -18.2709 -8.13473 62
    endloop
  endfacet
  facet normal 0.866022 0.500006 0
    outer loop
      vertex -18.2709 -8.13473 24.5
      vertex -16.1803 -11.7557 62
      vertex -16.1803 -11.7557 24.5
    endloop
  endfacet
  facet normal 0.866022 -0.500006 0
    outer loop
      vertex -18.2709 8.13473 62
      vertex -16.1803 11.7557 24.5
      vertex -16.1803 11.7557 62
    endloop
  endfacet
  facet normal 0.866022 -0.500006 0
    outer loop
      vertex -16.1803 11.7557 24.5
      vertex -18.2709 8.13473 62
      vertex -18.2709 8.13473 24.5
    endloop
  endfacet
  facet normal -0.866022 0.500006 0
    outer loop
      vertex 16.1803 -11.7557 24.5
      vertex 18.2709 -8.13473 62
      vertex 18.2709 -8.13473 24.5
    endloop
  endfacet
  facet normal -0.866022 0.500006 0
    outer loop
      vertex 18.2709 -8.13473 62
      vertex 16.1803 -11.7557 24.5
      vertex 16.1803 -11.7557 62
    endloop
  endfacet
  facet normal -0.587785 -0.809017 0
    outer loop
      vertex 10 17.3205 24.5
      vertex 13.3826 14.8629 62
      vertex 10 17.3205 62
    endloop
  endfacet
  facet normal -0.587785 -0.809017 -0
    outer loop
      vertex 13.3826 14.8629 62
      vertex 10 17.3205 24.5
      vertex 13.3826 14.8629 24.5
    endloop
  endfacet
  facet normal 0.20791 -0.978148 0
    outer loop
      vertex -6.18034 19.0211 24.5
      vertex -2.09057 19.8904 62
      vertex -6.18034 19.0211 62
    endloop
  endfacet
  facet normal 0.20791 -0.978148 0
    outer loop
      vertex -2.09057 19.8904 62
      vertex -6.18034 19.0211 24.5
      vertex -2.09057 19.8904 24.5
    endloop
  endfacet
  facet normal 0 1 -0
    outer loop
      vertex 2.09057 -19.8904 60
      vertex -2.09057 -19.8904 62
      vertex 2.09057 -19.8904 62
    endloop
  endfacet
  facet normal 0 1 0
    outer loop
      vertex -2.09057 -19.8904 62
      vertex 2.09057 -19.8904 60
      vertex -2.09057 -19.8904 60
    endloop
  endfacet
  facet normal 0 1 -0
    outer loop
      vertex 2.09057 -19.8904 24.5
      vertex -2.09057 -19.8904 40
      vertex 2.09057 -19.8904 40
    endloop
  endfacet
  facet normal 0 1 0
    outer loop
      vertex -2.09057 -19.8904 40
      vertex 2.09057 -19.8904 24.5
      vertex -2.09057 -19.8904 24.5
    endloop
  endfacet
  facet normal 0.994523 -0.104517 0
    outer loop
      vertex -20 0 62
      vertex -19.563 4.15823 24.5
      vertex -19.563 4.15823 62
    endloop
  endfacet
  facet normal 0.994523 -0.104517 0
    outer loop
      vertex -19.563 4.15823 24.5
      vertex -20 0 62
      vertex -20 0 24.5
    endloop
  endfacet
  facet normal -1 0 0
    outer loop
      vertex 15 -16.0392 40
      vertex 15 -13.0666 60
      vertex 15 -13.0666 40
    endloop
  endfacet
  facet normal -1 -0 0
    outer loop
      vertex 15 -13.0666 60
      vertex 15 -16.0392 40
      vertex 15 -16.0392 60
    endloop
  endfacet
  facet normal 0 0 -1
    outer loop
      vertex 13.3826 -14.8629 60
      vertex 15 -16.0392 60
      vertex 14.7209 -16.3492 60
    endloop
  endfacet
  facet normal 0 0 -1
    outer loop
      vertex 15 -16.0392 60
      vertex 13.3826 -14.8629 60
      vertex 15 -13.0666 60
    endloop
  endfacet
  facet normal 0 0 -1
    outer loop
      vertex 11 -19.0526 60
      vertex 13.3826 -14.8629 60
      vertex 14.7209 -16.3492 60
    endloop
  endfacet
  facet normal 0 0 -1
    outer loop
      vertex 11 -19.0526 60
      vertex 10 -17.3205 60
      vertex 13.3826 -14.8629 60
    endloop
  endfacet
  facet normal 0 0 -1
    outer loop
      vertex 6.79837 -20.9232 60
      vertex 10 -17.3205 60
      vertex 11 -19.0526 60
    endloop
  endfacet
  facet normal 0 0 -1
    outer loop
      vertex 6.79837 -20.9232 60
      vertex 6.18034 -19.0211 60
      vertex 10 -17.3205 60
    endloop
  endfacet
  facet normal 0 0 -1
    outer loop
      vertex 2.29963 -21.8795 60
      vertex 6.18034 -19.0211 60
      vertex 6.79837 -20.9232 60
    endloop
  endfacet
  facet normal 0 0 -1
    outer loop
      vertex 2.29963 -21.8795 60
      vertex 2.09057 -19.8904 60
      vertex 6.18034 -19.0211 60
    endloop
  endfacet
  facet normal 0 0 -1
    outer loop
      vertex 2.29963 -21.8795 60
      vertex -2.09057 -19.8904 60
      vertex 2.09057 -19.8904 60
    endloop
  endfacet
  facet normal 0 0 -1
    outer loop
      vertex -2.29963 -21.8795 60
      vertex -2.09057 -19.8904 60
      vertex 2.29963 -21.8795 60
    endloop
  endfacet
  facet normal 0 0 -1
    outer loop
      vertex -2.29963 -21.8795 60
      vertex -6.18034 -19.0211 60
      vertex -2.09057 -19.8904 60
    endloop
  endfacet
  facet normal 0 0 -1
    outer loop
      vertex -6.79837 -20.9232 60
      vertex -6.18034 -19.0211 60
      vertex -2.29963 -21.8795 60
    endloop
  endfacet
  facet normal 0 0 -1
    outer loop
      vertex -6.79837 -20.9232 60
      vertex -10 -17.3205 60
      vertex -6.18034 -19.0211 60
    endloop
  endfacet
  facet normal 0 0 -1
    outer loop
      vertex -11 -19.0526 60
      vertex -10 -17.3205 60
      vertex -6.79837 -20.9232 60
    endloop
  endfacet
  facet normal 0 0 -1
    outer loop
      vertex -11 -19.0526 60
      vertex -13.3826 -14.8629 60
      vertex -10 -17.3205 60
    endloop
  endfacet
  facet normal 0 0 -1
    outer loop
      vertex -14.7209 -16.3492 60
      vertex -13.3826 -14.8629 60
      vertex -11 -19.0526 60
    endloop
  endfacet
  facet normal 0 0 -1
    outer loop
      vertex -15 -16.0392 60
      vertex -13.3826 -14.8629 60
      vertex -14.7209 -16.3492 60
    endloop
  endfacet
  facet normal -0 0 -1
    outer loop
      vertex -13.3826 -14.8629 60
      vertex -15 -16.0392 60
      vertex -15 -13.0666 60
    endloop
  endfacet
  facet normal -0 0 1
    outer loop
      vertex 13.3826 -14.8629 40
      vertex 15 -16.0392 40
      vertex 15 -13.0666 40
    endloop
  endfacet
  facet normal 0 0 1
    outer loop
      vertex 15 -16.0392 40
      vertex 13.3826 -14.8629 40
      vertex 14.7209 -16.3492 40
    endloop
  endfacet
  facet normal 0 0 1
    outer loop
      vertex 13.3826 -14.8629 40
      vertex 11 -19.0526 40
      vertex 14.7209 -16.3492 40
    endloop
  endfacet
  facet normal -0 0 1
    outer loop
      vertex 10 -17.3205 40
      vertex 11 -19.0526 40
      vertex 13.3826 -14.8629 40
    endloop
  endfacet
  facet normal 0 0 1
    outer loop
      vertex 10 -17.3205 40
      vertex 6.79837 -20.9232 40
      vertex 11 -19.0526 40
    endloop
  endfacet
  facet normal -0 0 1
    outer loop
      vertex 6.18034 -19.0211 40
      vertex 6.79837 -20.9232 40
      vertex 10 -17.3205 40
    endloop
  endfacet
  facet normal 0 0 1
    outer loop
      vertex 6.18034 -19.0211 40
      vertex 2.29963 -21.8795 40
      vertex 6.79837 -20.9232 40
    endloop
  endfacet
  facet normal -0 0 1
    outer loop
      vertex 2.09057 -19.8904 40
      vertex 2.29963 -21.8795 40
      vertex 6.18034 -19.0211 40
    endloop
  endfacet
  facet normal -0 0 1
    outer loop
      vertex -2.09057 -19.8904 40
      vertex 2.29963 -21.8795 40
      vertex 2.09057 -19.8904 40
    endloop
  endfacet
  facet normal 0 0 1
    outer loop
      vertex -2.09057 -19.8904 40
      vertex -2.29963 -21.8795 40
      vertex 2.29963 -21.8795 40
    endloop
  endfacet
  facet normal 0 0 1
    outer loop
      vertex -6.18034 -19.0211 40
      vertex -2.29963 -21.8795 40
      vertex -2.09057 -19.8904 40
    endloop
  endfacet
  facet normal 0 0 1
    outer loop
      vertex -6.18034 -19.0211 40
      vertex -6.79837 -20.9232 40
      vertex -2.29963 -21.8795 40
    endloop
  endfacet
  facet normal 0 0 1
    outer loop
      vertex -10 -17.3205 40
      vertex -6.79837 -20.9232 40
      vertex -6.18034 -19.0211 40
    endloop
  endfacet
  facet normal 0 0 1
    outer loop
      vertex -10 -17.3205 40
      vertex -11 -19.0526 40
      vertex -6.79837 -20.9232 40
    endloop
  endfacet
  facet normal 0 0 1
    outer loop
      vertex -13.3826 -14.8629 40
      vertex -11 -19.0526 40
      vertex -10 -17.3205 40
    endloop
  endfacet
  facet normal 0 0 1
    outer loop
      vertex -13.3826 -14.8629 40
      vertex -14.7209 -16.3492 40
      vertex -11 -19.0526 40
    endloop
  endfacet
  facet normal 0 0 1
    outer loop
      vertex -15 -16.0392 40
      vertex -13.3826 -14.8629 40
      vertex -15 -13.0666 40
    endloop
  endfacet
  facet normal 0 0 1
    outer loop
      vertex -13.3826 -14.8629 40
      vertex -15 -16.0392 40
      vertex -14.7209 -16.3492 40
    endloop
  endfacet
  facet normal 1 -0 0
    outer loop
      vertex -15 -16.0392 60
      vertex -15 -13.0666 40
      vertex -15 -13.0666 60
    endloop
  endfacet
  facet normal 1 0 0
    outer loop
      vertex -15 -13.0666 40
      vertex -15 -16.0392 60
      vertex -15 -16.0392 40
    endloop
  endfacet
  facet normal 0 0 1
    outer loop
      vertex 20 0 62
      vertex 22 0 62
      vertex 21.5192 4.57406 62
    endloop
  endfacet
  facet normal 0 0 1
    outer loop
      vertex 19.563 4.15823 62
      vertex 21.5192 4.57406 62
      vertex 20.098 8.94821 62
    endloop
  endfacet
  facet normal 0 0 1
    outer loop
      vertex 22 0 62
      vertex 20 0 62
      vertex 21.5192 -4.57406 62
    endloop
  endfacet
  facet normal -0 0 1
    outer loop
      vertex 19.563 -4.15823 62
      vertex 21.5192 -4.57406 62
      vertex 20 0 62
    endloop
  endfacet
  facet normal 0 0 1
    outer loop
      vertex 21.5192 4.57406 62
      vertex 19.563 4.15823 62
      vertex 20 0 62
    endloop
  endfacet
  facet normal 0 0 1
    outer loop
      vertex 20.098 8.94821 62
      vertex 18.2709 8.13473 62
      vertex 19.563 4.15823 62
    endloop
  endfacet
  facet normal 0 0 1
    outer loop
      vertex 17.7984 12.9313 62
      vertex 18.2709 8.13473 62
      vertex 20.098 8.94821 62
    endloop
  endfacet
  facet normal 0 0 1
    outer loop
      vertex 17.7984 12.9313 62
      vertex 16.1803 11.7557 62
      vertex 18.2709 8.13473 62
    endloop
  endfacet
  facet normal 0 0 1
    outer loop
      vertex 14.7209 16.3492 62
      vertex 16.1803 11.7557 62
      vertex 17.7984 12.9313 62
    endloop
  endfacet
  facet normal 0 0 1
    outer loop
      vertex 14.7209 16.3492 62
      vertex 13.3826 14.8629 62
      vertex 16.1803 11.7557 62
    endloop
  endfacet
  facet normal 0 0 1
    outer loop
      vertex 11 19.0526 62
      vertex 13.3826 14.8629 62
      vertex 14.7209 16.3492 62
    endloop
  endfacet
  facet normal 0 0 1
    outer loop
      vertex 11 19.0526 62
      vertex 10 17.3205 62
      vertex 13.3826 14.8629 62
    endloop
  endfacet
  facet normal 0 0 1
    outer loop
      vertex 6.79837 20.9232 62
      vertex 10 17.3205 62
      vertex 11 19.0526 62
    endloop
  endfacet
  facet normal 0 0 1
    outer loop
      vertex 6.79837 20.9232 62
      vertex 6.18034 19.0211 62
      vertex 10 17.3205 62
    endloop
  endfacet
  facet normal 0 0 1
    outer loop
      vertex 2.29963 21.8795 62
      vertex 6.18034 19.0211 62
      vertex 6.79837 20.9232 62
    endloop
  endfacet
  facet normal 0 0 1
    outer loop
      vertex 2.29963 21.8795 62
      vertex 2.09057 19.8904 62
      vertex 6.18034 19.0211 62
    endloop
  endfacet
  facet normal 0 0 1
    outer loop
      vertex 2.29963 21.8795 62
      vertex -2.09057 19.8904 62
      vertex 2.09057 19.8904 62
    endloop
  endfacet
  facet normal -0 0 1
    outer loop
      vertex -2.29963 21.8795 62
      vertex -2.09057 19.8904 62
      vertex 2.29963 21.8795 62
    endloop
  endfacet
  facet normal 0 0 1
    outer loop
      vertex -2.29963 21.8795 62
      vertex -6.18034 19.0211 62
      vertex -2.09057 19.8904 62
    endloop
  endfacet
  facet normal -0 0 1
    outer loop
      vertex -6.79837 20.9232 62
      vertex -6.18034 19.0211 62
      vertex -2.29963 21.8795 62
    endloop
  endfacet
  facet normal 0 0 1
    outer loop
      vertex -6.79837 20.9232 62
      vertex -10 17.3205 62
      vertex -6.18034 19.0211 62
    endloop
  endfacet
  facet normal -0 0 1
    outer loop
      vertex -11 19.0526 62
      vertex -10 17.3205 62
      vertex -6.79837 20.9232 62
    endloop
  endfacet
  facet normal 0 0 1
    outer loop
      vertex -11 19.0526 62
      vertex -13.3826 14.8629 62
      vertex -10 17.3205 62
    endloop
  endfacet
  facet normal -0 0 1
    outer loop
      vertex -14.7209 16.3492 62
      vertex -13.3826 14.8629 62
      vertex -11 19.0526 62
    endloop
  endfacet
  facet normal 0 0 1
    outer loop
      vertex -14.7209 16.3492 62
      vertex -16.1803 11.7557 62
      vertex -13.3826 14.8629 62
    endloop
  endfacet
  facet normal -0 0 1
    outer loop
      vertex -17.7984 12.9313 62
      vertex -16.1803 11.7557 62
      vertex -14.7209 16.3492 62
    endloop
  endfacet
  facet normal 0 0 1
    outer loop
      vertex -17.7984 12.9313 62
      vertex -18.2709 8.13473 62
      vertex -16.1803 11.7557 62
    endloop
  endfacet
  facet normal -0 0 1
    outer loop
      vertex -20.098 8.94821 62
      vertex -18.2709 8.13473 62
      vertex -17.7984 12.9313 62
    endloop
  endfacet
  facet normal -0 0 1
    outer loop
      vertex -21.5192 4.57406 62
      vertex -19.563 4.15823 62
      vertex -20.098 8.94821 62
    endloop
  endfacet
  facet normal 0 0 1
    outer loop
      vertex -18.2709 8.13473 62
      vertex -20.098 8.94821 62
      vertex -19.563 4.15823 62
    endloop
  endfacet
  facet normal 0 0 1
    outer loop
      vertex 21.5192 -4.57406 62
      vertex 19.563 -4.15823 62
      vertex 20.098 -8.94821 62
    endloop
  endfacet
  facet normal -0 0 1
    outer loop
      vertex 18.2709 -8.13473 62
      vertex 20.098 -8.94821 62
      vertex 19.563 -4.15823 62
    endloop
  endfacet
  facet normal 0 0 1
    outer loop
      vertex 18.2709 -8.13473 62
      vertex 17.7984 -12.9313 62
      vertex 20.098 -8.94821 62
    endloop
  endfacet
  facet normal -0 0 1
    outer loop
      vertex 16.1803 -11.7557 62
      vertex 17.7984 -12.9313 62
      vertex 18.2709 -8.13473 62
    endloop
  endfacet
  facet normal 0 0 1
    outer loop
      vertex 16.1803 -11.7557 62
      vertex 14.7209 -16.3492 62
      vertex 17.7984 -12.9313 62
    endloop
  endfacet
  facet normal -0 0 1
    outer loop
      vertex 13.3826 -14.8629 62
      vertex 14.7209 -16.3492 62
      vertex 16.1803 -11.7557 62
    endloop
  endfacet
  facet normal 0 0 1
    outer loop
      vertex 13.3826 -14.8629 62
      vertex 11 -19.0526 62
      vertex 14.7209 -16.3492 62
    endloop
  endfacet
  facet normal -0 0 1
    outer loop
      vertex 10 -17.3205 62
      vertex 11 -19.0526 62
      vertex 13.3826 -14.8629 62
    endloop
  endfacet
  facet normal 0 0 1
    outer loop
      vertex 10 -17.3205 62
      vertex 6.79837 -20.9232 62
      vertex 11 -19.0526 62
    endloop
  endfacet
  facet normal -0 0 1
    outer loop
      vertex 6.18034 -19.0211 62
      vertex 6.79837 -20.9232 62
      vertex 10 -17.3205 62
    endloop
  endfacet
  facet normal 0 0 1
    outer loop
      vertex 6.18034 -19.0211 62
      vertex 2.29963 -21.8795 62
      vertex 6.79837 -20.9232 62
    endloop
  endfacet
  facet normal -0 0 1
    outer loop
      vertex 2.09057 -19.8904 62
      vertex 2.29963 -21.8795 62
      vertex 6.18034 -19.0211 62
    endloop
  endfacet
  facet normal -0 0 1
    outer loop
      vertex -2.09057 -19.8904 62
      vertex 2.29963 -21.8795 62
      vertex 2.09057 -19.8904 62
    endloop
  endfacet
  facet normal 0 0 1
    outer loop
      vertex -2.09057 -19.8904 62
      vertex -2.29963 -21.8795 62
      vertex 2.29963 -21.8795 62
    endloop
  endfacet
  facet normal 0 0 1
    outer loop
      vertex -6.18034 -19.0211 62
      vertex -2.29963 -21.8795 62
      vertex -2.09057 -19.8904 62
    endloop
  endfacet
  facet normal 0 0 1
    outer loop
      vertex -6.18034 -19.0211 62
      vertex -6.79837 -20.9232 62
      vertex -2.29963 -21.8795 62
    endloop
  endfacet
  facet normal 0 0 1
    outer loop
      vertex -10 -17.3205 62
      vertex -6.79837 -20.9232 62
      vertex -6.18034 -19.0211 62
    endloop
  endfacet
  facet normal 0 0 1
    outer loop
      vertex -10 -17.3205 62
      vertex -11 -19.0526 62
      vertex -6.79837 -20.9232 62
    endloop
  endfacet
  facet normal 0 0 1
    outer loop
      vertex -13.3826 -14.8629 62
      vertex -11 -19.0526 62
      vertex -10 -17.3205 62
    endloop
  endfacet
  facet normal 0 0 1
    outer loop
      vertex -13.3826 -14.8629 62
      vertex -14.7209 -16.3492 62
      vertex -11 -19.0526 62
    endloop
  endfacet
  facet normal 0 0 1
    outer loop
      vertex -16.1803 -11.7557 62
      vertex -14.7209 -16.3492 62
      vertex -13.3826 -14.8629 62
    endloop
  endfacet
  facet normal 0 0 1
    outer loop
      vertex -16.1803 -11.7557 62
      vertex -17.7984 -12.9313 62
      vertex -14.7209 -16.3492 62
    endloop
  endfacet
  facet normal 0 0 1
    outer loop
      vertex -18.2709 -8.13473 62
      vertex -17.7984 -12.9313 62
      vertex -16.1803 -11.7557 62
    endloop
  endfacet
  facet normal 0 0 1
    outer loop
      vertex -20.098 -8.94821 62
      vertex -18.2709 -8.13473 62
      vertex -19.563 -4.15823 62
    endloop
  endfacet
  facet normal 0 0 1
    outer loop
      vertex -18.2709 -8.13473 62
      vertex -20.098 -8.94821 62
      vertex -17.7984 -12.9313 62
    endloop
  endfacet
  facet normal 0 0 1
    outer loop
      vertex -21.5192 -4.57406 62
      vertex -19.563 -4.15823 62
      vertex -20 0 62
    endloop
  endfacet
  facet normal 0 0 1
    outer loop
      vertex -19.563 4.15823 62
      vertex -21.5192 4.57406 62
      vertex -20 0 62
    endloop
  endfacet
  facet normal 0 0 1
    outer loop
      vertex -22 0 62
      vertex -20 0 62
      vertex -21.5192 4.57406 62
    endloop
  endfacet
  facet normal 0 0 1
    outer loop
      vertex -19.563 -4.15823 62
      vertex -21.5192 -4.57406 62
      vertex -20.098 -8.94821 62
    endloop
  endfacet
  facet normal 0 0 1
    outer loop
      vertex -20 0 62
      vertex -22 0 62
      vertex -21.5192 -4.57406 62
    endloop
  endfacet
endsolid OpenSCAD_Model
