solid OpenSCAD_Model
  facet normal 0.587795 0.80901 -0
    outer loop
      vertex 16.0591 17.8355 -10
      vertex 15 18.605 10
      vertex 16.0591 17.8355 10
    endloop
  endfacet
  facet normal 0.587795 0.80901 0
    outer loop
      vertex 15 18.605 10
      vertex 16.0591 17.8355 -10
      vertex 15 18.605 -10
    endloop
  endfacet
  facet normal 0.994521 -0.104537 0
    outer loop
      vertex 23.4755 -4.98988 10
      vertex 24 0 -10
      vertex 24 0 10
    endloop
  endfacet
  facet normal 0.994521 -0.104537 0
    outer loop
      vertex 24 0 -10
      vertex 23.4755 -4.98988 10
      vertex 23.4755 -4.98988 -10
    endloop
  endfacet
  facet normal -0.58778 0.809021 0
    outer loop
      vertex 15 -18.605 -0.4
      vertex 12 -20.7846 3.4
      vertex 15 -18.605 3.4
    endloop
  endfacet
  facet normal -0.58778 0.809021 0
    outer loop
      vertex 12 -20.7846 3.4
      vertex 15 -18.605 -0.4
      vertex 12 -20.7846 -0.4
    endloop
  endfacet
  facet normal 0.587795 -0.80901 0
    outer loop
      vertex 15 -18.605 3.4
      vertex 16.0591 -17.8355 10
      vertex 15 -18.605 10
    endloop
  endfacet
  facet normal 0.587795 -0.80901 0
    outer loop
      vertex 16.0591 -17.8355 10
      vertex 15 -18.605 3.4
      vertex 16.0591 -17.8355 3.4
    endloop
  endfacet
  facet normal 0.587795 -0.80901 0
    outer loop
      vertex 15 -18.605 -10
      vertex 16.0591 -17.8355 -0.4
      vertex 15 -18.605 -0.4
    endloop
  endfacet
  facet normal 0.587795 -0.80901 0
    outer loop
      vertex 16.0591 -17.8355 -0.4
      vertex 15 -18.605 -10
      vertex 16.0591 -17.8355 -10
    endloop
  endfacet
  facet normal 0.866022 0.500007 0
    outer loop
      vertex 21.9251 9.76168 10
      vertex 19.4164 14.1068 -10
      vertex 19.4164 14.1068 10
    endloop
  endfacet
  facet normal 0.866022 0.500007 0
    outer loop
      vertex 19.4164 14.1068 -10
      vertex 21.9251 9.76168 10
      vertex 21.9251 9.76168 -10
    endloop
  endfacet
  facet normal 0.994521 0.104537 0
    outer loop
      vertex 24 0 10
      vertex 23.4755 4.98988 -10
      vertex 23.4755 4.98988 10
    endloop
  endfacet
  facet normal 0.994521 0.104537 0
    outer loop
      vertex 23.4755 4.98988 -10
      vertex 24 0 10
      vertex 24 0 -10
    endloop
  endfacet
  facet normal 0.95106 0.309008 0
    outer loop
      vertex 23.4755 4.98988 10
      vertex 21.9251 9.76168 -10
      vertex 21.9251 9.76168 10
    endloop
  endfacet
  facet normal 0.95106 0.309008 0
    outer loop
      vertex 21.9251 9.76168 -10
      vertex 23.4755 4.98988 10
      vertex 23.4755 4.98988 -10
    endloop
  endfacet
  facet normal 0 0 -1
    outer loop
      vertex 22 0 -10
      vertex 24 0 -10
      vertex 23.4755 -4.98988 -10
    endloop
  endfacet
  facet normal 0 0 -1
    outer loop
      vertex 24 0 -10
      vertex 22 0 -10
      vertex 23.4755 4.98988 -10
    endloop
  endfacet
  facet normal 0 0 -1
    outer loop
      vertex 21.5192 -4.57406 -10
      vertex 23.4755 -4.98988 -10
      vertex 21.9251 -9.76168 -10
    endloop
  endfacet
  facet normal 0 0 -1
    outer loop
      vertex 23.4755 -4.98988 -10
      vertex 21.5192 -4.57406 -10
      vertex 22 0 -10
    endloop
  endfacet
  facet normal 0 0 -1
    outer loop
      vertex 21.9251 -9.76168 -10
      vertex 20.098 -8.94821 -10
      vertex 21.5192 -4.57406 -10
    endloop
  endfacet
  facet normal 0 0 -1
    outer loop
      vertex 19.4164 -14.1068 -10
      vertex 20.098 -8.94821 -10
      vertex 21.9251 -9.76168 -10
    endloop
  endfacet
  facet normal 0 0 -1
    outer loop
      vertex 19.4164 -14.1068 -10
      vertex 17.7984 -12.9313 -10
      vertex 20.098 -8.94821 -10
    endloop
  endfacet
  facet normal 0 0 -1
    outer loop
      vertex 15 -16.0392 -10
      vertex 19.4164 -14.1068 -10
      vertex 16.0591 -17.8355 -10
    endloop
  endfacet
  facet normal 0 0 -1
    outer loop
      vertex 15 -16.0392 -10
      vertex 16.0591 -17.8355 -10
      vertex 15 -18.605 -10
    endloop
  endfacet
  facet normal -0 0 -1
    outer loop
      vertex 19.4164 -14.1068 -10
      vertex 15 -16.0392 -10
      vertex 17.7984 -12.9313 -10
    endloop
  endfacet
  facet normal 0 0 -1
    outer loop
      vertex 21.5192 4.57406 -10
      vertex 23.4755 4.98988 -10
      vertex 22 0 -10
    endloop
  endfacet
  facet normal -0 0 -1
    outer loop
      vertex 23.4755 4.98988 -10
      vertex 21.5192 4.57406 -10
      vertex 21.9251 9.76168 -10
    endloop
  endfacet
  facet normal 0 0 -1
    outer loop
      vertex 20.098 8.94821 -10
      vertex 21.9251 9.76168 -10
      vertex 21.5192 4.57406 -10
    endloop
  endfacet
  facet normal 0 0 -1
    outer loop
      vertex 20.098 8.94821 -10
      vertex 19.4164 14.1068 -10
      vertex 21.9251 9.76168 -10
    endloop
  endfacet
  facet normal 0 0 -1
    outer loop
      vertex 17.7984 12.9313 -10
      vertex 19.4164 14.1068 -10
      vertex 20.098 8.94821 -10
    endloop
  endfacet
  facet normal 0 0 -1
    outer loop
      vertex 15 16.0392 -10
      vertex 19.4164 14.1068 -10
      vertex 17.7984 12.9313 -10
    endloop
  endfacet
  facet normal 0 0 -1
    outer loop
      vertex 19.4164 14.1068 -10
      vertex 15 16.0392 -10
      vertex 16.0591 17.8355 -10
    endloop
  endfacet
  facet normal -0 0 -1
    outer loop
      vertex 16.0591 17.8355 -10
      vertex 15 16.0392 -10
      vertex 15 18.605 -10
    endloop
  endfacet
  facet normal 0.866022 -0.500006 0
    outer loop
      vertex 20 -13.096 -0.4
      vertex 21.9251 -9.76168 10
      vertex 20 -13.096 3.4
    endloop
  endfacet
  facet normal 0.866022 -0.500007 5.45744e-07
    outer loop
      vertex 19.4164 -14.1068 10
      vertex 20 -13.096 3.4
      vertex 21.9251 -9.76168 10
    endloop
  endfacet
  facet normal 0.86602 -0.500009 0
    outer loop
      vertex 20 -13.096 3.4
      vertex 19.4164 -14.1068 10
      vertex 19.4164 -14.1068 3.4
    endloop
  endfacet
  facet normal 0.866022 -0.500006 0
    outer loop
      vertex 21.9251 -9.76168 10
      vertex 20 -13.096 -0.4
      vertex 21.9251 -9.76168 -10
    endloop
  endfacet
  facet normal 0.86602 -0.500009 0
    outer loop
      vertex 19.4164 -14.1068 -10
      vertex 20 -13.096 -0.4
      vertex 19.4164 -14.1068 -0.4
    endloop
  endfacet
  facet normal 0.866022 -0.500007 -3.75199e-07
    outer loop
      vertex 20 -13.096 -0.4
      vertex 19.4164 -14.1068 -10
      vertex 21.9251 -9.76168 -10
    endloop
  endfacet
  facet normal 0.743148 -0.669127 0
    outer loop
      vertex 16.0591 -17.8355 10
      vertex 19.4164 -14.1068 3.4
      vertex 19.4164 -14.1068 10
    endloop
  endfacet
  facet normal 0.743148 -0.669127 0
    outer loop
      vertex 19.4164 -14.1068 3.4
      vertex 16.0591 -17.8355 10
      vertex 16.0591 -17.8355 3.4
    endloop
  endfacet
  facet normal 0.743148 -0.669127 0
    outer loop
      vertex 16.0591 -17.8355 -0.4
      vertex 19.4164 -14.1068 -10
      vertex 19.4164 -14.1068 -0.4
    endloop
  endfacet
  facet normal 0.743148 -0.669127 0
    outer loop
      vertex 19.4164 -14.1068 -10
      vertex 16.0591 -17.8355 -0.4
      vertex 16.0591 -17.8355 -10
    endloop
  endfacet
  facet normal 0.743148 0.669127 0
    outer loop
      vertex 19.4164 14.1068 10
      vertex 16.0591 17.8355 -10
      vertex 16.0591 17.8355 10
    endloop
  endfacet
  facet normal 0.743148 0.669127 0
    outer loop
      vertex 16.0591 17.8355 -10
      vertex 19.4164 14.1068 10
      vertex 19.4164 14.1068 -10
    endloop
  endfacet
  facet normal 0.95106 -0.309008 0
    outer loop
      vertex 21.9251 -9.76168 10
      vertex 23.4755 -4.98988 -10
      vertex 23.4755 -4.98988 10
    endloop
  endfacet
  facet normal 0.95106 -0.309008 0
    outer loop
      vertex 23.4755 -4.98988 -10
      vertex 21.9251 -9.76168 10
      vertex 21.9251 -9.76168 -10
    endloop
  endfacet
  facet normal 0 0 1
    outer loop
      vertex 22 0 10
      vertex 24 0 10
      vertex 23.4755 4.98988 10
    endloop
  endfacet
  facet normal 0 0 1
    outer loop
      vertex 24 0 10
      vertex 22 0 10
      vertex 23.4755 -4.98988 10
    endloop
  endfacet
  facet normal 0 0 1
    outer loop
      vertex 21.5192 4.57406 10
      vertex 23.4755 4.98988 10
      vertex 21.9251 9.76168 10
    endloop
  endfacet
  facet normal 0 0 1
    outer loop
      vertex 23.4755 4.98988 10
      vertex 21.5192 4.57406 10
      vertex 22 0 10
    endloop
  endfacet
  facet normal 0 0 1
    outer loop
      vertex 21.9251 9.76168 10
      vertex 20.098 8.94821 10
      vertex 21.5192 4.57406 10
    endloop
  endfacet
  facet normal 0 0 1
    outer loop
      vertex 19.4164 14.1068 10
      vertex 20.098 8.94821 10
      vertex 21.9251 9.76168 10
    endloop
  endfacet
  facet normal 0 0 1
    outer loop
      vertex 19.4164 14.1068 10
      vertex 17.7984 12.9313 10
      vertex 20.098 8.94821 10
    endloop
  endfacet
  facet normal -0 0 1
    outer loop
      vertex 15 16.0392 10
      vertex 19.4164 14.1068 10
      vertex 16.0591 17.8355 10
    endloop
  endfacet
  facet normal 0 0 1
    outer loop
      vertex 15 16.0392 10
      vertex 16.0591 17.8355 10
      vertex 15 18.605 10
    endloop
  endfacet
  facet normal 0 0 1
    outer loop
      vertex 19.4164 14.1068 10
      vertex 15 16.0392 10
      vertex 17.7984 12.9313 10
    endloop
  endfacet
  facet normal -0 0 1
    outer loop
      vertex 21.5192 -4.57406 10
      vertex 23.4755 -4.98988 10
      vertex 22 0 10
    endloop
  endfacet
  facet normal 0 0 1
    outer loop
      vertex 23.4755 -4.98988 10
      vertex 21.5192 -4.57406 10
      vertex 21.9251 -9.76168 10
    endloop
  endfacet
  facet normal -0 0 1
    outer loop
      vertex 20.098 -8.94821 10
      vertex 21.9251 -9.76168 10
      vertex 21.5192 -4.57406 10
    endloop
  endfacet
  facet normal 0 0 1
    outer loop
      vertex 20.098 -8.94821 10
      vertex 19.4164 -14.1068 10
      vertex 21.9251 -9.76168 10
    endloop
  endfacet
  facet normal -0 0 1
    outer loop
      vertex 17.7984 -12.9313 10
      vertex 19.4164 -14.1068 10
      vertex 20.098 -8.94821 10
    endloop
  endfacet
  facet normal 0 0 1
    outer loop
      vertex 15 -16.0392 10
      vertex 19.4164 -14.1068 10
      vertex 17.7984 -12.9313 10
    endloop
  endfacet
  facet normal 0 0 1
    outer loop
      vertex 19.4164 -14.1068 10
      vertex 15 -16.0392 10
      vertex 16.0591 -17.8355 10
    endloop
  endfacet
  facet normal 0 0 1
    outer loop
      vertex 16.0591 -17.8355 10
      vertex 15 -16.0392 10
      vertex 15 -18.605 10
    endloop
  endfacet
  facet normal -0.95106 -0.309008 0
    outer loop
      vertex 21.5192 4.57406 9
      vertex 20.098 8.94821 10
      vertex 20.098 8.94821 9
    endloop
  endfacet
  facet normal -0.95106 -0.309008 0
    outer loop
      vertex 20.098 8.94821 10
      vertex 21.5192 4.57406 9
      vertex 21.5192 4.57406 10
    endloop
  endfacet
  facet normal -0.95106 -0.309008 0
    outer loop
      vertex 21.5192 4.57406 -10
      vertex 20.098 8.94821 -9
      vertex 20.098 8.94821 -10
    endloop
  endfacet
  facet normal -0.95106 -0.309008 0
    outer loop
      vertex 20.098 8.94821 -9
      vertex 21.5192 4.57406 -10
      vertex 21.5192 4.57406 -9
    endloop
  endfacet
  facet normal -0.994521 -0.104539 0
    outer loop
      vertex 22 0 9
      vertex 21.5192 4.57406 10
      vertex 21.5192 4.57406 9
    endloop
  endfacet
  facet normal -0.994521 -0.104539 0
    outer loop
      vertex 21.5192 4.57406 10
      vertex 22 0 9
      vertex 22 0 10
    endloop
  endfacet
  facet normal -0.994521 -0.104539 0
    outer loop
      vertex 22 0 -10
      vertex 21.5192 4.57406 -9
      vertex 21.5192 4.57406 -10
    endloop
  endfacet
  facet normal -0.994521 -0.104539 0
    outer loop
      vertex 21.5192 4.57406 -9
      vertex 22 0 -10
      vertex 22 0 -9
    endloop
  endfacet
  facet normal -0.994521 0.104539 0
    outer loop
      vertex 21.5192 -4.57406 9
      vertex 22 0 10
      vertex 22 0 9
    endloop
  endfacet
  facet normal -0.994521 0.104539 0
    outer loop
      vertex 22 0 10
      vertex 21.5192 -4.57406 9
      vertex 21.5192 -4.57406 10
    endloop
  endfacet
  facet normal -0.994521 0.104539 0
    outer loop
      vertex 21.5192 -4.57406 -10
      vertex 22 0 -9
      vertex 22 0 -10
    endloop
  endfacet
  facet normal -0.994521 0.104539 0
    outer loop
      vertex 22 0 -9
      vertex 21.5192 -4.57406 -10
      vertex 21.5192 -4.57406 -9
    endloop
  endfacet
  facet normal -0.743136 0.66914 0
    outer loop
      vertex 17.7984 -12.9313 -10
      vertex 16.3859 -14.5 -9
      vertex 17.7984 -12.9313 -9
    endloop
  endfacet
  facet normal -0.743145 0.66913 0
    outer loop
      vertex 16.3859 -14.5 -9
      vertex 15 -16.0392 -10
      vertex 16.3859 -14.5 9
    endloop
  endfacet
  facet normal -0.743141 0.669135 -1.40288e-05
    outer loop
      vertex 15 -16.0392 -10
      vertex 16.3859 -14.5 -9
      vertex 17.7984 -12.9313 -10
    endloop
  endfacet
  facet normal -0.743136 0.66914 0
    outer loop
      vertex 16.3859 -14.5 9
      vertex 17.7984 -12.9313 10
      vertex 17.7984 -12.9313 9
    endloop
  endfacet
  facet normal -0.743141 0.669135 1.40288e-05
    outer loop
      vertex 16.3859 -14.5 9
      vertex 15 -16.0392 10
      vertex 17.7984 -12.9313 10
    endloop
  endfacet
  facet normal -0.743145 0.66913 0
    outer loop
      vertex 15 -16.0392 10
      vertex 16.3859 -14.5 9
      vertex 15 -16.0392 -10
    endloop
  endfacet
  facet normal -0.866029 0.499994 0
    outer loop
      vertex 17.7984 -12.9313 9
      vertex 20.098 -8.94821 10
      vertex 20.098 -8.94821 9
    endloop
  endfacet
  facet normal -0.866029 0.499994 0
    outer loop
      vertex 20.098 -8.94821 10
      vertex 17.7984 -12.9313 9
      vertex 17.7984 -12.9313 10
    endloop
  endfacet
  facet normal -0.866029 0.499994 0
    outer loop
      vertex 17.7984 -12.9313 -10
      vertex 20.098 -8.94821 -9
      vertex 20.098 -8.94821 -10
    endloop
  endfacet
  facet normal -0.866029 0.499994 0
    outer loop
      vertex 20.098 -8.94821 -9
      vertex 17.7984 -12.9313 -10
      vertex 17.7984 -12.9313 -9
    endloop
  endfacet
  facet normal -0.95106 0.309008 0
    outer loop
      vertex 20.098 -8.94821 9
      vertex 21.5192 -4.57406 10
      vertex 21.5192 -4.57406 9
    endloop
  endfacet
  facet normal -0.95106 0.309008 0
    outer loop
      vertex 21.5192 -4.57406 10
      vertex 20.098 -8.94821 9
      vertex 20.098 -8.94821 10
    endloop
  endfacet
  facet normal -0.95106 0.309008 0
    outer loop
      vertex 20.098 -8.94821 -10
      vertex 21.5192 -4.57406 -9
      vertex 21.5192 -4.57406 -10
    endloop
  endfacet
  facet normal -0.95106 0.309008 0
    outer loop
      vertex 21.5192 -4.57406 -9
      vertex 20.098 -8.94821 -10
      vertex 20.098 -8.94821 -9
    endloop
  endfacet
  facet normal -0.743145 -0.66913 0
    outer loop
      vertex 15 16.0392 -10
      vertex 16.3859 14.5 -9
      vertex 15 16.0392 10
    endloop
  endfacet
  facet normal -0.743141 -0.669135 -1.40288e-05
    outer loop
      vertex 17.7984 12.9313 -10
      vertex 16.3859 14.5 -9
      vertex 15 16.0392 -10
    endloop
  endfacet
  facet normal -0.743136 -0.66914 0
    outer loop
      vertex 16.3859 14.5 -9
      vertex 17.7984 12.9313 -10
      vertex 17.7984 12.9313 -9
    endloop
  endfacet
  facet normal -0.743145 -0.66913 -0
    outer loop
      vertex 16.3859 14.5 9
      vertex 15 16.0392 10
      vertex 16.3859 14.5 -9
    endloop
  endfacet
  facet normal -0.743136 -0.66914 -0
    outer loop
      vertex 17.7984 12.9313 10
      vertex 16.3859 14.5 9
      vertex 17.7984 12.9313 9
    endloop
  endfacet
  facet normal -0.743141 -0.669135 1.40288e-05
    outer loop
      vertex 16.3859 14.5 9
      vertex 17.7984 12.9313 10
      vertex 15 16.0392 10
    endloop
  endfacet
  facet normal -0.866029 -0.499994 0
    outer loop
      vertex 20.098 8.94821 9
      vertex 17.7984 12.9313 10
      vertex 17.7984 12.9313 9
    endloop
  endfacet
  facet normal -0.866029 -0.499994 0
    outer loop
      vertex 17.7984 12.9313 10
      vertex 20.098 8.94821 9
      vertex 20.098 8.94821 10
    endloop
  endfacet
  facet normal -0.866029 -0.499994 0
    outer loop
      vertex 20.098 8.94821 -10
      vertex 17.7984 12.9313 -9
      vertex 17.7984 12.9313 -10
    endloop
  endfacet
  facet normal -0.866029 -0.499994 0
    outer loop
      vertex 17.7984 12.9313 -9
      vertex 20.098 8.94821 -10
      vertex 20.098 8.94821 -9
    endloop
  endfacet
  facet normal -1 0 0
    outer loop
      vertex 15 16.0392 -10
      vertex 15 18.605 10
      vertex 15 18.605 -10
    endloop
  endfacet
  facet normal -1 -0 0
    outer loop
      vertex 15 18.605 10
      vertex 15 16.0392 -10
      vertex 15 16.0392 10
    endloop
  endfacet
  facet normal -1 0 0
    outer loop
      vertex 15 -18.605 -0.4
      vertex 15 -16.0392 -10
      vertex 15 -18.605 -10
    endloop
  endfacet
  facet normal -1 0 0
    outer loop
      vertex 15 -16.0392 -10
      vertex 15 -18.605 -0.4
      vertex 15 -16.0392 10
    endloop
  endfacet
  facet normal -1 0 0
    outer loop
      vertex 15 -18.605 3.4
      vertex 15 -16.0392 10
      vertex 15 -18.605 -0.4
    endloop
  endfacet
  facet normal -1 -0 0
    outer loop
      vertex 15 -16.0392 10
      vertex 15 -18.605 3.4
      vertex 15 -18.605 10
    endloop
  endfacet
  facet normal 0 0 1
    outer loop
      vertex 20 0 9
      vertex 22 0 9
      vertex 21.5192 4.57406 9
    endloop
  endfacet
  facet normal 0 0 1
    outer loop
      vertex 19.563 4.15823 9
      vertex 21.5192 4.57406 9
      vertex 20.098 8.94821 9
    endloop
  endfacet
  facet normal 0 0 1
    outer loop
      vertex 22 0 9
      vertex 20 0 9
      vertex 21.5192 -4.57406 9
    endloop
  endfacet
  facet normal -0 0 1
    outer loop
      vertex 19.563 -4.15823 9
      vertex 21.5192 -4.57406 9
      vertex 20 0 9
    endloop
  endfacet
  facet normal 0 0 1
    outer loop
      vertex 21.5192 4.57406 9
      vertex 19.563 4.15823 9
      vertex 20 0 9
    endloop
  endfacet
  facet normal 0 0 1
    outer loop
      vertex 20.098 8.94821 9
      vertex 18.2709 8.13473 9
      vertex 19.563 4.15823 9
    endloop
  endfacet
  facet normal 0 0 1
    outer loop
      vertex 17.7984 12.9313 9
      vertex 18.2709 8.13473 9
      vertex 20.098 8.94821 9
    endloop
  endfacet
  facet normal 0 0 1
    outer loop
      vertex 15.5 12.5113 9
      vertex 17.7984 12.9313 9
      vertex 16.3859 14.5 9
    endloop
  endfacet
  facet normal 0 0 1
    outer loop
      vertex 17.7984 12.9313 9
      vertex 16.1803 11.7557 9
      vertex 18.2709 8.13473 9
    endloop
  endfacet
  facet normal 0 0 1
    outer loop
      vertex 15.5 12.5113 9
      vertex 16.3859 14.5 9
      vertex 15.5 14.5 9
    endloop
  endfacet
  facet normal 0 0 1
    outer loop
      vertex 17.7984 12.9313 9
      vertex 15.5 12.5113 9
      vertex 16.1803 11.7557 9
    endloop
  endfacet
  facet normal 0 0 1
    outer loop
      vertex 21.5192 -4.57406 9
      vertex 19.563 -4.15823 9
      vertex 20.098 -8.94821 9
    endloop
  endfacet
  facet normal -0 0 1
    outer loop
      vertex 18.2709 -8.13473 9
      vertex 20.098 -8.94821 9
      vertex 19.563 -4.15823 9
    endloop
  endfacet
  facet normal 0 0 1
    outer loop
      vertex 18.2709 -8.13473 9
      vertex 17.7984 -12.9313 9
      vertex 20.098 -8.94821 9
    endloop
  endfacet
  facet normal -0 0 1
    outer loop
      vertex 16.1803 -11.7557 9
      vertex 17.7984 -12.9313 9
      vertex 18.2709 -8.13473 9
    endloop
  endfacet
  facet normal -0 0 1
    outer loop
      vertex 15.5 -12.5113 9
      vertex 17.7984 -12.9313 9
      vertex 16.1803 -11.7557 9
    endloop
  endfacet
  facet normal 0 0 1
    outer loop
      vertex 17.7984 -12.9313 9
      vertex 15.5 -12.5113 9
      vertex 16.3859 -14.5 9
    endloop
  endfacet
  facet normal 0 0 1
    outer loop
      vertex 16.3859 -14.5 9
      vertex 15.5 -12.5113 9
      vertex 15.5 -14.5 9
    endloop
  endfacet
  facet normal 0 0 -1
    outer loop
      vertex 20 0 -9
      vertex 22 0 -9
      vertex 21.5192 -4.57406 -9
    endloop
  endfacet
  facet normal 0 0 -1
    outer loop
      vertex 19.563 -4.15823 -9
      vertex 21.5192 -4.57406 -9
      vertex 20.098 -8.94821 -9
    endloop
  endfacet
  facet normal 0 0 -1
    outer loop
      vertex 22 0 -9
      vertex 20 0 -9
      vertex 21.5192 4.57406 -9
    endloop
  endfacet
  facet normal 0 0 -1
    outer loop
      vertex 19.563 4.15823 -9
      vertex 21.5192 4.57406 -9
      vertex 20 0 -9
    endloop
  endfacet
  facet normal 0 0 -1
    outer loop
      vertex 21.5192 -4.57406 -9
      vertex 19.563 -4.15823 -9
      vertex 20 0 -9
    endloop
  endfacet
  facet normal 0 0 -1
    outer loop
      vertex 20.098 -8.94821 -9
      vertex 18.2709 -8.13473 -9
      vertex 19.563 -4.15823 -9
    endloop
  endfacet
  facet normal 0 0 -1
    outer loop
      vertex 17.7984 -12.9313 -9
      vertex 18.2709 -8.13473 -9
      vertex 20.098 -8.94821 -9
    endloop
  endfacet
  facet normal 0 0 -1
    outer loop
      vertex 15.5 -12.5113 -9
      vertex 17.7984 -12.9313 -9
      vertex 16.3859 -14.5 -9
    endloop
  endfacet
  facet normal 0 0 -1
    outer loop
      vertex 17.7984 -12.9313 -9
      vertex 16.1803 -11.7557 -9
      vertex 18.2709 -8.13473 -9
    endloop
  endfacet
  facet normal 0 0 -1
    outer loop
      vertex 15.5 -12.5113 -9
      vertex 16.3859 -14.5 -9
      vertex 15.5 -14.5 -9
    endloop
  endfacet
  facet normal 0 0 -1
    outer loop
      vertex 17.7984 -12.9313 -9
      vertex 15.5 -12.5113 -9
      vertex 16.1803 -11.7557 -9
    endloop
  endfacet
  facet normal -0 0 -1
    outer loop
      vertex 21.5192 4.57406 -9
      vertex 19.563 4.15823 -9
      vertex 20.098 8.94821 -9
    endloop
  endfacet
  facet normal 0 0 -1
    outer loop
      vertex 18.2709 8.13473 -9
      vertex 20.098 8.94821 -9
      vertex 19.563 4.15823 -9
    endloop
  endfacet
  facet normal 0 0 -1
    outer loop
      vertex 18.2709 8.13473 -9
      vertex 17.7984 12.9313 -9
      vertex 20.098 8.94821 -9
    endloop
  endfacet
  facet normal 0 0 -1
    outer loop
      vertex 16.1803 11.7557 -9
      vertex 17.7984 12.9313 -9
      vertex 18.2709 8.13473 -9
    endloop
  endfacet
  facet normal 0 0 -1
    outer loop
      vertex 15.5 12.5113 -9
      vertex 17.7984 12.9313 -9
      vertex 16.1803 11.7557 -9
    endloop
  endfacet
  facet normal -0 0 -1
    outer loop
      vertex 17.7984 12.9313 -9
      vertex 15.5 12.5113 -9
      vertex 16.3859 14.5 -9
    endloop
  endfacet
  facet normal -0 0 -1
    outer loop
      vertex 16.3859 14.5 -9
      vertex 15.5 12.5113 -9
      vertex 15.5 14.5 -9
    endloop
  endfacet
  facet normal -1 0 0
    outer loop
      vertex 15.5 12.5113 -9
      vertex 15.5 14.5 9
      vertex 15.5 14.5 -9
    endloop
  endfacet
  facet normal -1 -0 0
    outer loop
      vertex 15.5 14.5 9
      vertex 15.5 12.5113 -9
      vertex 15.5 12.5113 9
    endloop
  endfacet
  facet normal -1 0 0
    outer loop
      vertex 15.5 -14.5 -9
      vertex 15.5 -12.5113 9
      vertex 15.5 -12.5113 -9
    endloop
  endfacet
  facet normal -1 -0 0
    outer loop
      vertex 15.5 -12.5113 9
      vertex 15.5 -14.5 -9
      vertex 15.5 -14.5 9
    endloop
  endfacet
  facet normal 0 1 -0
    outer loop
      vertex 16.3859 14.5 -9
      vertex 15.5 14.5 9
      vertex 16.3859 14.5 9
    endloop
  endfacet
  facet normal 0 1 0
    outer loop
      vertex 15.5 14.5 9
      vertex 16.3859 14.5 -9
      vertex 15.5 14.5 -9
    endloop
  endfacet
  facet normal 0 -1 0
    outer loop
      vertex 15.5 -14.5 -9
      vertex 16.3859 -14.5 9
      vertex 15.5 -14.5 9
    endloop
  endfacet
  facet normal 0 -1 -0
    outer loop
      vertex 16.3859 -14.5 9
      vertex 15.5 -14.5 -9
      vertex 16.3859 -14.5 -9
    endloop
  endfacet
  facet normal -0.951053 -0.309029 0
    outer loop
      vertex 19.563 4.15823 -9
      vertex 18.2709 8.13473 9
      vertex 18.2709 8.13473 -9
    endloop
  endfacet
  facet normal -0.951053 -0.309029 0
    outer loop
      vertex 18.2709 8.13473 9
      vertex 19.563 4.15823 -9
      vertex 19.563 4.15823 9
    endloop
  endfacet
  facet normal -0.994523 -0.104517 0
    outer loop
      vertex 20 0 -9
      vertex 19.563 4.15823 9
      vertex 19.563 4.15823 -9
    endloop
  endfacet
  facet normal -0.994523 -0.104517 0
    outer loop
      vertex 19.563 4.15823 9
      vertex 20 0 -9
      vertex 20 0 9
    endloop
  endfacet
  facet normal -0.866022 -0.500006 0
    outer loop
      vertex 18.2709 8.13473 -9
      vertex 16.1803 11.7557 9
      vertex 16.1803 11.7557 -9
    endloop
  endfacet
  facet normal -0.866022 -0.500006 0
    outer loop
      vertex 16.1803 11.7557 9
      vertex 18.2709 8.13473 -9
      vertex 18.2709 8.13473 9
    endloop
  endfacet
  facet normal -0.951053 0.309029 0
    outer loop
      vertex 18.2709 -8.13473 -9
      vertex 19.563 -4.15823 9
      vertex 19.563 -4.15823 -9
    endloop
  endfacet
  facet normal -0.951053 0.309029 0
    outer loop
      vertex 19.563 -4.15823 9
      vertex 18.2709 -8.13473 -9
      vertex 18.2709 -8.13473 9
    endloop
  endfacet
  facet normal -0.743167 0.669106 0
    outer loop
      vertex 15.5 -12.5113 -9
      vertex 16.1803 -11.7557 9
      vertex 16.1803 -11.7557 -9
    endloop
  endfacet
  facet normal -0.743167 0.669106 0
    outer loop
      vertex 16.1803 -11.7557 9
      vertex 15.5 -12.5113 -9
      vertex 15.5 -12.5113 9
    endloop
  endfacet
  facet normal -0.994523 0.104517 0
    outer loop
      vertex 19.563 -4.15823 -9
      vertex 20 0 9
      vertex 20 0 -9
    endloop
  endfacet
  facet normal -0.994523 0.104517 0
    outer loop
      vertex 20 0 9
      vertex 19.563 -4.15823 -9
      vertex 19.563 -4.15823 9
    endloop
  endfacet
  facet normal -0.743167 -0.669106 0
    outer loop
      vertex 16.1803 11.7557 -9
      vertex 15.5 12.5113 9
      vertex 15.5 12.5113 -9
    endloop
  endfacet
  facet normal -0.743167 -0.669106 0
    outer loop
      vertex 15.5 12.5113 9
      vertex 16.1803 11.7557 -9
      vertex 16.1803 11.7557 9
    endloop
  endfacet
  facet normal -0.866022 0.500006 0
    outer loop
      vertex 16.1803 -11.7557 -9
      vertex 18.2709 -8.13473 9
      vertex 18.2709 -8.13473 -9
    endloop
  endfacet
  facet normal -0.866022 0.500006 0
    outer loop
      vertex 18.2709 -8.13473 9
      vertex 16.1803 -11.7557 -9
      vertex 16.1803 -11.7557 9
    endloop
  endfacet
  facet normal -0.6548 0.755802 0
    outer loop
      vertex 3.09161 -31.9869 2.03
      vertex 3.09161 -31.9869 -0.4
      vertex 2.41499 -32.5731 2.03
    endloop
  endfacet
  facet normal -0.654885 0.755729 0
    outer loop
      vertex 2.41499 -32.5731 2.03
      vertex 1.52665 -33.3429 3.4
      vertex 2.41499 -32.5731 3.4
    endloop
  endfacet
  facet normal -0.654848 0.75576 -2.32854e-05
    outer loop
      vertex 1.52665 -33.3429 -0.4
      vertex 2.41499 -32.5731 2.03
      vertex 3.09161 -31.9869 -0.4
    endloop
  endfacet
  facet normal -0.654885 0.755729 0
    outer loop
      vertex 2.41499 -32.5731 2.03
      vertex 1.52665 -33.3429 -0.4
      vertex 1.52665 -33.3429 3.4
    endloop
  endfacet
  facet normal -0.959495 0.281725 0
    outer loop
      vertex 3.09161 -31.9869 -0.4
      vertex 3.675 -30 2.03
      vertex 3.675 -30 -0.4
    endloop
  endfacet
  facet normal -0.959495 0.281725 0
    outer loop
      vertex 3.675 -30 2.03
      vertex 3.09161 -31.9869 -0.4
      vertex 3.09161 -31.9869 2.03
    endloop
  endfacet
  facet normal -0.142317 0.989821 0
    outer loop
      vertex 1.52665 -33.3429 -0.4
      vertex -0.523006 -33.6376 3.4
      vertex 1.52665 -33.3429 3.4
    endloop
  endfacet
  facet normal -0.142317 0.989821 0
    outer loop
      vertex -0.523006 -33.6376 3.4
      vertex 1.52665 -33.3429 -0.4
      vertex -0.523006 -33.6376 -0.4
    endloop
  endfacet
  facet normal 0.41541 0.909634 -0
    outer loop
      vertex -0.523006 -33.6376 -0.4
      vertex -2.40661 -32.7774 3.4
      vertex -0.523006 -33.6376 3.4
    endloop
  endfacet
  facet normal 0.41541 0.909634 0
    outer loop
      vertex -2.40661 -32.7774 3.4
      vertex -0.523006 -33.6376 -0.4
      vertex -2.40661 -32.7774 -0.4
    endloop
  endfacet
  facet normal 1 -0 0
    outer loop
      vertex -3.52614 -31.0354 3.4
      vertex -3.52614 -28.9646 -0.4
      vertex -3.52614 -28.9646 3.4
    endloop
  endfacet
  facet normal 1 0 0
    outer loop
      vertex -3.52614 -28.9646 -0.4
      vertex -3.52614 -31.0354 3.4
      vertex -3.52614 -31.0354 -0.4
    endloop
  endfacet
  facet normal -0.142317 -0.989821 0
    outer loop
      vertex -0.523006 -26.3624 -0.4
      vertex 1.52665 -26.6571 3.4
      vertex -0.523006 -26.3624 3.4
    endloop
  endfacet
  facet normal -0.142317 -0.989821 -0
    outer loop
      vertex 1.52665 -26.6571 3.4
      vertex -0.523006 -26.3624 -0.4
      vertex 1.52665 -26.6571 -0.4
    endloop
  endfacet
  facet normal -0.654885 -0.755729 0
    outer loop
      vertex 1.52665 -26.6571 3.4
      vertex 2.41499 -27.4269 2.03
      vertex 2.41499 -27.4269 3.4
    endloop
  endfacet
  facet normal -0.654885 -0.755729 0
    outer loop
      vertex 1.52665 -26.6571 -0.4
      vertex 2.41499 -27.4269 2.03
      vertex 1.52665 -26.6571 3.4
    endloop
  endfacet
  facet normal -0.654848 -0.75576 -2.32854e-05
    outer loop
      vertex 3.09161 -28.0131 -0.4
      vertex 2.41499 -27.4269 2.03
      vertex 1.52665 -26.6571 -0.4
    endloop
  endfacet
  facet normal -0.6548 -0.755802 0
    outer loop
      vertex 2.41499 -27.4269 2.03
      vertex 3.09161 -28.0131 -0.4
      vertex 3.09161 -28.0131 2.03
    endloop
  endfacet
  facet normal 0.84125 -0.540646 0
    outer loop
      vertex -3.52614 -28.9646 3.4
      vertex -2.40661 -27.2226 -0.4
      vertex -2.40661 -27.2226 3.4
    endloop
  endfacet
  facet normal 0.84125 -0.540646 0
    outer loop
      vertex -2.40661 -27.2226 -0.4
      vertex -3.52614 -28.9646 3.4
      vertex -3.52614 -28.9646 -0.4
    endloop
  endfacet
  facet normal -0.959495 -0.281725 0
    outer loop
      vertex 3.675 -30 -0.4
      vertex 3.09161 -28.0131 2.03
      vertex 3.09161 -28.0131 -0.4
    endloop
  endfacet
  facet normal -0.959495 -0.281725 0
    outer loop
      vertex 3.09161 -28.0131 2.03
      vertex 3.675 -30 -0.4
      vertex 3.675 -30 2.03
    endloop
  endfacet
  facet normal 0.84125 0.540646 0
    outer loop
      vertex -2.40661 -32.7774 3.4
      vertex -3.52614 -31.0354 -0.4
      vertex -3.52614 -31.0354 3.4
    endloop
  endfacet
  facet normal 0.84125 0.540646 0
    outer loop
      vertex -3.52614 -31.0354 -0.4
      vertex -2.40661 -32.7774 3.4
      vertex -2.40661 -32.7774 -0.4
    endloop
  endfacet
  facet normal 0.41541 -0.909634 0
    outer loop
      vertex -2.40661 -27.2226 -0.4
      vertex -0.523006 -26.3624 3.4
      vertex -2.40661 -27.2226 3.4
    endloop
  endfacet
  facet normal 0.41541 -0.909634 0
    outer loop
      vertex -0.523006 -26.3624 3.4
      vertex -2.40661 -27.2226 -0.4
      vertex -0.523006 -26.3624 -0.4
    endloop
  endfacet
  facet normal -0.222564 0.974918 0
    outer loop
      vertex 16.0093 -31.6418 2.135
      vertex 14.7 -31.9407 3.4
      vertex 16.0093 -31.6418 3.4
    endloop
  endfacet
  facet normal -0.222564 0.974918 0
    outer loop
      vertex 14.7 -31.9407 3.4
      vertex 16.0093 -31.6418 2.135
      vertex 14.7 -31.9407 2.135
    endloop
  endfacet
  facet normal -0.900958 0.433906 0
    outer loop
      vertex 16.0093 -31.6418 2.135
      vertex 16.8 -30 3.4
      vertex 16.8 -30 2.135
    endloop
  endfacet
  facet normal -0.900958 0.433906 0
    outer loop
      vertex 16.8 -30 3.4
      vertex 16.0093 -31.6418 2.135
      vertex 16.0093 -31.6418 3.4
    endloop
  endfacet
  facet normal -0.900958 -0.433906 0
    outer loop
      vertex 16.8 -30 2.135
      vertex 16.0093 -28.3582 3.4
      vertex 16.0093 -28.3582 2.135
    endloop
  endfacet
  facet normal -0.900958 -0.433906 0
    outer loop
      vertex 16.0093 -28.3582 3.4
      vertex 16.8 -30 2.135
      vertex 16.8 -30 3.4
    endloop
  endfacet
  facet normal 0 0 1
    outer loop
      vertex 14.7 -28.0593 2.135
      vertex 16.8 -30 2.135
      vertex 16.0093 -28.3582 2.135
    endloop
  endfacet
  facet normal 0 0 1
    outer loop
      vertex 14.7 -31.9407 2.135
      vertex 16.8 -30 2.135
      vertex 14.7 -28.0593 2.135
    endloop
  endfacet
  facet normal 0 0 1
    outer loop
      vertex 16.8 -30 2.135
      vertex 14.7 -31.9407 2.135
      vertex 16.0093 -31.6418 2.135
    endloop
  endfacet
  facet normal -0.222564 -0.974918 0
    outer loop
      vertex 14.7 -28.0593 2.135
      vertex 16.0093 -28.3582 3.4
      vertex 14.7 -28.0593 3.4
    endloop
  endfacet
  facet normal -0.222564 -0.974918 -0
    outer loop
      vertex 16.0093 -28.3582 3.4
      vertex 14.7 -28.0593 2.135
      vertex 16.0093 -28.3582 2.135
    endloop
  endfacet
  facet normal -0.05547 0.99846 0
    outer loop
      vertex 14.7 -32.1 2.03
      vertex 2.41499 -32.7825 3.4
      vertex 14.7 -32.1 3.4
    endloop
  endfacet
  facet normal -0.05547 0.99846 0
    outer loop
      vertex 2.41499 -32.7825 3.4
      vertex 14.7 -32.1 2.03
      vertex 2.41499 -32.7825 2.03
    endloop
  endfacet
  facet normal 0 0 1
    outer loop
      vertex 14.7 -27.9 2.03
      vertex 3.675 -30 2.03
      vertex 14.7 -32.1 2.03
    endloop
  endfacet
  facet normal 0 0 1
    outer loop
      vertex 14.7 -27.9 2.03
      vertex 3.09161 -28.0131 2.03
      vertex 3.675 -30 2.03
    endloop
  endfacet
  facet normal 0 0 1
    outer loop
      vertex 2.41499 -27.2175 2.03
      vertex 3.09161 -28.0131 2.03
      vertex 14.7 -27.9 2.03
    endloop
  endfacet
  facet normal 0 0 1
    outer loop
      vertex 3.09161 -28.0131 2.03
      vertex 2.41499 -27.2175 2.03
      vertex 2.41499 -27.4269 2.03
    endloop
  endfacet
  facet normal -0 0 1
    outer loop
      vertex 3.09161 -31.9869 2.03
      vertex 14.7 -32.1 2.03
      vertex 3.675 -30 2.03
    endloop
  endfacet
  facet normal 0 0 1
    outer loop
      vertex 2.41499 -32.7825 2.03
      vertex 3.09161 -31.9869 2.03
      vertex 2.41499 -32.5731 2.03
    endloop
  endfacet
  facet normal 0 0 1
    outer loop
      vertex 3.09161 -31.9869 2.03
      vertex 2.41499 -32.7825 2.03
      vertex 14.7 -32.1 2.03
    endloop
  endfacet
  facet normal -1 0 0
    outer loop
      vertex 14.7 -27.9 2.03
      vertex 14.7 -28.0593 2.135
      vertex 14.7 -27.9 3.4
    endloop
  endfacet
  facet normal -1 0 0
    outer loop
      vertex 14.7 -27.9 2.03
      vertex 14.7 -31.9407 2.135
      vertex 14.7 -28.0593 2.135
    endloop
  endfacet
  facet normal -1 0 0
    outer loop
      vertex 14.7 -32.1 2.03
      vertex 14.7 -31.9407 2.135
      vertex 14.7 -27.9 2.03
    endloop
  endfacet
  facet normal -1 0 0
    outer loop
      vertex 14.7 -32.1 3.4
      vertex 14.7 -31.9407 2.135
      vertex 14.7 -32.1 2.03
    endloop
  endfacet
  facet normal -1 0 0
    outer loop
      vertex 14.7 -31.9407 2.135
      vertex 14.7 -32.1 3.4
      vertex 14.7 -31.9407 3.4
    endloop
  endfacet
  facet normal -1 -0 0
    outer loop
      vertex 14.7 -27.9 3.4
      vertex 14.7 -28.0593 2.135
      vertex 14.7 -28.0593 3.4
    endloop
  endfacet
  facet normal 1 -0 0
    outer loop
      vertex 2.41499 -27.4269 3.4
      vertex 2.41499 -27.2175 2.03
      vertex 2.41499 -27.2175 3.4
    endloop
  endfacet
  facet normal 1 0 0
    outer loop
      vertex 2.41499 -27.2175 2.03
      vertex 2.41499 -27.4269 3.4
      vertex 2.41499 -27.4269 2.03
    endloop
  endfacet
  facet normal 1 -0 0
    outer loop
      vertex 2.41499 -32.7825 3.4
      vertex 2.41499 -32.5731 2.03
      vertex 2.41499 -32.5731 3.4
    endloop
  endfacet
  facet normal 1 0 0
    outer loop
      vertex 2.41499 -32.5731 2.03
      vertex 2.41499 -32.7825 3.4
      vertex 2.41499 -32.7825 2.03
    endloop
  endfacet
  facet normal -0.05547 -0.99846 0
    outer loop
      vertex 2.41499 -27.2175 2.03
      vertex 14.7 -27.9 3.4
      vertex 2.41499 -27.2175 3.4
    endloop
  endfacet
  facet normal -0.05547 -0.99846 -0
    outer loop
      vertex 14.7 -27.9 3.4
      vertex 2.41499 -27.2175 2.03
      vertex 14.7 -27.9 2.03
    endloop
  endfacet
  facet normal 1 -0 0
    outer loop
      vertex 20 -35 3.4
      vertex 20 -13.096 -0.4
      vertex 20 -13.096 3.4
    endloop
  endfacet
  facet normal 1 0 0
    outer loop
      vertex 20 -13.096 -0.4
      vertex 20 -35 3.4
      vertex 20 -35 -0.4
    endloop
  endfacet
  facet normal 0 0 1
    outer loop
      vertex 2.41499 -32.5731 3.4
      vertex 1.52665 -33.3429 3.4
      vertex 2.41499 -32.7825 3.4
    endloop
  endfacet
  facet normal -0 0 1
    outer loop
      vertex 12 -20.7846 3.4
      vertex 14.7 -27.9 3.4
      vertex 15 -18.605 3.4
    endloop
  endfacet
  facet normal -0 0 1
    outer loop
      vertex 7.41641 -22.8254 3.4
      vertex 14.7 -27.9 3.4
      vertex 12 -20.7846 3.4
    endloop
  endfacet
  facet normal 0 0 1
    outer loop
      vertex 2.41499 -27.2175 3.4
      vertex 7.41641 -22.8254 3.4
      vertex 2.50868 -23.8685 3.4
    endloop
  endfacet
  facet normal 0 0 1
    outer loop
      vertex 7.41641 -22.8254 3.4
      vertex 2.41499 -27.2175 3.4
      vertex 14.7 -27.9 3.4
    endloop
  endfacet
  facet normal 0 0 1
    outer loop
      vertex 2.41499 -27.2175 3.4
      vertex 1.52665 -26.6571 3.4
      vertex 2.41499 -27.4269 3.4
    endloop
  endfacet
  facet normal 0 0 1
    outer loop
      vertex 2.50868 -23.8685 3.4
      vertex 1.52665 -26.6571 3.4
      vertex 2.41499 -27.2175 3.4
    endloop
  endfacet
  facet normal 0 0 1
    outer loop
      vertex 0 -25.0199 3.4
      vertex 2.50868 -23.8685 3.4
      vertex 0 -23.8685 3.4
    endloop
  endfacet
  facet normal 0 0 1
    outer loop
      vertex 2.50868 -23.8685 3.4
      vertex 0 -25.0199 3.4
      vertex 1.52665 -26.6571 3.4
    endloop
  endfacet
  facet normal 0 0 1
    outer loop
      vertex -0.523006 -26.3624 3.4
      vertex 0 -25.0199 3.4
      vertex -0.0999994 -25 3.4
    endloop
  endfacet
  facet normal 0 0 1
    outer loop
      vertex 0 -25.0199 3.4
      vertex -0.523006 -26.3624 3.4
      vertex 1.52665 -26.6571 3.4
    endloop
  endfacet
  facet normal -0 0 1
    outer loop
      vertex -2.01342 -25.3806 3.4
      vertex -0.523006 -26.3624 3.4
      vertex -0.0999994 -25 3.4
    endloop
  endfacet
  facet normal 0 0 1
    outer loop
      vertex -2.01342 -25.3806 3.4
      vertex -2.40661 -27.2226 3.4
      vertex -0.523006 -26.3624 3.4
    endloop
  endfacet
  facet normal -0 0 1
    outer loop
      vertex -3.63553 -26.4645 3.4
      vertex -2.40661 -27.2226 3.4
      vertex -2.01342 -25.3806 3.4
    endloop
  endfacet
  facet normal 0 0 1
    outer loop
      vertex -2.40661 -27.2226 3.4
      vertex -4.7194 -28.0866 3.4
      vertex -3.52614 -28.9646 3.4
    endloop
  endfacet
  facet normal 0 0 1
    outer loop
      vertex -4.7194 -28.0866 3.4
      vertex -2.40661 -27.2226 3.4
      vertex -3.63553 -26.4645 3.4
    endloop
  endfacet
  facet normal 0 0 1
    outer loop
      vertex 16.0093 -28.3582 3.4
      vertex 19.4164 -14.1068 3.4
      vertex 16.0591 -17.8355 3.4
    endloop
  endfacet
  facet normal 0 0 1
    outer loop
      vertex 19.4164 -14.1068 3.4
      vertex 16.0093 -28.3582 3.4
      vertex 16.8 -30 3.4
    endloop
  endfacet
  facet normal -0 0 1
    outer loop
      vertex 15 -18.605 3.4
      vertex 16.0093 -28.3582 3.4
      vertex 16.0591 -17.8355 3.4
    endloop
  endfacet
  facet normal -0 0 1
    outer loop
      vertex 14.7 -27.9 3.4
      vertex 16.0093 -28.3582 3.4
      vertex 15 -18.605 3.4
    endloop
  endfacet
  facet normal 0 0 1
    outer loop
      vertex 16.0093 -28.3582 3.4
      vertex 14.7 -27.9 3.4
      vertex 14.7 -28.0593 3.4
    endloop
  endfacet
  facet normal -0 0 1
    outer loop
      vertex 19.4164 -14.1068 3.4
      vertex 20 -35 3.4
      vertex 20 -13.096 3.4
    endloop
  endfacet
  facet normal -0 0 1
    outer loop
      vertex 16.8 -30 3.4
      vertex 20 -35 3.4
      vertex 19.4164 -14.1068 3.4
    endloop
  endfacet
  facet normal -0 0 1
    outer loop
      vertex 16.0093 -31.6418 3.4
      vertex 20 -35 3.4
      vertex 16.8 -30 3.4
    endloop
  endfacet
  facet normal 0 0 1
    outer loop
      vertex 14.7 -32.1 3.4
      vertex 16.0093 -31.6418 3.4
      vertex 14.7 -31.9407 3.4
    endloop
  endfacet
  facet normal 0 0 1
    outer loop
      vertex 16.0093 -31.6418 3.4
      vertex 14.7 -32.1 3.4
      vertex 20 -35 3.4
    endloop
  endfacet
  facet normal 0 0 1
    outer loop
      vertex 0 -35 3.4
      vertex 14.7 -32.1 3.4
      vertex 2.41499 -32.7825 3.4
    endloop
  endfacet
  facet normal 0 0 1
    outer loop
      vertex 0 -35 3.4
      vertex 2.41499 -32.7825 3.4
      vertex 1.52665 -33.3429 3.4
    endloop
  endfacet
  facet normal 0 0 1
    outer loop
      vertex 0 -35 3.4
      vertex 1.52665 -33.3429 3.4
      vertex 0 -34.9801 3.4
    endloop
  endfacet
  facet normal 0 0 1
    outer loop
      vertex 14.7 -32.1 3.4
      vertex 0 -35 3.4
      vertex 20 -35 3.4
    endloop
  endfacet
  facet normal -0 0 1
    outer loop
      vertex -0.523006 -33.6376 3.4
      vertex 0 -34.9801 3.4
      vertex 1.52665 -33.3429 3.4
    endloop
  endfacet
  facet normal 0 0 1
    outer loop
      vertex 0 -34.9801 3.4
      vertex -0.523006 -33.6376 3.4
      vertex -0.0999994 -35 3.4
    endloop
  endfacet
  facet normal 0 0 1
    outer loop
      vertex -0.523006 -33.6376 3.4
      vertex -2.01342 -34.6194 3.4
      vertex -0.0999994 -35 3.4
    endloop
  endfacet
  facet normal 0 0 1
    outer loop
      vertex -2.40661 -32.7774 3.4
      vertex -2.01342 -34.6194 3.4
      vertex -0.523006 -33.6376 3.4
    endloop
  endfacet
  facet normal -0 0 1
    outer loop
      vertex -4.7194 -31.9134 3.4
      vertex -2.40661 -32.7774 3.4
      vertex -3.52614 -31.0354 3.4
    endloop
  endfacet
  facet normal 0 0 1
    outer loop
      vertex -2.40661 -32.7774 3.4
      vertex -3.63553 -33.5355 3.4
      vertex -2.01342 -34.6194 3.4
    endloop
  endfacet
  facet normal 0 0 1
    outer loop
      vertex -5.1 -30 3.4
      vertex -3.52614 -28.9646 3.4
      vertex -4.7194 -28.0866 3.4
    endloop
  endfacet
  facet normal 0 0 1
    outer loop
      vertex -3.52614 -28.9646 3.4
      vertex -5.1 -30 3.4
      vertex -3.52614 -31.0354 3.4
    endloop
  endfacet
  facet normal 0 0 1
    outer loop
      vertex -2.40661 -32.7774 3.4
      vertex -4.7194 -31.9134 3.4
      vertex -3.63553 -33.5355 3.4
    endloop
  endfacet
  facet normal 0 0 1
    outer loop
      vertex -3.52614 -31.0354 3.4
      vertex -5.1 -30 3.4
      vertex -4.7194 -31.9134 3.4
    endloop
  endfacet
  facet normal 0 0 -1
    outer loop
      vertex -0.523006 -26.3624 -0.4
      vertex 0 -25.0199 -0.4
      vertex 1.52665 -26.6571 -0.4
    endloop
  endfacet
  facet normal -0 0 -1
    outer loop
      vertex 0 -25.0199 -0.4
      vertex -0.523006 -26.3624 -0.4
      vertex -0.0999994 -25 -0.4
    endloop
  endfacet
  facet normal 0 0 -1
    outer loop
      vertex -0.523006 -26.3624 -0.4
      vertex -2.01342 -25.3806 -0.4
      vertex -0.0999994 -25 -0.4
    endloop
  endfacet
  facet normal 0 0 -1
    outer loop
      vertex -2.40661 -27.2226 -0.4
      vertex -2.01342 -25.3806 -0.4
      vertex -0.523006 -26.3624 -0.4
    endloop
  endfacet
  facet normal 0 0 -1
    outer loop
      vertex -4.7194 -28.0866 -0.4
      vertex -2.40661 -27.2226 -0.4
      vertex -3.52614 -28.9646 -0.4
    endloop
  endfacet
  facet normal 0 0 -1
    outer loop
      vertex -2.40661 -27.2226 -0.4
      vertex -3.63553 -26.4645 -0.4
      vertex -2.01342 -25.3806 -0.4
    endloop
  endfacet
  facet normal 0 0 -1
    outer loop
      vertex -5.1 -30 -0.4
      vertex -3.52614 -31.0354 -0.4
      vertex -4.7194 -31.9134 -0.4
    endloop
  endfacet
  facet normal 0 0 -1
    outer loop
      vertex -3.52614 -31.0354 -0.4
      vertex -5.1 -30 -0.4
      vertex -3.52614 -28.9646 -0.4
    endloop
  endfacet
  facet normal -0 0 -1
    outer loop
      vertex -2.40661 -27.2226 -0.4
      vertex -4.7194 -28.0866 -0.4
      vertex -3.63553 -26.4645 -0.4
    endloop
  endfacet
  facet normal -0 0 -1
    outer loop
      vertex -3.52614 -28.9646 -0.4
      vertex -5.1 -30 -0.4
      vertex -4.7194 -28.0866 -0.4
    endloop
  endfacet
  facet normal 0 0 -1
    outer loop
      vertex 20 -35 -0.4
      vertex 19.4164 -14.1068 -0.4
      vertex 20 -13.096 -0.4
    endloop
  endfacet
  facet normal 0 0 -1
    outer loop
      vertex 20 -35 -0.4
      vertex 16.0591 -17.8355 -0.4
      vertex 19.4164 -14.1068 -0.4
    endloop
  endfacet
  facet normal 0 0 -1
    outer loop
      vertex 20 -35 -0.4
      vertex 15 -18.605 -0.4
      vertex 16.0591 -17.8355 -0.4
    endloop
  endfacet
  facet normal 0 0 -1
    outer loop
      vertex 20 -35 -0.4
      vertex 12 -20.7846 -0.4
      vertex 15 -18.605 -0.4
    endloop
  endfacet
  facet normal 0 0 -1
    outer loop
      vertex 20 -35 -0.4
      vertex 7.41641 -22.8254 -0.4
      vertex 12 -20.7846 -0.4
    endloop
  endfacet
  facet normal 0 0 -1
    outer loop
      vertex 20 -35 -0.4
      vertex 3.675 -30 -0.4
      vertex 7.41641 -22.8254 -0.4
    endloop
  endfacet
  facet normal 0 0 -1
    outer loop
      vertex 20 -35 -0.4
      vertex 3.09161 -31.9869 -0.4
      vertex 3.675 -30 -0.4
    endloop
  endfacet
  facet normal 0 0 -1
    outer loop
      vertex 20 -35 -0.4
      vertex 1.52665 -33.3429 -0.4
      vertex 3.09161 -31.9869 -0.4
    endloop
  endfacet
  facet normal 0 0 -1
    outer loop
      vertex 0 -35 -0.4
      vertex 1.52665 -33.3429 -0.4
      vertex 20 -35 -0.4
    endloop
  endfacet
  facet normal 0 0 -1
    outer loop
      vertex 0 -34.9801 -0.4
      vertex 1.52665 -33.3429 -0.4
      vertex 0 -35 -0.4
    endloop
  endfacet
  facet normal 0 0 -1
    outer loop
      vertex -0.523006 -33.6376 -0.4
      vertex 0 -34.9801 -0.4
      vertex -0.0999994 -35 -0.4
    endloop
  endfacet
  facet normal 0 0 -1
    outer loop
      vertex 0 -34.9801 -0.4
      vertex -0.523006 -33.6376 -0.4
      vertex 1.52665 -33.3429 -0.4
    endloop
  endfacet
  facet normal 0 0 -1
    outer loop
      vertex -2.01342 -34.6194 -0.4
      vertex -0.523006 -33.6376 -0.4
      vertex -0.0999994 -35 -0.4
    endloop
  endfacet
  facet normal 0 0 -1
    outer loop
      vertex -2.01342 -34.6194 -0.4
      vertex -2.40661 -32.7774 -0.4
      vertex -0.523006 -33.6376 -0.4
    endloop
  endfacet
  facet normal 0 0 -1
    outer loop
      vertex -3.63553 -33.5355 -0.4
      vertex -2.40661 -32.7774 -0.4
      vertex -2.01342 -34.6194 -0.4
    endloop
  endfacet
  facet normal 0 0 -1
    outer loop
      vertex -2.40661 -32.7774 -0.4
      vertex -4.7194 -31.9134 -0.4
      vertex -3.52614 -31.0354 -0.4
    endloop
  endfacet
  facet normal 0 0 -1
    outer loop
      vertex -4.7194 -31.9134 -0.4
      vertex -2.40661 -32.7774 -0.4
      vertex -3.63553 -33.5355 -0.4
    endloop
  endfacet
  facet normal 0 0 -1
    outer loop
      vertex 3.09161 -28.0131 -0.4
      vertex 7.41641 -22.8254 -0.4
      vertex 3.675 -30 -0.4
    endloop
  endfacet
  facet normal 0 0 -1
    outer loop
      vertex 3.09161 -28.0131 -0.4
      vertex 2.50868 -23.8685 -0.4
      vertex 7.41641 -22.8254 -0.4
    endloop
  endfacet
  facet normal 0 0 -1
    outer loop
      vertex 1.52665 -26.6571 -0.4
      vertex 2.50868 -23.8685 -0.4
      vertex 3.09161 -28.0131 -0.4
    endloop
  endfacet
  facet normal 0 0 -1
    outer loop
      vertex 0 -25.0199 -0.4
      vertex 2.50868 -23.8685 -0.4
      vertex 1.52665 -26.6571 -0.4
    endloop
  endfacet
  facet normal -0 0 -1
    outer loop
      vertex 2.50868 -23.8685 -0.4
      vertex 0 -25.0199 -0.4
      vertex 0 -23.8685 -0.4
    endloop
  endfacet
  facet normal -1 0 0
    outer loop
      vertex 0 -35 -0.4
      vertex 0 -34.9801 3.4
      vertex 0 -34.9801 -0.4
    endloop
  endfacet
  facet normal -1 -0 0
    outer loop
      vertex 0 -34.9801 3.4
      vertex 0 -35 -0.4
      vertex 0 -35 3.4
    endloop
  endfacet
  facet normal -1 0 0
    outer loop
      vertex 0 -25.0199 -0.4
      vertex 0 -23.8685 3.4
      vertex 0 -23.8685 -0.4
    endloop
  endfacet
  facet normal -1 -0 0
    outer loop
      vertex 0 -23.8685 3.4
      vertex 0 -25.0199 -0.4
      vertex 0 -25.0199 3.4
    endloop
  endfacet
  facet normal 0 -1 0
    outer loop
      vertex 0 -35 -0.4
      vertex 20 -35 3.4
      vertex 0 -35 3.4
    endloop
  endfacet
  facet normal 0 -1 -0
    outer loop
      vertex 20 -35 3.4
      vertex 0 -35 -0.4
      vertex 20 -35 -0.4
    endloop
  endfacet
  facet normal -0.555585 0.83146 0
    outer loop
      vertex -2.01342 -25.3806 -0.4
      vertex -3.63553 -26.4645 3.4
      vertex -2.01342 -25.3806 3.4
    endloop
  endfacet
  facet normal -0.555585 0.83146 0
    outer loop
      vertex -3.63553 -26.4645 3.4
      vertex -2.01342 -25.3806 -0.4
      vertex -3.63553 -26.4645 -0.4
    endloop
  endfacet
  facet normal 0.195174 -0.980769 0
    outer loop
      vertex -0.0999994 -35 -0.4
      vertex 0 -34.9801 3.4
      vertex -0.0999994 -35 3.4
    endloop
  endfacet
  facet normal 0.195174 -0.980769 0
    outer loop
      vertex 0 -34.9801 3.4
      vertex -0.0999994 -35 -0.4
      vertex 0 -34.9801 -0.4
    endloop
  endfacet
  facet normal -0.195089 0.980786 0
    outer loop
      vertex -0.0999994 -25 -0.4
      vertex -2.01342 -25.3806 3.4
      vertex -0.0999994 -25 3.4
    endloop
  endfacet
  facet normal -0.195089 0.980786 0
    outer loop
      vertex -2.01342 -25.3806 3.4
      vertex -0.0999994 -25 -0.4
      vertex -2.01342 -25.3806 -0.4
    endloop
  endfacet
  facet normal 0.195174 0.980769 -0
    outer loop
      vertex 0 -25.0199 -0.4
      vertex -0.0999994 -25 3.4
      vertex 0 -25.0199 3.4
    endloop
  endfacet
  facet normal 0.195174 0.980769 0
    outer loop
      vertex -0.0999994 -25 3.4
      vertex 0 -25.0199 -0.4
      vertex -0.0999994 -25 -0.4
    endloop
  endfacet
  facet normal -0.980785 0.195091 0
    outer loop
      vertex -5.1 -30 -0.4
      vertex -4.7194 -28.0866 3.4
      vertex -4.7194 -28.0866 -0.4
    endloop
  endfacet
  facet normal -0.980785 0.195091 0
    outer loop
      vertex -4.7194 -28.0866 3.4
      vertex -5.1 -30 -0.4
      vertex -5.1 -30 3.4
    endloop
  endfacet
  facet normal -0.831465 -0.555576 0
    outer loop
      vertex -3.63553 -33.5355 -0.4
      vertex -4.7194 -31.9134 3.4
      vertex -4.7194 -31.9134 -0.4
    endloop
  endfacet
  facet normal -0.831465 -0.555576 0
    outer loop
      vertex -4.7194 -31.9134 3.4
      vertex -3.63553 -33.5355 -0.4
      vertex -3.63553 -33.5355 3.4
    endloop
  endfacet
  facet normal -0.980785 -0.195091 0
    outer loop
      vertex -4.7194 -31.9134 -0.4
      vertex -5.1 -30 3.4
      vertex -5.1 -30 -0.4
    endloop
  endfacet
  facet normal -0.980785 -0.195091 0
    outer loop
      vertex -5.1 -30 3.4
      vertex -4.7194 -31.9134 -0.4
      vertex -4.7194 -31.9134 3.4
    endloop
  endfacet
  facet normal -0.195089 -0.980786 0
    outer loop
      vertex -2.01342 -34.6194 -0.4
      vertex -0.0999994 -35 3.4
      vertex -2.01342 -34.6194 3.4
    endloop
  endfacet
  facet normal -0.195089 -0.980786 -0
    outer loop
      vertex -0.0999994 -35 3.4
      vertex -2.01342 -34.6194 -0.4
      vertex -0.0999994 -35 -0.4
    endloop
  endfacet
  facet normal -0.831465 0.555576 0
    outer loop
      vertex -4.7194 -28.0866 -0.4
      vertex -3.63553 -26.4645 3.4
      vertex -3.63553 -26.4645 -0.4
    endloop
  endfacet
  facet normal -0.831465 0.555576 0
    outer loop
      vertex -3.63553 -26.4645 3.4
      vertex -4.7194 -28.0866 -0.4
      vertex -4.7194 -28.0866 3.4
    endloop
  endfacet
  facet normal -0.555585 -0.83146 0
    outer loop
      vertex -3.63553 -33.5355 -0.4
      vertex -2.01342 -34.6194 3.4
      vertex -3.63553 -33.5355 3.4
    endloop
  endfacet
  facet normal -0.555585 -0.83146 -0
    outer loop
      vertex -2.01342 -34.6194 3.4
      vertex -3.63553 -33.5355 -0.4
      vertex -2.01342 -34.6194 -0.4
    endloop
  endfacet
  facet normal 0 1 -0
    outer loop
      vertex 2.50868 -23.8685 -0.4
      vertex 0 -23.8685 3.4
      vertex 2.50868 -23.8685 3.4
    endloop
  endfacet
  facet normal 0 1 0
    outer loop
      vertex 0 -23.8685 3.4
      vertex 2.50868 -23.8685 -0.4
      vertex 0 -23.8685 -0.4
    endloop
  endfacet
  facet normal -0.406746 0.913541 0
    outer loop
      vertex 12 -20.7846 -0.4
      vertex 7.41641 -22.8254 3.4
      vertex 12 -20.7846 3.4
    endloop
  endfacet
  facet normal -0.406746 0.913541 0
    outer loop
      vertex 7.41641 -22.8254 3.4
      vertex 12 -20.7846 -0.4
      vertex 7.41641 -22.8254 -0.4
    endloop
  endfacet
  facet normal -0.207898 0.97815 0
    outer loop
      vertex 7.41641 -22.8254 -0.4
      vertex 2.50868 -23.8685 3.4
      vertex 7.41641 -22.8254 3.4
    endloop
  endfacet
  facet normal -0.207898 0.97815 0
    outer loop
      vertex 2.50868 -23.8685 3.4
      vertex 7.41641 -22.8254 -0.4
      vertex 2.50868 -23.8685 -0.4
    endloop
  endfacet
endsolid OpenSCAD_Model
