solid OpenSCAD_Model
  facet normal 1 -0 0
    outer loop
      vertex -8 -11.5 68
      vertex -8 15.5 44.5
      vertex -8 15.5 68
    endloop
  endfacet
  facet normal 1 0 0
    outer loop
      vertex -8 15.5 44.5
      vertex -8 -11.5 68
      vertex -8 -11.5 44.5
    endloop
  endfacet
  facet normal 0 0 1
    outer loop
      vertex -31 -8.5 59.5
      vertex -32 -9.5 59.5
      vertex -31 -9.5 59.5
    endloop
  endfacet
  facet normal -0 0 1
    outer loop
      vertex -31 -9.5 59.5
      vertex -18 -11.5 59.5
      vertex -18 -9.5 59.5
    endloop
  endfacet
  facet normal 0 0 1
    outer loop
      vertex -32 -11.5 59.5
      vertex -31 -9.5 59.5
      vertex -32 -9.5 59.5
    endloop
  endfacet
  facet normal 0 0 1
    outer loop
      vertex -31 -9.5 59.5
      vertex -32 -11.5 59.5
      vertex -18 -11.5 59.5
    endloop
  endfacet
  facet normal 0 0 1
    outer loop
      vertex -18 15.5 59.5
      vertex -31 13.5 59.5
      vertex -18 13.5 59.5
    endloop
  endfacet
  facet normal -0 0 1
    outer loop
      vertex -32 15.5 59.5
      vertex -31 13.5 59.5
      vertex -18 15.5 59.5
    endloop
  endfacet
  facet normal 0 0 1
    outer loop
      vertex -32 13.5 59.5
      vertex -31 13.5 59.5
      vertex -32 15.5 59.5
    endloop
  endfacet
  facet normal 0 0 1
    outer loop
      vertex -31 13.5 59.5
      vertex -32 13.5 59.5
      vertex -31 12.5 59.5
    endloop
  endfacet
  facet normal 0 0 -1
    outer loop
      vertex -31 12.5 44.5
      vertex -32 13.5 44.5
      vertex -31 13.5 44.5
    endloop
  endfacet
  facet normal 0 0 -1
    outer loop
      vertex -18 13.5 44.5
      vertex -8 -11.5 44.5
      vertex -18 -11.5 44.5
    endloop
  endfacet
  facet normal 0 0 -1
    outer loop
      vertex -8 -11.5 44.5
      vertex -18 13.5 44.5
      vertex -8 15.5 44.5
    endloop
  endfacet
  facet normal 0 0 -1
    outer loop
      vertex -32 15.5 44.5
      vertex -18 13.5 44.5
      vertex -31 13.5 44.5
    endloop
  endfacet
  facet normal 0 0 -1
    outer loop
      vertex -32 15.5 44.5
      vertex -31 13.5 44.5
      vertex -32 13.5 44.5
    endloop
  endfacet
  facet normal 0 0 -1
    outer loop
      vertex -18 13.5 44.5
      vertex -32 15.5 44.5
      vertex -8 15.5 44.5
    endloop
  endfacet
  facet normal -1 0 0
    outer loop
      vertex -32 -11.5 49.5
      vertex -32 -9.5 59.5
      vertex -32 -9.5 49.5
    endloop
  endfacet
  facet normal -1 -0 0
    outer loop
      vertex -32 -9.5 59.5
      vertex -32 -11.5 49.5
      vertex -32 -11.5 59.5
    endloop
  endfacet
  facet normal -1 0 0
    outer loop
      vertex -32 13.5 44.5
      vertex -32 15.5 59.5
      vertex -32 15.5 44.5
    endloop
  endfacet
  facet normal -1 -0 0
    outer loop
      vertex -32 15.5 59.5
      vertex -32 13.5 44.5
      vertex -32 13.5 59.5
    endloop
  endfacet
  facet normal 0 1 0
    outer loop
      vertex -8 15.5 68
      vertex -18 15.5 59.5
      vertex -18 15.5 68
    endloop
  endfacet
  facet normal 0 1 -0
    outer loop
      vertex -8 15.5 44.5
      vertex -18 15.5 59.5
      vertex -8 15.5 68
    endloop
  endfacet
  facet normal 0 1 0
    outer loop
      vertex -32 15.5 44.5
      vertex -18 15.5 59.5
      vertex -8 15.5 44.5
    endloop
  endfacet
  facet normal 0 1 0
    outer loop
      vertex -18 15.5 59.5
      vertex -32 15.5 44.5
      vertex -32 15.5 59.5
    endloop
  endfacet
  facet normal 0 -1 0
    outer loop
      vertex -32 -11.5 59.5
      vertex -32 -11.5 49.5
      vertex -18 -11.5 59.5
    endloop
  endfacet
  facet normal 0 -1 0
    outer loop
      vertex -18 -11.5 59.5
      vertex -8 -11.5 68
      vertex -18 -11.5 68
    endloop
  endfacet
  facet normal 0 -1 0
    outer loop
      vertex -18 -11.5 49.5
      vertex -18 -11.5 59.5
      vertex -32 -11.5 49.5
    endloop
  endfacet
  facet normal 0 -1 0
    outer loop
      vertex -8 -11.5 44.5
      vertex -18 -11.5 59.5
      vertex -18 -11.5 49.5
    endloop
  endfacet
  facet normal 0 -1 0
    outer loop
      vertex -8 -11.5 44.5
      vertex -18 -11.5 49.5
      vertex -18 -11.5 44.5
    endloop
  endfacet
  facet normal 0 -1 0
    outer loop
      vertex -18 -11.5 59.5
      vertex -8 -11.5 44.5
      vertex -8 -11.5 68
    endloop
  endfacet
  facet normal 1 -0 0
    outer loop
      vertex -9 5.5 69
      vertex -9 12.5 68
      vertex -9 12.5 69
    endloop
  endfacet
  facet normal 1 0 0
    outer loop
      vertex -9 12.5 68
      vertex -9 5.5 69
      vertex -9 5.5 68
    endloop
  endfacet
  facet normal -0 0 1
    outer loop
      vertex -31 12.5 69
      vertex -9 5.5 69
      vertex -9 12.5 69
    endloop
  endfacet
  facet normal 0 0 1
    outer loop
      vertex -9 5.5 69
      vertex -31 12.5 69
      vertex -31 5.5 69
    endloop
  endfacet
  facet normal 0 0 -1
    outer loop
      vertex -30 5.5 67
      vertex -18 12.5 67
      vertex -18 5.5 67
    endloop
  endfacet
  facet normal -0 0 -1
    outer loop
      vertex -18 12.5 67
      vertex -30 5.5 67
      vertex -30 12.5 67
    endloop
  endfacet
  facet normal -1 0 0
    outer loop
      vertex -31 5.5 67
      vertex -31 12.5 69
      vertex -31 12.5 67
    endloop
  endfacet
  facet normal -1 -0 0
    outer loop
      vertex -31 12.5 69
      vertex -31 5.5 67
      vertex -31 5.5 69
    endloop
  endfacet
  facet normal 0 1 0
    outer loop
      vertex -18 12.5 68
      vertex -9 12.5 69
      vertex -9 12.5 68
    endloop
  endfacet
  facet normal 0 1 0
    outer loop
      vertex -9 12.5 69
      vertex -18 12.5 68
      vertex -31 12.5 69
    endloop
  endfacet
  facet normal 0 1 0
    outer loop
      vertex -30 12.5 67
      vertex -18 12.5 68
      vertex -18 12.5 67
    endloop
  endfacet
  facet normal 0 1 0
    outer loop
      vertex -18 12.5 68
      vertex -30 12.5 67
      vertex -31 12.5 69
    endloop
  endfacet
  facet normal 0 1 0
    outer loop
      vertex -30 12.5 67
      vertex -31 12.5 67
      vertex -31 12.5 69
    endloop
  endfacet
  facet normal -0 1 0
    outer loop
      vertex -31 12.5 67
      vertex -30 12.5 67
      vertex -30 12.5 66
    endloop
  endfacet
  facet normal 0 -1 0
    outer loop
      vertex -31 5.5 67
      vertex -30 5.5 66
      vertex -30 5.5 67
    endloop
  endfacet
  facet normal 0 -1 0
    outer loop
      vertex -31 5.5 69
      vertex -18 5.5 68
      vertex -9 5.5 69
    endloop
  endfacet
  facet normal 0 -1 0
    outer loop
      vertex -30 5.5 67
      vertex -31 5.5 69
      vertex -31 5.5 67
    endloop
  endfacet
  facet normal 0 -1 0
    outer loop
      vertex -31 5.5 69
      vertex -30 5.5 67
      vertex -18 5.5 68
    endloop
  endfacet
  facet normal 0 -1 -0
    outer loop
      vertex -18 5.5 68
      vertex -30 5.5 67
      vertex -18 5.5 67
    endloop
  endfacet
  facet normal 0 -1 -0
    outer loop
      vertex -9 5.5 69
      vertex -18 5.5 68
      vertex -9 5.5 68
    endloop
  endfacet
  facet normal 0 -1 0
    outer loop
      vertex -31 13.5 44.5
      vertex -18 13.5 59.5
      vertex -31 13.5 59.5
    endloop
  endfacet
  facet normal 0 -1 -0
    outer loop
      vertex -18 13.5 59.5
      vertex -31 13.5 44.5
      vertex -18 13.5 44.5
    endloop
  endfacet
  facet normal 0 1 -0
    outer loop
      vertex -18 -9.5 49.5
      vertex -31 -9.5 59.5
      vertex -18 -9.5 59.5
    endloop
  endfacet
  facet normal 0 1 0
    outer loop
      vertex -31 -9.5 59.5
      vertex -18 -9.5 49.5
      vertex -31 -9.5 49.5
    endloop
  endfacet
  facet normal 0 0 -1
    outer loop
      vertex -18 -11.5 49.5
      vertex -31 -9.5 49.5
      vertex -18 -9.5 49.5
    endloop
  endfacet
  facet normal 0 0 -1
    outer loop
      vertex -32 -11.5 49.5
      vertex -31 -9.5 49.5
      vertex -18 -11.5 49.5
    endloop
  endfacet
  facet normal -0 0 -1
    outer loop
      vertex -31 -9.5 49.5
      vertex -32 -11.5 49.5
      vertex -32 -9.5 49.5
    endloop
  endfacet
  facet normal -0.707107 -0.707107 0
    outer loop
      vertex -31 12.5 44.5
      vertex -32 13.5 59.5
      vertex -32 13.5 44.5
    endloop
  endfacet
  facet normal -0.707107 -0.707107 0
    outer loop
      vertex -32 13.5 59.5
      vertex -31 12.5 44.5
      vertex -31 12.5 59.5
    endloop
  endfacet
  facet normal 1 -0 0
    outer loop
      vertex -31 12.5 59.5
      vertex -31 13.5 44.5
      vertex -31 13.5 59.5
    endloop
  endfacet
  facet normal 1 0 0
    outer loop
      vertex -31 13.5 44.5
      vertex -31 12.5 59.5
      vertex -31 12.5 44.5
    endloop
  endfacet
  facet normal 0 0 -1
    outer loop
      vertex -31 -9.5 49.5
      vertex -32 -9.5 49.5
      vertex -31 -8.5 49.5
    endloop
  endfacet
  facet normal 1 -0 0
    outer loop
      vertex -31 -9.5 59.5
      vertex -31 -8.5 49.5
      vertex -31 -8.5 59.5
    endloop
  endfacet
  facet normal 1 0 0
    outer loop
      vertex -31 -8.5 49.5
      vertex -31 -9.5 59.5
      vertex -31 -9.5 49.5
    endloop
  endfacet
  facet normal -0.707107 0.707107 0
    outer loop
      vertex -32 -9.5 49.5
      vertex -31 -8.5 59.5
      vertex -31 -8.5 49.5
    endloop
  endfacet
  facet normal -0.707107 0.707107 0
    outer loop
      vertex -31 -8.5 59.5
      vertex -32 -9.5 49.5
      vertex -32 -9.5 59.5
    endloop
  endfacet
  facet normal 1 -0 0
    outer loop
      vertex -30 5.5 67
      vertex -30 12.5 66
      vertex -30 12.5 67
    endloop
  endfacet
  facet normal 1 0 0
    outer loop
      vertex -30 12.5 66
      vertex -30 5.5 67
      vertex -30 5.5 66
    endloop
  endfacet
  facet normal -0.707107 0 -0.707107
    outer loop
      vertex -30 5.5 66
      vertex -31 12.5 67
      vertex -30 12.5 66
    endloop
  endfacet
  facet normal -0.707107 -0 -0.707107
    outer loop
      vertex -31 12.5 67
      vertex -30 5.5 66
      vertex -31 5.5 67
    endloop
  endfacet
  facet normal 0 0 1
    outer loop
      vertex -9 5.5 68
      vertex -8 15.5 68
      vertex -9 12.5 68
    endloop
  endfacet
  facet normal -0 0 1
    outer loop
      vertex -18 15.5 68
      vertex -9 12.5 68
      vertex -8 15.5 68
    endloop
  endfacet
  facet normal 0 0 1
    outer loop
      vertex -9 12.5 68
      vertex -18 15.5 68
      vertex -18 12.5 68
    endloop
  endfacet
  facet normal 0 0 1
    outer loop
      vertex -8 15.5 68
      vertex -9 5.5 68
      vertex -8 -11.5 68
    endloop
  endfacet
  facet normal 0 0 1
    outer loop
      vertex -18 -11.5 68
      vertex -9 5.5 68
      vertex -18 5.5 68
    endloop
  endfacet
  facet normal 0 0 1
    outer loop
      vertex -9 5.5 68
      vertex -18 -11.5 68
      vertex -8 -11.5 68
    endloop
  endfacet
  facet normal -1 0 0
    outer loop
      vertex -18 -9.5 49.5
      vertex -18 13.5 59.5
      vertex -18 13.5 44.5
    endloop
  endfacet
  facet normal -1 0 0
    outer loop
      vertex -18 13.5 59.5
      vertex -18 5.5 67
      vertex -18 12.5 67
    endloop
  endfacet
  facet normal -1 0 0
    outer loop
      vertex -18 13.5 59.5
      vertex -18 -9.5 59.5
      vertex -18 5.5 67
    endloop
  endfacet
  facet normal -1 0 0
    outer loop
      vertex -18 -9.5 59.5
      vertex -18 13.5 59.5
      vertex -18 -9.5 49.5
    endloop
  endfacet
  facet normal -1 0 0
    outer loop
      vertex -18 -11.5 44.5
      vertex -18 -9.5 49.5
      vertex -18 13.5 44.5
    endloop
  endfacet
  facet normal -1 -0 0
    outer loop
      vertex -18 -9.5 49.5
      vertex -18 -11.5 44.5
      vertex -18 -11.5 49.5
    endloop
  endfacet
  facet normal -1 0 0
    outer loop
      vertex -18 12.5 67
      vertex -18 15.5 59.5
      vertex -18 13.5 59.5
    endloop
  endfacet
  facet normal -1 0 0
    outer loop
      vertex -18 15.5 59.5
      vertex -18 12.5 67
      vertex -18 15.5 68
    endloop
  endfacet
  facet normal -1 -0 0
    outer loop
      vertex -18 15.5 68
      vertex -18 12.5 67
      vertex -18 12.5 68
    endloop
  endfacet
  facet normal -1 0 0
    outer loop
      vertex -18 -11.5 68
      vertex -18 5.5 67
      vertex -18 -9.5 59.5
    endloop
  endfacet
  facet normal -1 0 0
    outer loop
      vertex -18 -11.5 68
      vertex -18 -9.5 59.5
      vertex -18 -11.5 59.5
    endloop
  endfacet
  facet normal -1 0 0
    outer loop
      vertex -18 5.5 67
      vertex -18 -11.5 68
      vertex -18 5.5 68
    endloop
  endfacet
endsolid OpenSCAD_Model
