solid OpenSCAD_Model
  facet normal 0 0 1
    outer loop
      vertex -30.75 -8.5 59.5
      vertex -31.75 -9.5 59.5
      vertex -30.75 -9.5 59.5
    endloop
  endfacet
  facet normal -0 0 1
    outer loop
      vertex -30.75 -9.5 59.5
      vertex -18 -11.5 59.5
      vertex -18 -9.5 59.5
    endloop
  endfacet
  facet normal 0 0 1
    outer loop
      vertex -32 -11.5 59.5
      vertex -30.75 -9.5 59.5
      vertex -31.75 -9.5 59.5
    endloop
  endfacet
  facet normal 0 0 1
    outer loop
      vertex -32 -11.5 59.5
      vertex -31.75 -9.5 59.5
      vertex -32 -9.5 59.5
    endloop
  endfacet
  facet normal 0 0 1
    outer loop
      vertex -30.75 -9.5 59.5
      vertex -32 -11.5 59.5
      vertex -18 -11.5 59.5
    endloop
  endfacet
  facet normal 0 0 1
    outer loop
      vertex -18 15.5 59.5
      vertex -30.75 13.5 59.5
      vertex -18 13.5 59.5
    endloop
  endfacet
  facet normal 0 0 1
    outer loop
      vertex -30.75 13.5 59.5
      vertex -31.75 13.5 59.5
      vertex -30.75 12.5 59.5
    endloop
  endfacet
  facet normal -0 0 1
    outer loop
      vertex -32 15.5 59.5
      vertex -30.75 13.5 59.5
      vertex -18 15.5 59.5
    endloop
  endfacet
  facet normal 0 0 1
    outer loop
      vertex -30.75 13.5 59.5
      vertex -32 15.5 59.5
      vertex -31.75 13.5 59.5
    endloop
  endfacet
  facet normal 0 0 1
    outer loop
      vertex -31.75 13.5 59.5
      vertex -32 15.5 59.5
      vertex -32 13.5 59.5
    endloop
  endfacet
  facet normal 0 0 -1
    outer loop
      vertex -30.75 12.5 44.5
      vertex -31.75 13.5 44.5
      vertex -30.75 13.5 44.5
    endloop
  endfacet
  facet normal 0 0 -1
    outer loop
      vertex -18 13.5 44.5
      vertex -15 -11.5 44.5
      vertex -18 -11.5 44.5
    endloop
  endfacet
  facet normal 0 0 -1
    outer loop
      vertex -15 -11.5 44.5
      vertex -18 13.5 44.5
      vertex -15 15.5 44.5
    endloop
  endfacet
  facet normal 0 0 -1
    outer loop
      vertex -32 15.5 44.5
      vertex -18 13.5 44.5
      vertex -30.75 13.5 44.5
    endloop
  endfacet
  facet normal 0 0 -1
    outer loop
      vertex -32 15.5 44.5
      vertex -30.75 13.5 44.5
      vertex -31.75 13.5 44.5
    endloop
  endfacet
  facet normal 0 0 -1
    outer loop
      vertex -32 15.5 44.5
      vertex -31.75 13.5 44.5
      vertex -32 13.5 44.5
    endloop
  endfacet
  facet normal 0 0 -1
    outer loop
      vertex -18 13.5 44.5
      vertex -32 15.5 44.5
      vertex -15 15.5 44.5
    endloop
  endfacet
  facet normal -1 0 0
    outer loop
      vertex -32 13.5 44.5
      vertex -32 15.5 59.5
      vertex -32 15.5 44.5
    endloop
  endfacet
  facet normal -1 -0 0
    outer loop
      vertex -32 15.5 59.5
      vertex -32 13.5 44.5
      vertex -32 13.5 59.5
    endloop
  endfacet
  facet normal -1 0 0
    outer loop
      vertex -32 -11.5 49.5
      vertex -32 -9.5 59.5
      vertex -32 -9.5 49.5
    endloop
  endfacet
  facet normal -1 -0 0
    outer loop
      vertex -32 -9.5 59.5
      vertex -32 -11.5 49.5
      vertex -32 -11.5 59.5
    endloop
  endfacet
  facet normal 0 1 0
    outer loop
      vertex -15 15.5 68
      vertex -18 15.5 59.5
      vertex -18 15.5 68
    endloop
  endfacet
  facet normal 0 1 -0
    outer loop
      vertex -15 15.5 44.5
      vertex -18 15.5 59.5
      vertex -15 15.5 68
    endloop
  endfacet
  facet normal 0 1 0
    outer loop
      vertex -32 15.5 44.5
      vertex -18 15.5 59.5
      vertex -15 15.5 44.5
    endloop
  endfacet
  facet normal 0 1 0
    outer loop
      vertex -18 15.5 59.5
      vertex -32 15.5 44.5
      vertex -32 15.5 59.5
    endloop
  endfacet
  facet normal 0 -1 0
    outer loop
      vertex -32 -11.5 59.5
      vertex -32 -11.5 49.5
      vertex -18 -11.5 59.5
    endloop
  endfacet
  facet normal 0 -1 0
    outer loop
      vertex -18 -11.5 59.5
      vertex -15 -11.5 68
      vertex -18 -11.5 68
    endloop
  endfacet
  facet normal 0 -1 0
    outer loop
      vertex -18 -11.5 49.5
      vertex -18 -11.5 59.5
      vertex -32 -11.5 49.5
    endloop
  endfacet
  facet normal 0 -1 0
    outer loop
      vertex -15 -11.5 44.5
      vertex -18 -11.5 59.5
      vertex -18 -11.5 49.5
    endloop
  endfacet
  facet normal 0 -1 0
    outer loop
      vertex -15 -11.5 44.5
      vertex -18 -11.5 49.5
      vertex -18 -11.5 44.5
    endloop
  endfacet
  facet normal 0 -1 0
    outer loop
      vertex -18 -11.5 59.5
      vertex -15 -11.5 44.5
      vertex -15 -11.5 68
    endloop
  endfacet
  facet normal -0 0 1
    outer loop
      vertex -31 12.5 68.5
      vertex -15 5.5 68.5
      vertex -15 12.5 68.5
    endloop
  endfacet
  facet normal 0 0 1
    outer loop
      vertex -15 5.5 68.5
      vertex -31 12.5 68.5
      vertex -31 5.5 68.5
    endloop
  endfacet
  facet normal 0 0 -1
    outer loop
      vertex -31 5.5 66.5
      vertex -30.75 12.5 66.5
      vertex -30.75 5.5 66.5
    endloop
  endfacet
  facet normal -0 0 -1
    outer loop
      vertex -30.75 12.5 66.5
      vertex -31 5.5 66.5
      vertex -31 12.5 66.5
    endloop
  endfacet
  facet normal 0 0 -1
    outer loop
      vertex -29.75 5.5 66.5
      vertex -18 12.5 66.5
      vertex -18 5.5 66.5
    endloop
  endfacet
  facet normal -0 0 -1
    outer loop
      vertex -18 12.5 66.5
      vertex -29.75 5.5 66.5
      vertex -29.75 12.5 66.5
    endloop
  endfacet
  facet normal -1 0 0
    outer loop
      vertex -31 5.5 66.5
      vertex -31 12.5 68.5
      vertex -31 12.5 66.5
    endloop
  endfacet
  facet normal -1 -0 0
    outer loop
      vertex -31 12.5 68.5
      vertex -31 5.5 66.5
      vertex -31 5.5 68.5
    endloop
  endfacet
  facet normal 0 1 0
    outer loop
      vertex -29.75 12.5 66.5
      vertex -29.75 12.5 65.5
      vertex -30.75 12.5 66.5
    endloop
  endfacet
  facet normal 0 1 0
    outer loop
      vertex -18 12.5 68
      vertex -15 12.5 68.5
      vertex -15 12.5 68
    endloop
  endfacet
  facet normal 0 1 0
    outer loop
      vertex -15 12.5 68.5
      vertex -18 12.5 68
      vertex -31 12.5 68.5
    endloop
  endfacet
  facet normal 0 1 0
    outer loop
      vertex -29.75 12.5 66.5
      vertex -18 12.5 68
      vertex -18 12.5 66.5
    endloop
  endfacet
  facet normal 0 1 0
    outer loop
      vertex -18 12.5 68
      vertex -29.75 12.5 66.5
      vertex -31 12.5 68.5
    endloop
  endfacet
  facet normal 0 1 -0
    outer loop
      vertex -30.75 12.5 66.5
      vertex -31 12.5 68.5
      vertex -29.75 12.5 66.5
    endloop
  endfacet
  facet normal 0 1 0
    outer loop
      vertex -31 12.5 68.5
      vertex -30.75 12.5 66.5
      vertex -31 12.5 66.5
    endloop
  endfacet
  facet normal 0 -1 0
    outer loop
      vertex -30.75 5.5 66.5
      vertex -29.75 5.5 65.5
      vertex -29.75 5.5 66.5
    endloop
  endfacet
  facet normal 0 -1 0
    outer loop
      vertex -31 5.5 68.5
      vertex -18 5.5 68
      vertex -15 5.5 68.5
    endloop
  endfacet
  facet normal 0 -1 0
    outer loop
      vertex -30.75 5.5 66.5
      vertex -31 5.5 68.5
      vertex -31 5.5 66.5
    endloop
  endfacet
  facet normal 0 -1 0
    outer loop
      vertex -29.75 5.5 66.5
      vertex -31 5.5 68.5
      vertex -30.75 5.5 66.5
    endloop
  endfacet
  facet normal 0 -1 0
    outer loop
      vertex -31 5.5 68.5
      vertex -29.75 5.5 66.5
      vertex -18 5.5 68
    endloop
  endfacet
  facet normal 0 -1 -0
    outer loop
      vertex -18 5.5 68
      vertex -29.75 5.5 66.5
      vertex -18 5.5 66.5
    endloop
  endfacet
  facet normal 0 -1 -0
    outer loop
      vertex -15 5.5 68.5
      vertex -18 5.5 68
      vertex -15 5.5 68
    endloop
  endfacet
  facet normal 0 -1 0
    outer loop
      vertex -32 13.5 44.5
      vertex -31.75 13.5 59.5
      vertex -32 13.5 59.5
    endloop
  endfacet
  facet normal 0 -1 -0
    outer loop
      vertex -31.75 13.5 59.5
      vertex -32 13.5 44.5
      vertex -31.75 13.5 44.5
    endloop
  endfacet
  facet normal 0 -1 0
    outer loop
      vertex -30.75 13.5 44.5
      vertex -18 13.5 59.5
      vertex -30.75 13.5 59.5
    endloop
  endfacet
  facet normal 0 -1 -0
    outer loop
      vertex -18 13.5 59.5
      vertex -30.75 13.5 44.5
      vertex -18 13.5 44.5
    endloop
  endfacet
  facet normal 0 1 -0
    outer loop
      vertex -31.75 -9.5 49.5
      vertex -32 -9.5 59.5
      vertex -31.75 -9.5 59.5
    endloop
  endfacet
  facet normal 0 1 0
    outer loop
      vertex -32 -9.5 59.5
      vertex -31.75 -9.5 49.5
      vertex -32 -9.5 49.5
    endloop
  endfacet
  facet normal 0 1 -0
    outer loop
      vertex -18 -9.5 49.5
      vertex -30.75 -9.5 59.5
      vertex -18 -9.5 59.5
    endloop
  endfacet
  facet normal 0 1 0
    outer loop
      vertex -30.75 -9.5 59.5
      vertex -18 -9.5 49.5
      vertex -30.75 -9.5 49.5
    endloop
  endfacet
  facet normal 0 0 -1
    outer loop
      vertex -18 -11.5 49.5
      vertex -30.75 -9.5 49.5
      vertex -18 -9.5 49.5
    endloop
  endfacet
  facet normal 0 0 -1
    outer loop
      vertex -32 -11.5 49.5
      vertex -30.75 -9.5 49.5
      vertex -18 -11.5 49.5
    endloop
  endfacet
  facet normal -0 0 -1
    outer loop
      vertex -30.75 -9.5 49.5
      vertex -32 -11.5 49.5
      vertex -31.75 -9.5 49.5
    endloop
  endfacet
  facet normal -0 0 -1
    outer loop
      vertex -31.75 -9.5 49.5
      vertex -32 -11.5 49.5
      vertex -32 -9.5 49.5
    endloop
  endfacet
  facet normal -0.707107 -0.707107 0
    outer loop
      vertex -30.75 12.5 44.5
      vertex -31.75 13.5 59.5
      vertex -31.75 13.5 44.5
    endloop
  endfacet
  facet normal -0.707107 -0.707107 0
    outer loop
      vertex -31.75 13.5 59.5
      vertex -30.75 12.5 44.5
      vertex -30.75 12.5 59.5
    endloop
  endfacet
  facet normal 1 -0 0
    outer loop
      vertex -30.75 12.5 59.5
      vertex -30.75 13.5 44.5
      vertex -30.75 13.5 59.5
    endloop
  endfacet
  facet normal 1 0 0
    outer loop
      vertex -30.75 13.5 44.5
      vertex -30.75 12.5 59.5
      vertex -30.75 12.5 44.5
    endloop
  endfacet
  facet normal 0 0 -1
    outer loop
      vertex -30.75 -9.5 49.5
      vertex -31.75 -9.5 49.5
      vertex -30.75 -8.5 49.5
    endloop
  endfacet
  facet normal 1 -0 0
    outer loop
      vertex -30.75 -9.5 59.5
      vertex -30.75 -8.5 49.5
      vertex -30.75 -8.5 59.5
    endloop
  endfacet
  facet normal 1 0 0
    outer loop
      vertex -30.75 -8.5 49.5
      vertex -30.75 -9.5 59.5
      vertex -30.75 -9.5 49.5
    endloop
  endfacet
  facet normal -0.707107 0.707107 0
    outer loop
      vertex -31.75 -9.5 49.5
      vertex -30.75 -8.5 59.5
      vertex -30.75 -8.5 49.5
    endloop
  endfacet
  facet normal -0.707107 0.707107 0
    outer loop
      vertex -30.75 -8.5 59.5
      vertex -31.75 -9.5 49.5
      vertex -31.75 -9.5 59.5
    endloop
  endfacet
  facet normal 1 -0 0
    outer loop
      vertex -29.75 5.5 66.5
      vertex -29.75 12.5 65.5
      vertex -29.75 12.5 66.5
    endloop
  endfacet
  facet normal 1 0 0
    outer loop
      vertex -29.75 12.5 65.5
      vertex -29.75 5.5 66.5
      vertex -29.75 5.5 65.5
    endloop
  endfacet
  facet normal -0.707107 0 -0.707107
    outer loop
      vertex -29.75 5.5 65.5
      vertex -30.75 12.5 66.5
      vertex -29.75 12.5 65.5
    endloop
  endfacet
  facet normal -0.707107 -0 -0.707107
    outer loop
      vertex -30.75 12.5 66.5
      vertex -29.75 5.5 65.5
      vertex -30.75 5.5 66.5
    endloop
  endfacet
  facet normal -0 0 1
    outer loop
      vertex -18 15.5 68
      vertex -15 12.5 68
      vertex -15 15.5 68
    endloop
  endfacet
  facet normal 0 0 1
    outer loop
      vertex -15 12.5 68
      vertex -18 15.5 68
      vertex -18 12.5 68
    endloop
  endfacet
  facet normal -0 0 1
    outer loop
      vertex -18 5.5 68
      vertex -15 -11.5 68
      vertex -15 5.5 68
    endloop
  endfacet
  facet normal 0 0 1
    outer loop
      vertex -15 -11.5 68
      vertex -18 5.5 68
      vertex -18 -11.5 68
    endloop
  endfacet
  facet normal -1 0 0
    outer loop
      vertex -18 -9.5 49.5
      vertex -18 13.5 59.5
      vertex -18 13.5 44.5
    endloop
  endfacet
  facet normal -1 0 0
    outer loop
      vertex -18 13.5 59.5
      vertex -18 5.5 66.5
      vertex -18 12.5 66.5
    endloop
  endfacet
  facet normal -1 0 0
    outer loop
      vertex -18 -9.5 59.5
      vertex -18 5.5 66.5
      vertex -18 -9.5 49.5
    endloop
  endfacet
  facet normal -1 -0 0
    outer loop
      vertex -18 13.5 59.5
      vertex -18 -9.5 49.5
      vertex -18 5.5 66.5
    endloop
  endfacet
  facet normal -1 0 0
    outer loop
      vertex -18 -11.5 44.5
      vertex -18 -9.5 49.5
      vertex -18 13.5 44.5
    endloop
  endfacet
  facet normal -1 -0 0
    outer loop
      vertex -18 -9.5 49.5
      vertex -18 -11.5 44.5
      vertex -18 -11.5 49.5
    endloop
  endfacet
  facet normal -1 0 0
    outer loop
      vertex -18 12.5 66.5
      vertex -18 15.5 59.5
      vertex -18 13.5 59.5
    endloop
  endfacet
  facet normal -1 0 0
    outer loop
      vertex -18 15.5 59.5
      vertex -18 12.5 66.5
      vertex -18 15.5 68
    endloop
  endfacet
  facet normal -1 -0 0
    outer loop
      vertex -18 15.5 68
      vertex -18 12.5 66.5
      vertex -18 12.5 68
    endloop
  endfacet
  facet normal -1 0 0
    outer loop
      vertex -18 -11.5 68
      vertex -18 5.5 66.5
      vertex -18 -9.5 59.5
    endloop
  endfacet
  facet normal -1 0 0
    outer loop
      vertex -18 -11.5 68
      vertex -18 -9.5 59.5
      vertex -18 -11.5 59.5
    endloop
  endfacet
  facet normal -1 0 0
    outer loop
      vertex -18 5.5 66.5
      vertex -18 -11.5 68
      vertex -18 5.5 68
    endloop
  endfacet
  facet normal 1 0 0
    outer loop
      vertex -15 12.5 68.5
      vertex -15 5.5 68.5
      vertex -15 12.5 68
    endloop
  endfacet
  facet normal 1 -0 0
    outer loop
      vertex -15 12.5 68
      vertex -15 15.5 44.5
      vertex -15 15.5 68
    endloop
  endfacet
  facet normal 1 0 0
    outer loop
      vertex -15 5.5 68
      vertex -15 12.5 68
      vertex -15 5.5 68.5
    endloop
  endfacet
  facet normal 1 0 0
    outer loop
      vertex -15 12.5 68
      vertex -15 5.5 68
      vertex -15 15.5 44.5
    endloop
  endfacet
  facet normal 1 0 0
    outer loop
      vertex -15 -11.5 44.5
      vertex -15 5.5 68
      vertex -15 -11.5 68
    endloop
  endfacet
  facet normal 1 0 0
    outer loop
      vertex -15 5.5 68
      vertex -15 -11.5 44.5
      vertex -15 15.5 44.5
    endloop
  endfacet
endsolid OpenSCAD_Model
